v -1.279568766169105 -0.16156896446112534 0.7245245112663145
v -1.2290426554596408 -0.42901472388118844 0.3393012470442207
v 0.4122479542320313 -0.20302394908317187 -0.9345426739395666
v -0.9429052805541408 -0.527490217183833 -0.00041842562744811435
v -0.4942458729216427 -0.36761810329069855 0.20982209986192474
v 0.8755287346088353 -0.09898609599338795 -0.2517146032715244
v -0.0469456104511885 0.13619927753913286 -0.1984170753926074
v -0.345470740895762 -0.1032797295133065 -1.0858335767276508
v -0.8585828683231624 -0.21414276456064868 0.7299287564814243
v -0.18266899293493055 0.08537914675712098 -0.20194022093398983
v -0.9176676270678186 0.06445234701287834 0.00977128345843008
v -1.7893411324316504 -0.012507922438048324 0.6404001688272261
v 0.7911037122988346 0.4192510988387026 -0.2423588559827524
v 0.06670144802079425 -0.605108622566719 -0.7564118269369888
v -0.22723082212079582 0.45146334780606645 0.07761286140151663
v -0.0312984813804153 0.3488904655938312 0.00740870740147654
v -0.3757315609088776 0.3814783770729817 -0.16456309954694284
v -0.41821829805413374 -0.4905640257710632 0.2070114490197417
v -1.0153502376435082 -0.5077243444240666 -0.045072342053050864
v 1.0422846899677105 0.33826364228334466 -0.2600766662944185
v -0.10138720585575027 -0.1355301941871266 -0.6637523738071205
v -0.6488799096398881 -0.4794123326370687 -0.059294815103255974
v -1.0227733462223245 -0.6320631362752881 0.03253840533341005
v 0.9463427836442041 0.5080688739601937 -0.5565621346158905
v -0.4150660875769363 0.4321753848328789 -0.45918985571706644
v 0.030212543515486655 0.2624193459056174 -0.5955714636488626
v -0.42512723007828396 0.13012566755855795 -0.25782665730837395
v 0.9821742350518992 -0.3507980052775179 -0.6497083456768212
v 0.6694890747537144 -0.21888995428952487 0.15965837669036737
v -0.5759862794967804 0.4149934957562727 -0.0011959607195464335
v -0.535285778185885 -0.23216857498380342 -0.31238903629469333
v 0.9820730024664227 0.20066081653218257 -1.0140919353246172
v 0.04843402638386171 -0.31891549280962933 -1.146135127822355
v -1.1647934770712836 -0.07802961078890422 -0.5526066555693608
v -0.5146436176767633 -0.6962941996746197 0.2065250443159472
v 0.14471975811146717 -0.6142106444728302 -1.183123958294906
v 0.8464553659645665 -0.03712018750509582 -1.1679651034291887
v -0.6332656159855954 -0.21148117362801783 0.688800058527451
v -0.252820001898258 0.3120375574567718 -0.5203797452556113
v -1.633983351953687 -0.3130818780716386 0.11955908847960897
v 0.3104354479803262 -1.1977591245591899 -0.06398413317356844
v 1.0459198812655957 -0.0878906686818252 -0.7121470998851815
v 0.8506898331227986 -0.009501580239093298 -1.171145323465972
v -0.49484563462793485 0.30854371737761954 -0.5073784560645745
v 1.0844817997885154 0.4930964758175469 -0.37657588705527617
v 0.1447545406474648 -0.1241987144433986 0.14373254113336814
v 0.5383793332391748 -0.13223179748261799 -1.0079067495674066
v -0.7444216485116243 -0.2676389544097613 -0.04264565721065964
v -0.8590514224581743 -0.60288233717883 0.22329595919785739
v 0.22108315021728808 -0.29382947526700476 -1.0433805244344267
v 0.6188355441306688 0.39148919704303364 -0.7392967915308892
v 0.28149713175489305 0.16053604117798406 -0.2414322180612885
v -0.6551566222754694 0.025156537310346287 -0.79566533048613
v -0.9926185694520141 0.2741795785141304 0.3105286532714803
v -0.38206367660369067 0.40748145818764464 -0.47293178656431695
v 0.9633232902359883 0.21458321049281867 -0.28622506738008463
v 0.46809871912563195 -0.13143907207681738 -0.9852961334509768
v -1.1983917237051926 0.05237788367650532 -0.06515440883263574
v -1.294632036440429 -0.15988207617000186 0.38321202279766103
v 0.938864020622899 0.15781033606344197 -0.21676840722303667
v -1.039969406164675 -0.6539809209295204 -0.023752562199478584
v 0.8303657990409465 -0.020506483308810452 -1.15591704707843
v 0.7347011463391239 0.24990959806244573 -0.8735815107406929
v -0.7297440921736339 -0.005706188595783202 -0.0725870657392859
v -1.1529756210381343 -0.30975255531869766 0.0537063838261766
v -0.38152864184900115 -0.16634727986111644 0.17360382812846256
v -0.37294441372007237 -0.19339647924881176 0.04234456937123495
v 0.8445797752751896 -0.10605057533862443 -1.1284503458343587
v 0.7026914511458536 -0.277410609712546 -1.0745712850753104
v -0.5778447819416999 -0.02463380485627251 -0.8611304388946965
v 0.11302418624136949 -0.6063936450046366 -0.7585091297108806
v -0.40810337738493496 -0.18868701654300335 0.2619519618714759
v -0.5128900901609736 0.13423504038158107 -0.9031917558729821
v -0.054545711802121775 0.2874304132748858 -0.5167487130863472
v -0.48925907362615073 -0.5545985599412094 0.09667597853773287
v -0.051013374171400006 0.3697459729465753 -0.010428226730998136
v 0.6704088009596478 -0.017152230083167554 -1.12085215921786
v -0.4731481492481469 -0.0016919172212197823 -0.18069216958086
v -0.3512416483260364 -0.1724201067889513 -0.7114862539984865
v 1.1494507772063531 0.39490176563089985 -0.30125561022479674
v 0.9447837257474574 0.2325886048592039 -0.5628540562795035
v -1.6667515611564798 -0.4327144708328213 0.023973174131446805
v -1.096089019741904 -0.5672841673987722 0.015390240859360334
v -0.876265035539897 0.3149411849545018 0.26765933056984953
v -1.2464267691083062 -0.44950754754541533 -0.0008494435980957622
v -0.1375048748318986 -0.6361807694615338 0.06745906059329926
v -0.5414464930096341 -0.15983140986504954 -0.7084204398824877
v -0.5604186897056116 -0.15725976282359744 -0.6978913689745027
v -1.6690557336909826 -0.16266730693514192 -0.029588851184118466
v -0.4092640824408255 -0.3767326976487165 0.2837111203561407
v -0.6662639237324961 -0.6407712560655374 -0.051909130162857524
v 0.1703988528761751 -0.16061058354806557 -0.6723061757558082
v -0.0030423356983609808 0.1997780794398089 -0.3079789168987025
v 0.9707743897556096 0.1282389398124299 -0.8403657202477403
v 0.24052162632151397 0.39074400650133456 -0.630662190663442
v -0.15882858869066938 0.21229393262077548 -0.4310642713382961
v -0.8745241621762736 -0.18264825448873295 -0.6134090631368277
v -0.41551549647035485 -0.5050415373743572 0.2646087343455204
v 0.8209638101606658 0.40839260908829256 -0.23229037788343823
v -0.5389050455845596 -0.6769811548983705 0.17434877444614008
v -0.007487517946955901 0.5723683781676325 -0.7324791230319443
v -0.5709801722944255 -0.6287578605455486 -0.7557282597008441
v -0.5475262182914289 0.3343429866620826 -0.43618951610606876
v 0.18739725353640319 0.484929280178399 -0.8191531671087924
v -0.5637708830154414 -0.23314404483202075 -0.7247077127803268
v 0.8464091672271864 -0.06309568564821635 -1.0004699749564547
v -1.8048831634012816 0.021654584187568188 0.6438945508141941
v 0.46729278102484756 -0.09214257344252821 -0.7664981862536201
v 0.8077201105893013 0.4934683560641221 -0.7506658516603534
v -0.6275711465454316 -0.3752714910715541 0.42757869078591204
v -1.099870686529986 -0.33037111571271655 0.3095554148337414
v 0.6921187503172931 0.3143857807867787 -0.6970802948245611
v 1.011763728429897 -0.34515747980357453 -0.6054511458127877
v 1.0429192092304098 -0.2833936253434672 -0.6230283513341068
v 1.0417436761141952 -0.2539035302221104 -0.6681551000816355
v -0.12225384499574021 0.36367601659586835 -0.5730650054129867
v 0.8551541782606746 -0.0735645207916145 -0.026914727491871786
v -1.2097517221167313 -0.5168035883439088 0.20575223057927033
v 0.8060750583797968 -0.037144658665904016 -1.125708260767624
v -0.4432437191714836 -0.029542794115947537 0.1328919563809298
v -0.4506501381110131 0.032403475461248867 -0.9707914260005183
v -0.6827649421070998 -0.33858139386698805 -0.46804424225176894
v -0.6947500678089942 -0.26135206867787675 0.5784844786868956
v 0.7905596427719463 0.05936185307836619 -0.09991557076286413
v -0.6517524112864195 -0.6981033019160545 0.35164407121409047
v -1.384887445388917 -0.026725408552345554 -0.06190143677013402
v -0.7151016792824076 -0.3109597879378295 0.2662930980238111
v 0.8649672579526401 0.13674767019699718 -0.7101928689775105
v -0.12095360837439191 0.2722081220181247 -0.4230748759985407
v 0.9351524411724551 -0.32816404876217015 -0.47319002123748344
v -1.2827870188488486 -0.263017711197379 0.42037721264865335
v -0.6877251323272188 0.3713026822977324 -0.39179332126371097
v -1.4191941480223385 0.6250137785856369 -0.5603899612810282
v 0.037791267044158534 -0.21541485502059943 -0.6606175374833865
v -0.8595400582166676 -0.5778453392591903 0.4055073952127076
v 0.12839262779657754 -0.05238914744480394 -0.13265775311770117
v -0.4704787356826425 -0.2159304483525 0.527684808657751
v -1.4907910892948883 -0.045169498341237235 0.10274917907300231
v -0.590973474179489 0.11586732177631962 0.3159320406432083
v -1.2613660815750267 -0.3215272658119225 0.03297268272686121
v -0.7095907318447279 -0.10674938985082108 0.36574503511232204
v -0.4651864794981471 0.2454909887865088 -0.615184321090023
v -0.6162414488869657 -0.54899277218194 0.07376317260090783
v -2.017929809057491 -0.29120426540764743 -0.11668489024072928
v 0.13638062167912698 0.10238913370428027 -0.11511018538646818
v -0.762809870426087 -0.5724598108313824 -0.08387516050389718
v 0.9038506379770648 0.05675521465062782 -0.2750240103942963
v -0.5916758479184832 0.14201941805586665 -0.758633208793922
v -0.6546074459364368 -0.6877440616961106 0.24609501122465866
v -0.5871989551283655 -0.6895751222690326 -0.7971778462557015
v -0.8424702390307319 0.0065282293606563945 -0.14010704367334734
v -1.040760337214701 -0.12891142301008904 0.800547180021178
v -1.1525555098325844 -0.7485307011415125 -0.02655949998560044
v -1.1323685473307346 0.03225895837553747 -0.19865047493023102
v -0.7132362229204147 -0.7425701017058571 0.07552354788512365
v -0.44494029608712277 0.211715159064299 0.09855249142320995
v 0.13552574046761437 0.24761632683173923 -0.17210409264942864
v 0.7760821557477332 0.10808897277825781 -1.1365465031605966
v -1.3531220552700978 -0.1428608338957392 0.15690238909185622
v 0.9143855887486712 -0.23110270511427858 -0.3003419848936087
v -1.4605508481448952 0.5533346704055635 -0.5284292034525071
v 0.6574881440527348 0.34586742986910696 -0.2825730046997394
v 0.02254499220427648 0.5703696596016922 -0.8015181819118572
v 0.7595411389483957 0.07549580462050104 -1.110117610031994
v -1.0519857064408995 0.0691345648729152 -0.07323579420759384
v -0.49322690790386403 -0.4471662895879312 -0.9269279775919058
v 1.1291906958026183 -0.17113738281514082 -0.6887365369955852
v 0.7743091651352374 0.11321818560192248 -0.7950886624305233
v 0.40285685896990836 -0.20608692789870395 -0.733470705107142
v -0.892702736532574 -0.6768721531852904 0.09224521621503776
v 0.834840098204272 0.17566033134417605 -0.2246647198480704
v -1.0735957327068604 -0.1274100756015624 0.809687681065652
v 0.9418020317454727 0.2961124066910144 -0.33869400205567013
v 0.8755014894343266 0.5175894617243669 -0.45381223464523074
v -1.476224392566091 0.16637501593386186 -0.43897953216761304
v 0.7102587920883264 -0.20297331176976616 -0.6557749536437416
v -0.574639811599125 0.5080460215228735 -0.015647581103382446
v 0.3927680706675247 0.3559279616462291 -0.9376377602815846
v 0.6533727727369579 0.25746360395274875 -1.0158032807450468
v 0.26004120552893417 0.2573103308682231 -0.33476216826042926
v -0.5281314306685243 0.41078423324140717 -0.10678733568331225
v 0.5960425801402248 0.4025711597269773 -0.6181997408369004
v -0.9206839940936532 -0.7406188422128523 -0.339026117486995
v -1.4204370248587448 -0.645169927429064 0.29481958629564553
v -0.45179452166479667 0.5611427140163656 -0.5262205388544725
v -0.7029419744968682 -0.5238336026991974 0.47833018427218993
v -1.4237118175489 0.5731823889502815 -0.5288437687522496
v -0.3928887993049323 0.43522749451193504 0.019704819311628295
v -0.15948325208374176 0.36455688240796336 0.14033370441227644
v -1.0491991904990705 -0.21119709439790169 0.8520041363712819
v -1.0900872107898563 0.0024059607307781164 0.06420793928768344
v -0.11356241799188471 0.21648280961119942 -0.32980272730523924
v -0.012941103502922324 -0.42977895564047464 -1.2690673030344761
v -0.8430466789120812 -0.07477880983151432 0.02020165384877679
v -0.7553433485737201 -0.5761033546365073 0.5334153974707755
v 0.0389650890922166 -0.5071451731535273 -1.2529733854615053
v -0.5284220059494351 0.05824207859979532 0.2074630409142468
v -1.0429864499582198 -0.1671132860488638 0.845961487944546
v -1.048248276372317 -0.1275228378985466 0.8122249267004528
v 0.43002931817253065 -0.1669728650714121 -0.7431418537529122
v 0.028100202432025302 0.5838998721995261 -0.7284763931568323
v -1.3763556206453493 -0.11414406418155225 0.2902323001570421
v -0.4545472389434739 -0.08763528076474911 0.5080672423106818
v -0.3137072630589967 0.17259986323779059 -0.9047980765946795
v 0.026844709011227826 0.36200706947822575 -0.14269070062970296
v -1.0004901080313255 0.3110224917049856 0.24067329046768263
v 1.0628876573820016 -0.16175777995419366 -0.7169637301596257
v -1.817409756510862 -0.4045858285060845 -0.008650962909531027
v -0.8940763286794184 -0.3338270636899015 0.766274557397777
v 0.11943602488362937 -0.5358337595167058 -1.2042207647020797
v -0.6845987408618074 0.4370745794803608 -0.008534290345084124
v 0.9787643228679112 0.4313802674947812 -0.25734280573437335
v -1.188322562402434 -0.04207723754036717 0.3195722582880897
v -0.36547825189313765 -0.04474727756592177 0.2401458130469733
v -0.8092723158093045 -0.6942200515558999 0.44176401036015556
v 0.033198062628389244 -0.35340916271484935 0.28029321123182294
v -1.637182991035006 0.18619217556491663 -0.3209607447327807
v -1.1444737249393144 -0.5707771755372554 0.47987095779625105
v -1.5808087422771078 0.34392862209814784 -0.4399447717924587
v -1.6711425596078682 -0.4752335576158494 0.3395365391347097
v -1.3850535718817771 -0.004826347390395912 0.0834880930970853
v -0.0031282007418242923 -0.4633805698822027 -1.2815503527349952
v 0.8790526359301215 -0.7124963940073057 -0.6379575549169831
v 0.8890616083976862 0.40627555189221287 -0.27036614124498964
v -0.7575659284974435 -0.37187946158314716 0.4249098956138188
v 0.632546472151892 0.34993448819450657 -0.6862731588033565
v 1.0609631289645722 0.5030496853681989 -0.3558388506183475
v 0.3348249709351396 0.39552112080714247 -0.4716619458552143
v -1.3729866008333422 0.5537230263445866 -0.4746195920419965
v -1.5124841995448222 -0.661512550252709 0.13652292482522366
v -0.48242093856589435 0.31408272964601414 0.08260244652840429
v 0.6510008995912216 0.32269742820239306 -0.8478264083129979
v -1.0369684128207397 -0.132100347461987 0.7803430980112315
v -1.2906305445726567 -0.6210490714926797 0.4038157805715929
v -1.317966807243417 -0.2109100446896212 0.16833968571265726
v -0.08822280338951151 0.21565446150131443 -0.8229553546830465
v 0.07052621607852995 0.40593673792038115 -0.6986867189670314
v 0.38182031674661016 0.4557932103026361 -0.21156787501441873
v -0.8230507663343503 -0.26733609417164705 -0.3182859266234471
v -0.9382156881233819 0.07715432479052743 -0.09661772583773469
v -1.1093733519485791 -0.568358287963661 -0.054088768605541376
v -0.05180359046042445 0.307970116273227 -0.8446788680432552
v -0.29760140032544213 0.36165788235490126 -0.8338172712921715
v 0.011015418299885237 -0.4808921578295941 -1.3147712825501274
v 0.41996461522310713 -0.21703181058025178 -0.8646292854846204
v -0.36993029673595434 -0.6010987114900505 -0.7972844357861567
v -0.3329681980071337 -0.11823970507399585 0.3589541853153044
v -1.0474667980327992 -0.12267123191161661 -0.5525232017632418
v 0.8087979404546951 -0.023494080018100508 -1.1556788502829087
v -0.6636078108339006 0.4469212771466434 -0.17442612002276156
v -0.2456824230705913 0.4861751044168659 -0.31070200734062625
v 0.11766237889397893 -0.3539854166608169 -0.6328055434444658
v -0.7657898604096572 -0.20414164485262742 -0.542965298620245
v -1.2316080237742741 -0.34934858845737354 0.3182105613882993
v -0.549867721181956 -0.05995966100127149 -0.8199679537772148
v -0.341676765402021 0.04650363657250952 -0.17046673688448785
v -0.6661026789944844 -0.34025717777198977 0.080978956365731
v -1.3784304464302513 0.6166072005801638 -0.5460665426729829
v 0.0036412322851888056 0.4583435382737258 -0.21459443438593956
v 1.1142256379492042 0.4326555052869152 -0.3038006182994027
v -0.9888166459384717 -0.3682127935816732 -0.12901123619655347
v -0.4675196183722431 0.5299771470507088 0.02092170420013273
v 0.74738900016823 -0.20005629690472682 -0.5294927879389271
v 0.3352879178863202 0.4472977455295616 -0.7820203097894959
v -0.5771394557288392 0.11429794535089757 0.12969645455651735
v 0.9398910292263075 -0.28680493004206126 -0.7108180725109933
v -0.0960226628469329 0.14642363703880149 -0.17591244656807672
v -1.4146008194929534 -0.15764600607502513 0.09312323406751946
v -0.8932653532479855 -0.042269977813016835 -0.6493235844770546
v -1.0205631164456532 0.5675731603019327 -0.47292109328742526
v -0.9246995375466694 -0.2391079565364453 0.8260081943717121
v -0.7681342296513348 0.3652802926906639 0.10472126801675956
v 1.0888870326839122 -0.18505166559601777 -0.6739183086133207
v -0.16939595671281896 0.14905828477549804 -0.24516682292428807
v -0.7581843746305168 -0.4397499336622486 -0.13605122174341605
v -1.3505211079682642 -0.47142828643835066 0.36581368248201157
v -1.1338371041671753 -0.5888021427833208 -0.07264949095026126
v -1.0380782392837462 -0.7745888994608143 -0.1559673509245245
v 1.0389100339221096 0.08553703018306331 -0.891745461105949
v -1.2557710468635637 -0.5998558229218436 0.35781568268550445
v -0.6444707745264622 -0.4143455855475723 0.5481818939817971
v -0.07287147269600121 -0.4009279556274051 -0.6748638883011324
v 0.9056037560681531 0.39567640496069606 -0.2822069697637494
v 0.0936436076056855 -0.22122347951832497 0.2634055432060975
v 0.14101826067183648 0.4126453155445602 -0.7039858068665118
v -0.11100382001184685 0.2631513795462118 -0.6706518369484479
v 0.05670094301965563 0.37497884661646164 -0.34315977922778673
v -0.6759668334232911 -0.006961459417069022 -0.7947991872058859
v -0.9565019953822412 0.20683283795634438 -0.05660627366325274
v -0.47356486298913797 -0.5060421736212387 0.19466461182215786
v 0.06956061544677063 -0.605883796902851 -1.1950921011706817
v -0.5293311158569882 -0.5281230887418633 0.38736075287513894
v -0.5646089003462111 -0.5704543613335162 -0.7756855604745649
v -0.009145219997860193 0.320796303861426 -0.5490239671690966
v -0.6312162450087991 0.19945630845560783 0.24375042918995982
v -0.21256528482875167 0.5952066705631226 -0.4885606821404093
v -2.072998685841296 -0.2394919345302745 -1.1576368977834033
v 0.08131893516258373 -0.6240645507223126 -0.6576033388587291
v 0.19217363312692184 0.4298524937885599 -0.850685764109951
v 0.7024013548292478 0.044965016126444476 -1.1372731481760752
v -0.4499344790246991 -0.18463093754874313 -0.2659456576394025
v 0.5892876686901176 0.40757779091778257 -0.9288559217318239
v 1.0884819426952184 -0.2424995200723563 -0.6904003639297422
v 0.9693040397522701 0.15940582205869594 -0.6008878499691325
v 0.06316846882090188 -0.6237001279527508 -1.154898410754339
v -0.6922945187329386 0.029143161289229697 0.31043560709636464
v -0.45781661622062914 -0.5763783988435717 0.09705942767217955
v -0.5934427129175049 -0.32828581265456586 0.24924375781315733
v -0.23324454185956311 0.34397811171008513 0.15261207530735607
v -0.7529716678742124 -0.19424244834260582 0.108570466891853
v 0.8405484688233046 0.11587742055781039 -0.6458163073580678
v -0.7169031762258127 -0.1610649783720352 0.19818133034796362
v 0.9422111220481043 0.1294297137804386 -0.6301311113239699
v -0.15328084198307404 0.3368863063578043 0.1350655965361927
v -0.5621873764697274 -0.27685932363623067 0.04147245395238773
v -1.2814561249209626 -0.3486133264210512 0.4161528665572694
v -1.2983977279124543 -0.1323678833081142 0.25186888024475124
v -0.44165527195349624 -0.16755777238718028 0.45687257346099963
v -0.9899398668935752 0.35814629582221696 0.3531235361250883
v -1.0194280047757989 -0.6930785147012871 -0.030452204104246615
v -0.3836637662781113 0.5109818644818908 0.04638205825445411
v 0.11127671799859427 -0.21093283931112858 0.2565820982915188
v -0.3686279037535001 -0.6320259803279893 0.12902933860737786
v -0.7881307928380362 0.3148566738068753 -0.07891804650360335
v 0.7913333117375548 -0.14887330795337622 -1.1020177638131812
v -0.7105817859023075 -0.2899099696917771 -0.4543252438226446
v -0.4826066539214565 -0.19892482542222203 -0.3077433728628258
v -0.4925171271629445 0.3281673682767144 -0.7939994042659614
v 0.5854914867596477 0.18792906249483565 -0.5497089897304855
v -0.5640223862549741 -0.23982339440892783 -0.3469650851935144
v -1.1198605638944525 -0.12586901987257595 0.8180331273320026
v -0.5321924242850425 0.14672454040538446 0.2765575346476291
v -0.877873649844139 -0.7013015690891531 0.013490245162210356
v -1.218918491638277 -0.14186553277693995 0.49786323637401747
v 0.793470570109634 0.5170800545206745 -0.6138251418942462
v -0.4252316313476798 0.34497501016858595 0.10237692190055195
v -0.1205748654634356 0.4332460355615202 0.007771362083804485
v -0.6295332686576651 -0.1647834520381509 -0.568681132657801
v 0.3092666858061531 -0.27149728542948504 -0.5740582396305131
v 0.2942965289770059 0.17662453446352672 -0.1938655869493593
v -2.0180055657612064 -0.2907976685733182 -0.11638351139995512
v -0.5970376064026187 -0.09418458651844468 -0.26606383097094644
v 0.7044153297890127 -0.15339111881346043 -0.7795796944846196
v 0.35040997959185943 0.3233154728185888 -0.24971365122231384
v 1.142293975411304 0.3795277803209931 -0.2999249907681744
v -1.4021758881597481 -0.730116580053045 0.13076438439617574
v -1.3053520139410295 0.19020907068942633 -0.16785730659416515
v -0.3492963018579215 0.1564624757180139 0.19570406128007609
v -1.230345291603795 -0.1637723709146156 0.7696011471682455
v -1.498691619932096 -0.43041593122255106 0.26205736996959506
v -0.7279339278655705 -0.39553733650647116 0.5733972660278548
v -1.980974979460613 -0.3043449295071791 -0.10558914394154718
v -1.020901568332977 -0.5535797009247434 -0.047466014287726656
v 0.5445888639980236 0.2029005898689814 -0.606771086994789
v 0.08977638634406833 0.3114777845419318 -0.44288658243506
v 0.5446837011829607 0.11486999162241905 -1.1040516683250776
v 0.0966329134872194 -0.3841406844535632 -0.5098744862271943
v -1.205290975538024 -0.14559328043202846 0.4572091619093592
v -0.6639719735264416 -0.6865459999577636 -0.6452759048093574
v -0.2735119902987584 0.5553966679023844 -0.32501221145494963
v -1.135948390071529 0.21507975838977947 -1.4819092288255096
v 0.8883985817707644 0.2770241787285872 -0.2305957471702107
v 0.6143089741592418 0.33457305321721265 -0.9558084933861165
v -0.3899893249552621 -0.0836614447176058 -0.7601033078379663
v -0.042283044214577827 0.3701749317953838 -0.514009076885793
v 0.3025254268042761 -0.23426481470653185 0.24514451297160256
v 0.5335040570918794 0.10831794416425503 -0.4509725763963615
v 0.9722011990848036 -0.213136122059472 -0.6394335703898826
v -0.9375306554087981 0.3778192088761048 0.21052761035881462
v -1.0093503296945066 0.020754748764937256 0.6827538259604127
v -1.4253374700687922 0.5660535314319446 -0.5140857369709976
v 0.8865466369940534 0.2968580554073205 -0.9536854929314057
v 0.3390310618760882 0.4533369302750927 -0.6879481960393843
v -0.48075138011880847 -0.09683609647109709 -0.10759923351587329
v -0.019828556414423923 0.44880598242289443 -0.11830681911884042
v -1.0610626470072948 -0.14648699230096368 0.8484390438126832
v 0.008121279426910523 -0.1902822603345755 0.30327551169806577
v -0.5699297369311179 -0.7209112510225413 0.18118345659931365
v 0.8507052497354637 -0.1892068721518228 -0.1277674856629956
v -0.4806711670306223 -0.18944420884361174 -0.24306146311227014
v 0.931803817761361 -0.5345858454305735 -0.6392826015125415
v 0.9993760085577338 -0.2851162286992473 -0.7085117899573605
v 0.9387917826940884 0.2832907472521278 -0.570970562746167
v -0.5368596077528399 0.5207659613609981 -0.5741243193221485
v 1.045869271182625 0.052402354460621484 -0.8542226601553654
v -0.8655500755528566 0.14921606853082262 0.2904924236772597
v -0.578282392474863 -0.21033918367269352 -0.8052492213268138
v -0.2443562401943465 0.35661272854456655 -0.5198977621813157
v -0.0993095080832073 0.40638015235004954 -0.5209531760947114
v -0.09159083997212117 0.4348668665655451 -0.1764353958444077
v 0.790022995194996 -0.17687912126892677 0.030506474159374998
v -0.4454647470597067 0.29763199238261623 -0.41342095517619515
v -0.9565968701368015 0.013307710411554863 0.4148343631318621
v 1.1706830908725248 0.4795638618941072 -0.322055862285238
v 0.1977950192673919 -0.22704209371007406 -0.608943889177745
v -1.2316054803696246 -0.2598056923768151 0.6713291963780698
v 0.6840921540355401 0.23167944587093783 -0.4828147431678411
v -0.46365829642423234 -0.04836868044004796 0.3123257752101895
v -0.34891327575631237 0.28960425909954585 -0.963846290362345
v -1.1032416397075966 -0.10442936259833598 0.6786397457873314
v -0.8958219580316611 0.18887283763909696 0.16668227904670105
v 0.9046267819550495 0.11895525338379802 -0.3600267396528983
v 0.06709235572130624 0.19028456528076293 -0.11457073815651764
v 0.4270958565922602 -0.2540290993643932 -0.6700847334269725
v -0.7179678774806977 0.10572397136392564 0.36471767715202946
v -0.6926739654215175 -0.11540980487685126 0.03967402351424617
v -0.6021601670319888 -0.30606635718060077 0.5990058031016363
v -1.284582941881503 -0.6980427659138543 0.14624715939965555
v -0.6389102000565079 0.4859826465462287 -0.01305393413981443
v -0.42808780983398326 -0.1690481335782899 -0.7374926666197787
v -0.7478524383268944 -0.20882279229999098 -0.35085845832019263
v 0.8611745512445953 0.479176015550508 -0.7046986551023512
v -1.4825025531217402 0.062184603227194865 -0.14290160476069952
v 0.9014060061930199 -0.2889412118281484 -0.8395282137155787
v 0.09547694912674339 -0.5267581282689047 -1.2296412182891094
v -0.5259189404978408 -0.4403430394086819 0.1183825644742438
v -0.720098637113669 -0.4901733473313881 0.0458461480279969
v 0.3195899586648201 0.30389731260531205 -0.9366917658932357
v 0.8329211167262409 -0.12951593318783608 -0.02945942776138888
v -0.8916995146539736 -0.10924819642570825 -0.31003334321767617
v -0.4256685625962606 -0.10983138990469174 0.21715759761234388
v -0.9603645287572703 -0.00999734197489203 -0.15211898339761804
v -1.1949524893757966 0.21758265836139545 -0.017325211322318897
v -0.5592133290922445 -0.08308167479538323 -0.95254101084423
v -1.075685740299485 -0.7016263139082771 -0.10648661100715236
v -1.4542886069033651 0.49488155414181595 -0.49433887392447273
v -1.004419224339512 -0.2639276852130447 0.8107420870522827
v -1.819544011807201 -0.06139633753256911 -0.05455293303077989
v 1.0505879792602206 0.40154685804380363 -0.5608117988591586
v -1.6708891599794715 -0.47538596979538 0.33938341478248135
v 1.0694230961099058 0.3435243356715645 -0.7743067134393645
v 0.04342405385274242 -0.47193934251670094 -1.2807772900020762
v -0.42865282106105157 -0.2892862361289933 0.30160208467336136
v 0.08202848799704901 -0.2310652732583054 0.26493687955157663
v 0.3160298653394439 -0.42830009652452133 -1.1030374827713751
v 1.1234079022644552 -0.21197222680188846 -0.6681567538899117
v 0.008624034258997817 -0.5075742396244187 -1.2634112975381249
v 0.22465737328144136 0.5177140615106469 -0.7672465320156052
v -1.1611123651144097 -0.570038892753859 0.46969277631634965
v 0.541414762111193 0.34447896956071544 -0.962853008866098
v -0.8897473088020408 -0.7605826179158004 -0.44492346574432395
v -0.7353560691358679 -0.7051186529433812 -0.5441101428878958
v 0.2874691853272498 -0.07740328767670669 -0.9046311924706438
v -0.5585313160561496 0.31479566918184737 -0.1312725855090634
v -0.0006836980663663273 0.18458203230792386 -0.5698103929555655
v -0.9536374435984217 -0.1888875034734468 0.8272096318670662
v -1.3443759802817166 0.025722250405716192 0.06806632453701929
v -0.7278593339350103 -0.5597442791517028 0.022579237140039423
v -0.997892112038542 0.3200098698045818 0.30183143279753427
v 0.6596562073473836 0.13561195472505533 -0.7228011948621541
v 0.11294970988491307 0.1504010796947032 -0.06810585412784866
v -0.27400991491915266 0.3751663163544432 -0.4676113215347369
v -1.501145736977054 0.45358279930631223 -0.4658950455715239
v -1.0564708455958978 -0.1404536312409397 0.816356047370556
v -0.42022105974241736 0.6118214510462231 -0.015551623577025823
v 0.7267870861670468 0.4369062791928492 -0.7099573560478053
v 0.13122439217524054 0.44972210757643283 -0.7209281045617674
v -1.6691887327564592 -0.020743114634868567 -0.049895511557881925
v -0.937573178405103 0.14843421206764718 0.06168728222857266
v 0.7755475384285053 0.4246541880025855 -0.23675602522584324
v -1.0554394709963606 0.12465877486968273 -0.08894267929800218
v 0.9881281445397895 -0.3457267044255914 -0.5960437859661779
v 0.7489104328911631 -0.14117461076926677 -1.0968819239692575
v 0.3817709461930193 0.44531000587405384 -0.17173152046798357
v -0.4316620749696176 -0.1081810705731494 -0.21479299400404137
v -0.04813346839266687 0.049105832345050886 -0.5723143249635827
v 0.807781894174528 0.24123989593657896 -0.1778771371022938
v 0.4168396233218963 -0.16650611274187896 -0.8705533418056426
v 0.08401104826302444 0.4462587440391814 -0.08460172952808574
v 0.5884113841956256 0.41667389962958984 -0.6208489842062407
v 0.9065284359462841 0.16657253985920367 -0.6135504772279629
v -0.6010451097559295 -0.2966295935175486 0.02396720857121617
v -0.9307573543964566 -0.63548140212472 0.09684860372566298
v -0.9326442576239667 0.30497211047528683 0.31809838044189614
v -0.4658252056478223 -0.3369306091117144 0.26398405409567216
v -0.5626639833091176 -0.3375745758827195 -0.5505973620633654
v -0.9359223596590921 -0.7447884222951527 -0.027040890477487277
v -0.4756467083177531 0.5469146050725295 -0.05178308557350801
v 0.8891869595035976 -0.2288520563793357 -0.5092852080729123
v -0.9990701771120306 -0.13210447902820466 0.8484892416639445
v -1.1205080281083184 -0.09359041971424102 0.7256131699523393
v -1.1261180073989052 -0.09860074503895593 0.4440021737703385
v 0.8805682233685406 0.018588502905725803 -0.19218207819131577
v -0.008919076636177803 0.18137745482884096 -0.8317607511587902
v -0.8613802124756995 -0.39573928590355306 -0.1799885344973756
v 0.432732420099402 0.4631450294969831 -0.7247388453045548
v -0.4674175308069969 0.43935241142262466 0.013394584670604576
v -0.6465094480079531 0.24038118581539583 -0.6514923849674239
v -1.582755964637243 -0.41802558013222735 0.2968371064516301
v -0.6487511907482812 0.10855030961213481 -0.782492025822266
v -0.7668077241752445 -0.5223723702116747 0.063104927668352
v 0.34267608763225316 0.11586219973532358 -0.4088851767876647
v 1.0615901935075713 0.5042698556028277 -0.3266119265159191
v -1.0817576610474766 0.10619727802599807 -0.10870646718296667
v -0.4463483526376461 -0.16780973988882084 -0.29756894669275574
v -0.9640544738548652 0.21076056469162469 -0.13104956722346628
v -0.38313675528106556 0.3444743161027881 -0.8371740088761077
v -0.026657626284264477 -1.5693060249517778 -1.1517606414544903
v -1.9143869280863997 -0.19530567202465005 -0.07151823958421967
v -0.2817075323074548 -0.22395743102190632 0.3438068607369464
v 0.40138030171966815 0.33804910087054046 -0.22656420686835096
v -0.556756199023481 -0.500916270091659 0.07307379032927006
v -0.006315883460071493 -0.47210417625890577 -1.2686382937841314
v -0.20449938346146287 0.5305245874141395 -0.7208068575686086
v -0.4199969056517237 -0.615091013345621 -0.8987031797315916
v -0.353322402413552 0.32263681681474093 0.10405457735554867
v 0.11588697203895373 -0.02664468908696042 0.05160141743318468
v -0.7545113551306285 -0.08760903910861957 0.06947135734562866
v 0.4993623441875842 -0.17647707401823673 -0.8558030179457268
v -0.0903374378143508 0.4450549715658604 -0.7073424397440814
v -0.6337097879681666 -0.6705579496808597 0.18732117087340458
v -1.3305783305646086 -0.011262778601381078 -0.3069900768836404
v -1.145293223571185 0.14528827797517443 0.18381068957411484
v -0.39196926924046605 0.16725232480104202 -0.8779743816790029
v -0.49627841951407803 -0.5144965561495591 0.12773749844744045
v -0.14370071870017273 0.5265882169841173 -0.37074198631760685
v -1.060386481608174 -0.8108845031304712 -0.1514539179313149
v -0.48602598356296806 0.09440380768165922 0.3885430673415558
v 0.4625420405570521 -0.02486599501433374 -0.7291421462181363
v 1.1598643812551652 0.5404205831283057 -0.39880459481418395
v -1.7823812252545503 -0.20783669895792534 -0.10054521292260243
v -0.8514700621797838 0.011021850444715521 0.09587296512641633
v -0.06925733529006094 -0.6126416432319619 0.18134439207995043
v 0.8934123484688533 0.3112265116654438 -0.6787328870841611
v 0.5816225409861303 -0.26760713491333094 -1.0257483287985092
v 0.1387072777372983 0.3595311296636232 -0.11209263144778954
v -0.002780521380276511 -0.4412327209194593 -1.274819323335641
v -0.1994809816575849 0.3133779116136034 -0.6687989063881421
v -0.7735825261222095 -0.16509013417389695 0.13688563552672545
v 1.0997055821184534 0.5012078091133305 -0.5191699408103021
v -1.0851362668761901 -0.10240161553877886 -0.5206131869740285
v -1.407001386812748 -0.5854883276936037 0.28618679201121205
v -1.854548846288998 -0.8715175149035791 -0.4515313161133732
v 0.8790793811656906 -0.7125078288522043 -0.6379097129920853
v -0.3285862156081214 -0.6737208807818159 0.2214842558050074
v -0.6382628304033673 -0.02935189978945923 -0.8630545777813442
v 1.0827382607737128 -0.22232037381996766 -0.6447544065137625
v -0.8053027584045073 -0.3593646451971447 0.32507288894141123
v -1.6574800192664312 -0.0903632364250107 -0.007689767778544231
v -0.4732544556639078 -0.21246261987744852 -0.7336397734839243
v 0.7250759417387936 -0.030136235413694513 -0.7412664909827865
v -0.39980303349290625 -0.6365988409255284 0.20375361004841802
v -0.4248681136507499 0.5465028729770198 0.029973754596568616
v 0.6879793876312614 0.36295853450310805 -0.23298309612559437
v -1.311806575224028 -0.42837992853040313 0.004666124486291178
v -0.39731076143343635 0.5974704071050007 -0.0013756113117185092
v 0.8061775187989789 0.13670077638423614 -1.1005106615630507
v -0.5153116979959671 0.08226198712316689 0.3437429037513165
v -0.5206742818481094 -0.19833884331523788 -0.26902375616952723
v -1.09353894413965 0.299694244905966 -0.01853171667269039
v 0.7651091430946435 -0.19848698425753902 -1.064966380944212
v 1.0383983134848158 0.19571064276812047 -0.9670827703562763
v -1.6919919074319407 0.000560115162580933 -0.1590896489844006
v 0.831366650846171 -0.14116918734141676 -0.015063700239992671
v 0.06889377315694913 0.29389049812067924 -0.39935364976458676
v 0.18852141207279355 0.3069244728500363 -0.8961624477437009
v -1.0668723898702908 -0.13060472956612382 0.8007573939567975
v 1.1752822358759418 0.46958328817268175 -0.3617249336248124
v -0.3317400720015547 0.1291213543301193 0.37700040525355033
v -0.28836007692348387 0.316868956797998 -0.9071377980252969
v -0.9773026526012315 0.007069825510639751 -0.1374869244594316
v 0.9837729067030122 0.19275978356748016 -0.26075894402205513
v -0.48553643132979907 0.39872288638283027 -0.05289669194694169
v -1.8491611859067247 -0.042059014365617466 -0.0386315203722455
v -1.2729379649637305 -0.421847960100068 0.4524346169300123
v 0.9400138052600748 0.10338159980941519 -0.24180162473311548
v 0.20592608883748864 0.47719816214364 -0.8201196914260946
v 0.09231822085936985 -0.6320336086016775 -1.1388415947367094
v -0.32185949596446706 -0.12010314297165287 -0.596001289743877
v -0.9838558941177279 0.05305449349639085 -0.19698081038306897
v 0.11435091971962026 -0.22571693954335031 -0.6379485962334893
v -0.6429311120859671 0.06787845879690356 0.3598377343665834
v -0.8423223722536792 -0.591856541648223 0.030147586422550283
v 0.04298480030692611 -0.2171508788561353 -0.5775913527664184
v -0.4696700119877513 -0.20684453589480775 -0.26661572593557487
v -1.2734711821512348 -0.13497042007046267 0.41547523201854514
v -0.9587763429969351 -0.6581387282629717 0.08551746161819174
v -1.0726704050890359 -0.44216768202486123 0.0348415557829815
v -1.7825053683116268 -0.16651173085110088 -0.10835503920803383
v -0.9361275987085842 -0.5133805933900372 0.5089634037960069
v 0.7784013229976405 0.4342733210077287 -0.25205378524411903
v 0.8236857921380475 -0.14081254392133455 0.0283846909727781
v 0.8807341974852865 0.1536723904004719 -1.0778433912046104
v 0.9378742471641741 0.13651745150371197 -0.2237393922991318
v -0.3508587043660369 -0.054423496959711375 -0.1376252652060034
v -0.46092422996965976 0.3156594338193997 -0.2788829989629711
v -1.2156387552903711 -0.5369959211815032 0.29172621656824343
v -0.7970721567801972 -0.17397891913415586 0.2658360606868249
v 0.004935922013893552 -0.024890211178604515 -0.7778328572858982
v -0.3255864304763273 -0.1453975131000738 0.4751876988239869
v 0.8868523961745103 -0.05196797866244979 -1.0937649937293703
v 0.8654931688081874 -1.3902390540709075 -0.11163054778651754
v 0.847277429123242 -0.1212278808872839 -0.02532648201614545
v 0.8248125156718668 -0.06066322482268511 -1.1577901377607684
v -0.7977427262864413 -0.47846084408425327 0.1577204215297037
v -0.3130232672800432 0.31379424418719093 0.1353237545301986
v -1.377087804539808 -0.06635721214565433 0.15371894460462734
v 1.1096302286445374 0.44682083631291125 -0.35579196649628736
v -1.388625484643409 -0.2899190023124825 0.32280283960729855
v 0.6410089121956646 0.37958522301915937 -0.9047278038757528
v 0.790200405811435 -0.17668097225597076 0.03264619058020252
v 0.04493906593585091 0.44444161791276887 -0.8786163961564697
v -1.2625596914394102 -0.36299693591702437 0.13704949884316034
v -0.9894964749885184 0.0033936045083356103 0.2888019631200944
v 0.38021853077244305 0.20528746651379418 -0.33035669182505895
v -0.5756130927341369 0.5323161330180105 -0.4680246520833635
v 0.9300374487878731 -0.5258086263540316 -0.6403743369222692
v -0.5961131636192739 -0.01370386603733349 -0.7969716012236875
v -0.9271815395828646 0.29055072144941746 0.24508385692703555
v 0.11187366698753945 -0.6904398609131468 -0.9433085660094312
v -0.8600099354794493 -0.27436998890278774 0.14775594589837074
v -0.53906402111572 -0.26613885919288044 0.5222667561291218
v -1.1809558778598623 -0.48212457832403605 0.18075862654224978
v -0.8570113945329594 -0.13652707731517882 -0.5523494939840469
v -0.890807877834205 -0.08764029240952823 -0.30156627406221037
v -0.5699289235225398 -0.024115572073765183 0.41488421132322045
v -0.9454978181118208 -0.1115845254638645 -0.3071148761307253
v -0.8118611651884526 -0.42446822117318206 0.6269776365511099
v 0.000617415661753419 -0.6491927933959415 -0.18704872803418748
v -0.2670906413160058 0.0500222110508212 -0.15672514336551097
v -0.6515037921308461 0.3875284575222627 -0.12032418972547247
v 1.0327406030972415 0.2673225443381517 -0.7497249864653658
v 0.3230357641180686 0.4669984838294532 -0.18338640335612605
v 0.1981882572649056 -0.4665591915171142 -0.601437275914591
v -0.8183927194390158 -0.21749614086005645 -0.39460618600207625
v 0.06235517152948062 -0.36379127473044925 0.2528506119868824
v -0.5805356325391917 -0.15069239657075179 -0.26180327473247184
v -0.9770110683241233 -0.678291901744747 0.4291550480588032
v 0.929705537128373 0.16108320818057567 -0.2359342243799145
v -1.2156352472660414 -0.14533698707729914 0.6433749676161006
v -0.6323374611154666 0.19413164149441056 -0.7352743042526704
v 1.0198068275513603 0.45447329576155737 -0.5882812076162677
v -0.652845189577969 -0.3869496791237729 -0.733426396201102
v 0.36730195528782156 -0.0878693204711046 -0.7649353102406725
v -0.06179032623880518 0.24309718112513723 -0.2109698426583083
v -0.9111638262303713 -0.5989855400225249 0.1973363157818251
v -1.0624787578198722 -0.07903977962098696 -0.3767169568751874
v -0.6347475308519995 -0.27858625875183124 0.35441892941314634
v -1.1422888303822412 -0.14336850060076423 0.7970374625497293
v -1.0001420259854914 -0.6223969522079642 0.5005242076767686
v 1.0806332148851858 0.5699603391400508 -0.4744279027361111
v 0.9604170365375824 -0.37507025914526265 -0.5107854568788723
v -1.0419075329402359 0.3553736666069339 0.2747942101305374
v 0.08431086380129678 0.33387269205034875 -0.4830819244495789
v -1.4517931056385982 -0.49552094573696515 0.32291629654344106
v -0.07830385586872483 -0.625067412654017 -0.7598674136925426
v -1.3913469313970852 -0.3218805387758642 0.1104954820387988
v -0.1734255682873341 -0.25383073717082305 0.2543468585183482
v -0.8207092548571415 -0.3920728000463104 -0.24314193620124075
v 0.6960625569938289 0.44065792447641894 -0.7347082901431747
v -1.1354461703597678 -0.6416721395052236 0.5324744190557791
v 0.9462432866135005 0.460250849172833 -0.2953740533196403
v -0.756973925851432 -0.11248948199909432 0.11532640913124431
v 0.9643395366117959 0.004923651345414847 -0.6322693634952044
v -0.5317473269633494 0.05636450276733613 -0.12387710539772968
v -0.8182119983677094 -0.23809603256234374 -0.053875805018484615
v 0.12735379063420418 -0.7350418974353877 -0.6063958712737529
v 0.007176163655299217 -0.1264277688317364 0.14094619085638335
v -0.6962787403154445 0.056137254804188554 0.3175829218896384
v -0.5513719785888229 -0.21733346873229112 0.3850787410370828
v -0.04398762501890572 -0.04725386065170212 -0.6951086923684322
v -0.6897276103078362 0.09600461095209488 -0.7551029630110345
v -0.5353479566657687 0.12321430659042648 -0.5686038522187647
v -0.1163252447366235 0.21720754511268833 -0.3681605123083263
v -0.6677714182053778 -0.23308655405393458 -0.6539569144375798
v 0.7041634183786211 -0.22191041714261647 -0.6356150735523248
v -1.0170549056936424 -0.4870563299794518 0.6829665148280355
v 0.3044504546732038 0.2835948797240137 -0.27729081789742255
v 0.2661992001494741 0.4429941102571644 -0.22758357322546932
v -0.5885592965143136 -0.2437774463735518 -0.43016359704027496
v -0.5501177240834181 -0.183426089510547 0.6143838273950845
v -1.147197485455583 -0.6075733400715143 0.5257601315197116
v -1.2990348542867989 -0.48850331975622574 0.41380402235526964
v -0.06289190725241103 0.10567644467338429 -0.6560090605247381
v -1.1144017503277255 -0.4092676620193314 0.23537294214965407
v -1.121503915613656 -0.2745283151731937 0.09260235614213017
v 0.5120947674048494 -0.37236043296109167 -1.1407849882348775
v -1.2556008224600759 0.06542331884626804 -0.0854167624314708
v 0.5240035388417809 0.21242234511944388 -0.45716995658894033
v 0.11648468774345677 -0.695904042076449 -0.7445383223614347
v 0.8399477193137733 -0.12721485320777282 -0.2541439856530763
v 0.33019879142656067 -0.02251974560869986 -0.7638924987099223
v -0.48357166483353897 -0.25269135207804494 0.26491832766776624
v -0.3995432196961291 -0.07782701663290345 0.5121677788384917
v -0.5771633016218477 -0.4407033145614329 0.0003408958814999697
v -0.7654426996197515 -0.1557531667437109 0.18882454902945212
v -1.4333725856602184 -0.5302777755246598 0.33223039548648536
v 0.2906047113285436 0.43366662146925106 -0.8127349514831048
v -0.9072972404148169 -0.09433545916064603 -0.6210221644619679
v -0.8673688018903486 0.2786628965506753 0.07422185390757809
v -1.441382532384371 0.4157262207216786 -0.40343822030987225
v -0.8908116225745709 -0.5999141664934929 0.5180555694003711
v 0.3600665972175218 -0.23169476109430073 -0.6416068848948098
v 0.566502072473977 -0.13529066127538736 -0.6157699703726223
v 0.5797444714872185 0.41710824354734805 -0.6593875015603321
v 0.7832390514054322 -0.09012271404466703 -0.6715887246427736
v -1.1147201455340845 -0.5207995367920766 -0.06190422551820137
v 0.5309459622706552 -0.24495302818609255 -0.6284964927257034
v -0.43296791217594244 0.480744240122404 -0.6409133145086081
v 1.0566519597960689 0.5141620642337263 -0.5393978636125323
v -1.3977257809703505 -0.3375913701970129 0.42038360032862976
v -0.7162877754657196 0.23040782086780065 -0.013951186113240132
v 0.10000605573857387 -0.6420272583043855 -1.2205485582153928
v -0.9069171838837808 -0.2533853311515964 0.8005722860877083
v -0.703045532752641 -0.3523396167059917 0.4624186555924236
v -0.5857571347617063 0.46552979013846 -0.3852059087219393
v -0.07826082128542958 0.4822674120808243 -0.20792398029995185
v 0.1166796496888924 -0.5212991058287183 -0.6330935593692142
v -0.9993373468534343 0.1820210072890676 0.5020613418681276
v -0.7674401399030673 -0.5779151125024857 -0.369478840006586
v 0.05023150322060292 -0.5733724132694217 -0.6823206185005335
v 0.2396518967169132 0.10546441571659854 -0.1413653338984393
v -0.6548413287759922 -0.6289831825433632 0.0742032015804652
v -0.5154370387946453 0.385743421202163 -0.016246451997118015
v -1.9677698894077325 -0.06628247150471428 -0.05502861373485395
v 0.35371743406624484 -0.3115536499873598 -1.008932055146375
v -1.5200405955517367 -0.4956576156662588 0.24636019900144712
v -1.2981401948426243 -0.10272594698982686 0.09505047336162291
v -0.32343583811402105 -0.6174847464768862 0.23070913698352188
v 0.21994953841423942 -0.10540296570661567 -0.7618593426199258
v -1.1195247056496227 -0.6647129565560581 0.38559186276702123
v 0.9328359338967014 0.017432250101668774 -0.26187428815930525
v 1.0127003590193528 -0.09128664619878948 -0.6538385185622649
v -0.9886135751529526 0.18871876559802853 -0.10416409098211897
v -1.3512755973041657 -0.5578305504028364 0.2943861282037425
v -0.5869403765125668 -0.2643316971807593 0.4833947398703917
v -0.6394400658969367 -0.6812855830705254 -0.7488180559967674
v -0.8059559515536885 -0.2982006834869173 0.24300771787412143
v 0.3019340718022404 0.3718375586197406 -0.1985555440861749
v 0.8201357171188175 -0.15357413376034543 -0.9441094678909706
v -1.2631550620622107 -0.6121343250589276 0.4097161283073486
v -0.3872974564351406 0.22049631759649738 -0.98279437754895
v 1.0150670639652197 0.2554506896375988 -0.4070677591398697
v -0.8341269813056164 -0.3993469040567458 0.2973185319556556
v 1.0514846279192092 0.222932785632103 -0.9620600896925023
v -0.2874260673691284 -0.16709833732787618 -0.7019821251510089
v -0.9089764806647398 -0.4239206765174613 0.07733906488686648
v -0.4532142372248376 0.18125857314035135 0.21016408463007574
v 0.1053871294397023 -0.38512157842950934 -0.6405279300281453
v -0.41256459461582573 -0.6222156965650628 0.2051003083105256
v -0.6739389678269971 0.38780041427190204 -0.049626683679045214
v -1.1661226269368292 -0.11825083186447191 0.43635578149802373
v -0.7731855607268583 -0.4384821247106789 0.4320978187788084
v -0.7549440584692219 0.31598362921183926 -0.02665859884845292
v -0.6895442141629206 -0.6851082977241679 0.36954749527817127
v -0.4187102086663222 -0.06129344409968951 0.5220140357023677
v -1.1747397906352541 -0.4669628407488806 0.00417116146612629
v 0.1401281587086123 -0.6808060253380459 -0.6709337743400283
v 1.0456825036763089 -0.14478126046733245 -0.7102176945044744
v -0.6323292979944537 -0.28063482969662457 0.3949790811250758
v -1.2015647611420426 0.1596275305903455 -0.12109446394569039
v -1.3135045597766795 -0.23025196989618904 0.04013048224482735
v -0.24236853671791384 0.5007532498289727 -0.4143875030283973
v -0.6429289731391664 -0.44558789057123105 0.5265382305686591
v 0.40307620973847336 -0.049029875220971325 -0.6862428892914795
v 0.9920167094683782 -0.19727052032866155 -0.6567397272351806
v -0.47895316812962846 0.22892337538770255 -0.9191925216474497
v -0.9527306475546364 -0.36657610862446166 0.2523083970242621
v -0.5640406607992966 0.1235659403637171 -0.7361570908384022
v -0.536067236906663 0.5409239867828384 0.0445054754815229
v -1.3626634114085556 -0.5662676578816898 0.3178648015582529
v -0.37377805509760065 -0.049033945706740675 -0.007322172717723023
v -1.3613492110896668 0.5516425536635817 -0.4636792622514289
v 0.6239873264793494 0.4811409462745203 -0.6373260859020543
v 0.8955238998156752 -0.2126488757796954 -0.397547277013156
v -1.6105804027468482 -0.3017447663026496 0.016234717874417933
v 0.0655651939068163 0.4403258006578815 -0.26743678389469927
v 0.7494705495562327 -0.20031968245548315 -0.5727582869718512
v -0.6710256639848788 -0.3452251044559965 0.024931399895274486
v -0.5107686746430566 0.21588505846717157 -0.8420160717280835
v -0.6208766441443817 0.07788384595991561 -0.12315952816037332
v -0.7905770208947102 -0.06044335663024242 -0.002058918764571368
v -0.6443978020315458 -0.6032188916970925 0.3936171699718006
v -1.1950996939992304 -0.3252031903371563 0.2369170740805022
v -0.021814937035995595 -0.5934305197334638 0.17711131454539725
v -0.6451895353872535 -0.6128117617700038 -0.7301746256755371
v -0.6962877645831382 -0.018316527537087016 0.20363823764508132
v -0.8574672072604284 -0.7824031554181601 -0.46526022761723923
v 0.1397564862474914 -0.49480491518938663 -1.2157481342348215
v -1.0644597751148286 -0.6138424644684015 -0.015032162401148836
v -0.635012399183978 -0.28798967835949757 0.3701767654466929
v -1.0602961118381595 -0.1180823371425633 -0.5524540969978794
v 0.11123150359698468 -0.6611243878609436 -0.5425415323229726
v -0.6721195870060214 -0.7109379290076585 0.08863693113852193
v 0.5062407037595835 0.35378488436268274 -0.8420054442098078
v -1.1311062278284785 -0.08012757565960561 -0.21459670055692895
v 0.2615384896177214 0.4548154428019942 -0.9063341063040248
v -1.4027713003985904 0.5017787926414984 -0.442548150376129
v 1.0046172447463213 -0.07740175635628584 -0.6567814422650541
v 0.8594094336050542 0.08709249982989299 -0.6881494010032747
v -0.23955925158381955 0.38518753652471105 0.06459325116859188
v 0.1485036010221426 -0.03435689470695587 0.05521808416238014
v -0.7267397867084937 -0.16553731868292124 0.03639189286198361
v -0.11238238673097388 -0.6162064653983373 -1.1172163512252078
v -0.5421572447225532 0.3241854649295377 -0.4593119876648147
v -0.8785354791391891 -0.1024727581564417 -0.3958929855848635
v -0.8656389783199657 -0.4305187726570417 0.41725159663426753
v 0.8874070476738675 0.5459537518371917 -0.5690843454398962
v 0.7538993830103141 0.32512599010955584 -0.20014936918793044
v -0.23637684990026692 0.5721924412424292 -0.6681123337605401
t 0 638 629 700
t 0 330 348 629
t 0 348 629 700
t 3 18 577 779
t 3 82 572 60
t 3 82 746 60
t 4 89 289 307
t 5 680 721 146
t 5 764 146 478
t 5 478 565 482
t 6 92 266 9
t 6 634 156 144
t 8 122 151 232
t 10 521 164 560
t 10 458 771 193
t 12 459 98 161
t 12 580 211 161
t 12 223 282 651
t 13 645 70 679
t 14 308 790 320
t 15 75 525 402
t 15 75 450 204
t 16 180 585 54
t 17 739 541 89
t 17 89 4 647
t 18 3 736 779
t 18 352 736 484
t 18 82 736 572
t 19 211 59 259
t 19 59 259 628
t 19 561 628 565
t 20 660 588 133
t 20 660 719 133
t 20 465 588 673
t 20 465 588 91
t 20 588 91 719
t 21 684 501 416
t 21 684 768 447
t 21 684 274 447
t 21 684 274 90
t 22 60 576 82
t 22 60 169 319
t 22 169 319 635
t 22 169 3 82
t 23 699 529 411
t 23 699 428 411
t 23 529 334 640
t 24 54 705 250
t 24 54 102 451
t 25 643 554 364
t 25 554 444 293
t 25 444 73 284
t 25 73 465 364
t 26 585 77 443
t 26 255 770 373
t 26 255 770 16
t 26 443 654 391
t 27 367 755 112
t 28 600 390 365
t 29 713 180 620
t 29 713 443 562
t 29 713 486 562
t 29 180 230 620
t 29 180 486 620
t 29 486 562 620
t 30 329 379 574
t 30 329 669 626
t 30 379 548 684
t 30 669 626 326
t 30 548 494 326
t 31 551 734 371
t 31 430 734 278
t 32 49 588 442
t 33 247 530 268
t 33 174 530 511
t 35 209 778 567
t 35 414 304 434
t 36 42 61 248
t 37 406 670 122
t 37 703 270 445
t 37 670 270 445
t 38 73 527 388
t 39 488 716 349
t 39 488 349 538
t 39 716 765 267
t 41 278 748 206
t 41 722 93 367
t 41 748 653 127
t 42 157 546 36
t 42 61 163 118
t 42 61 163 582
t 42 61 118 248
t 42 163 248 582
t 42 546 590 248
t 43 794 24 141
t 43 54 391 451
t 44 529 557 259
t 44 226 519 699
t 44 519 492 259
t 45 791 657 711
t 45 791 135 144
t 45 283 321 506
t 46 56 76 442
t 46 56 508 244
t 46 467 508 244
t 47 655 309 419
t 47 768 792 405
t 47 768 256 193
t 47 792 256 309
t 47 792 193 309
t 47 792 771 471
t 47 193 309 405
t 48 169 490 510
t 49 2 244 467
t 50 694 784 263
t 50 694 455 263
t 50 111 784 353
t 50 111 469 263
t 50 455 231 181
t 50 231 181 353
t 51 144 156 491
t 51 144 92 402
t 51 711 339 179
t 51 339 92 604
t 51 156 179 491
t 52 69 535 72
t 52 69 489 254
t 52 535 607 661
t 52 489 268 661
t 52 254 147 661
t 53 448 608 473
t 53 448 512 385
t 53 205 608 400
t 53 205 512 689
t 53 205 385 458
t 53 205 385 689
t 53 512 385 458
t 54 794 451 102
t 54 24 391 387
t 54 24 451 38
t 54 451 102 387
t 54 102 705 38
t 55 583 561 401
t 55 561 732 172
t 55 146 565 172
t 57 493 190 750
t 57 164 677 717
t 57 164 750 125
t 57 677 190 750
t 58 357 575 316
t 58 575 212 316
t 58 575 316 481
t 59 116 565 583
t 59 565 583 146
t 60 22 319 18
t 60 779 240 746
t 60 240 352 319
t 61 76 593 105
t 62 167 523 111
t 62 127 523 93
t 62 127 231 449
t 64 139 675 260
t 64 675 577 785
t 65 420 119 314
t 65 420 432 682
t 65 71 761 66
t 65 71 213 66
t 65 432 682 66
t 66 761 65 657
t 66 584 65 619
t 67 550 36 105
t 67 550 105 729
t 67 550 729 413
t 67 593 324 729
t 68 676 550 324
t 68 550 729 413
t 68 462 324 413
t 68 524 413 105
t 70 710 645 679
t 70 13 297 609
t 71 682 89 213
t 71 682 397 647
t 71 89 647 213
t 72 769 69 496
t 73 293 25 115
t 75 15 188 14
t 75 15 790 14
t 75 15 308 204
t 76 248 118 157
t 76 118 163 462
t 76 299 61 157
t 76 299 462 46
t 76 163 46 324
t 77 26 619 464
t 78 87 86 568
t 78 87 86 20
t 79 344 732 597
t 79 344 597 55
t 80 312 523 172
t 82 3 240 60
t 83 271 689 294
t 83 271 689 743
t 84 544 646 602
t 84 544 746 139
t 84 696 139 751
t 84 240 276 751
t 85 534 739 522
t 85 739 322 718
t 85 739 322 618
t 85 541 718 306
t 86 104 78 337
t 86 78 254 337
t 87 86 104 254
t 87 86 254 568
t 87 363 607 568
t 87 104 607 254
t 87 254 337 568
t 88 39 267 220
t 88 125 765 646
t 89 682 4 289
t 89 682 71 17
t 89 97 289 17
t 90 447 142 332
t 90 783 142 572
t 90 783 142 99
t 91 251 573 660
t 91 394 20 570
t 91 570 692 660
t 92 273 402 663
t 92 9 554 663
t 93 278 621 551
t 94 456 236 293
t 94 643 293 364
t 95 663 128 465
t 95 128 387 444
t 96 247 530 613
t 96 688 268 795
t 97 89 289 718
t 97 89 739 432
t 98 459 223 543
t 98 282 798 361
t 98 282 651 543
t 98 651 543 361
t 99 783 34 712
t 100 200 162 509
t 100 200 162 601
t 100 200 799 509
t 100 162 503 509
t 100 799 503 103
t 101 775 149 632
t 101 292 726 632
t 102 131 705 620
t 103 566 456 601
t 105 324 729 590
t 105 324 590 61
t 105 118 729 540
t 105 118 590 593
t 105 729 61 67
t 107 681 518 342
t 107 633 199 442
t 107 518 342 449
t 107 199 540 449
t 109 637 749 224
t 110 796 757 773
t 111 225 50 469
t 111 449 694 353
t 111 449 382 523
t 112 113 114 27
t 112 129 478 641
t 112 536 478 755
t 113 461 755 381
t 114 755 461 112
t 114 755 536 367
t 114 461 748 112
t 114 461 367 112
t 114 461 112 265
t 115 388 364 73
t 115 388 73 293
t 115 364 73 293
t 117 674 586 724
t 117 82 602 724
t 118 76 61 163
t 119 420 65 373
t 119 761 196 373
t 119 761 264 155
t 120 7 69 72
t 120 203 254 72
t 121 325 669 145
t 121 648 30 329
t 121 648 145 21
t 121 709 669 329
t 122 8 611 406
t 123 466 798 170
t 123 116 581 553
t 124 214 148 744
t 124 148 377 510
t 125 220 751 346
t 126 727 537 587
t 126 537 594 307
t 127 62 449 93
t 127 93 312 310
t 128 451 663 73
t 128 451 663 364
t 128 451 387 73
t 129 478 461 5
t 129 478 5 262
t 129 159 461 5
t 130 333 481 598
t 131 102 43 24
t 132 228 186 762
t 132 425 186 762
t 133 251 91 660
t 133 251 91 570
t 133 738 281 719
t 133 20 573 281
t 134 639 185 48
t 134 742 635 48
t 134 796 635 579
t 135 711 657 450
t 136 670 611 406
t 136 202 611 659
t 137 220 267 201
t 137 220 201 422
t 137 446 158 538
t 138 294 658 517
t 138 331 547 737
t 138 196 737 517
t 139 751 64 646
t 139 717 158 675
t 140 637 311 587
t 140 659 615 749
t 140 615 122 725
t 141 758 38 662
t 141 387 391 43
t 141 391 54 662
t 142 514 712 684
t 142 712 684 501
t 142 21 684 501
t 142 684 90 501
t 143 340 520 498
t 144 711 135 450
t 144 135 450 506
t 144 135 402 791
t 144 135 6 506
t 145 90 709 572
t 145 332 447 572
t 145 447 572 142
t 146 482 583 565
t 146 5 561 721
t 147 758 630 141
t 147 769 607 661
t 147 769 72 141
t 147 52 607 487
t 148 510 34 772
t 148 744 99 124
t 148 124 739 772
t 149 292 358 504
t 149 775 358 726
t 149 726 504 245
t 150 63 507 421
t 150 771 421 10
t 150 614 421 569
t 151 480 556 445
t 151 556 8 445
t 152 277 516 319
t 152 277 60 332
t 153 616 614 421
t 153 569 785 421
t 154 476 145 148
t 154 476 332 148
t 154 377 783 90
t 154 783 34 90
t 155 737 264 196
t 155 230 486 347
t 155 335 187 196
t 157 546 42 61
t 158 58 220 512
t 159 5 129 378
t 159 680 721 129
t 163 61 299 593
t 164 493 190 521
t 164 493 521 421
t 165 101 793 245
t 166 272 384 755
t 166 435 748 536
t 167 789 111 105
t 168 244 697 692
t 169 576 22 572
t 169 332 783 712
t 171 151 556 330
t 171 330 638 399
t 172 223 55 382
t 172 223 55 628
t 172 361 282 55
t 172 282 80 628
t 173 492 651 23
t 173 651 580 282
t 173 651 23 282
t 175 540 767 262
t 176 477 261 759
t 178 177 599 157
t 179 667 643 554
t 179 286 491 156
t 179 554 156 500
t 180 443 29 713
t 180 713 486 230
t 181 469 678 227
t 181 469 694 353
t 181 694 396 353
t 182 440 777 709
t 182 726 441 775
t 183 407 716 279
t 184 383 799 359
t 184 605 752 503
t 187 486 335 713
t 188 308 336 595
t 188 75 14 313
t 188 790 558 313
t 189 426 208 453
t 189 426 270 666
t 189 445 270 703
t 190 10 521 193
t 191 273 634 128
t 191 273 95 73
t 191 663 92 38
t 191 634 73 92
t 191 128 95 6
t 191 95 266 73
t 192 195 502 32
t 192 526 436 7
t 193 652 507 309
t 193 771 507 47
t 194 617 753 691
t 194 280 185 208
t 194 280 350 208
t 195 526 431 414
t 195 221 778 290
t 196 547 331 119
t 197 445 189 270
t 197 189 270 171
t 198 703 426 232
t 199 467 681 107
t 199 508 107 342
t 200 100 515 295
t 200 162 566 103
t 200 799 509 295
t 201 700 598 158
t 201 598 137 575
t 201 629 58 130
t 202 683 558 547
t 202 745 558 615
t 203 235 241 588
t 203 235 120 559
t 204 389 286 258
t 204 389 286 156
t 204 389 402 525
t 204 286 258 156
t 205 53 608 549
t 205 642 368 512
t 205 368 422 549
t 206 435 302 114
t 206 302 755 272
t 207 81 229 716
t 208 426 666 703
t 208 270 445 617
t 210 740 249 29
t 210 323 249 620
t 210 323 743 689
t 210 323 743 29
t 210 743 620 29
t 210 689 713 29
t 211 651 223 259
t 212 481 333 575
t 212 512 603 190
t 212 357 333 316
t 213 347 246 420
t 213 347 737 595
t 213 397 737 71
t 214 124 627 194
t 214 691 744 627
t 214 691 744 194
t 214 691 148 772
t 216 690 425 174
t 216 218 552 174
t 218 452 425 186
t 219 488 429 716
t 220 267 137 717
t 220 267 158 446
t 220 267 596 751
t 220 158 125 751
t 221 502 192 7
t 222 606 380 533
t 223 172 282 459
t 224 742 796 350
t 225 50 111 784
t 225 50 784 449
t 225 50 455 231
t 225 50 455 449
t 225 455 231 449
t 226 492 651 23
t 226 651 597 44
t 227 667 354 179
t 227 668 766 237
t 228 370 257 132
t 228 787 425 690
t 229 183 531 407
t 230 29 264 294
t 231 784 225 62
t 231 178 439 50
t 232 151 399 8
t 232 480 171 399
t 233 730 724 686
t 234 158 773 598
t 234 717 773 598
t 235 527 513 660
t 236 284 298 566
t 238 274 624 410
t 238 274 655 410
t 238 624 616 410
t 239 10 150 458
t 239 10 460 723
t 239 150 421 493
t 239 460 458 421
t 239 288 421 723
t 241 235 242 601
t 243 502 526 195
t 244 2 49 442
t 245 101 475 281
t 245 775 504 104
t 245 775 475 104
t 245 645 504 292
t 246 213 499 317
t 246 499 71 317
t 246 397 347 71
t 246 397 317 420
t 248 118 76 462
t 249 705 131 740
t 249 705 408 743
t 249 323 131 743
t 250 706 258 389
t 250 451 359 388
t 250 515 16 258
t 250 359 258 389
t 251 133 394 692
t 251 738 573 20
t 252 337 613 96
t 252 337 325 410
t 252 613 632 410
t 254 607 69 86
t 254 607 69 386
t 254 607 69 363
t 254 69 386 104
t 254 69 87 104
t 254 287 52 104
t 254 52 104 363
t 255 619 373 761
t 255 26 584 266
t 255 26 266 273
t 256 768 47 416
t 256 471 314 792
t 257 425 186 269
t 257 425 762 787
t 258 766 374 389
t 258 766 374 706
t 258 374 706 336
t 258 204 389 515
t 258 389 706 336
t 258 706 515 286
t 259 393 597 344
t 259 393 79 211
t 259 393 19 226
t 260 64 18 648
t 260 696 352 648
t 260 352 3 648
t 261 759 477 320
t 261 320 408 486
t 262 680 478 693
t 263 566 687 485
t 263 485 599 50
t 264 196 776 658
t 264 654 155 701
t 265 413 381 114
t 265 413 381 342
t 265 755 665 175
t 265 755 665 342
t 266 9 273 619
t 267 158 125 646
t 267 751 234 137
t 267 139 717 646
t 268 688 489 613
t 268 613 287 535
t 268 613 52 535
t 268 613 636 781
t 270 445 426 208
t 270 189 208 375
t 270 197 479 703
t 271 608 689 294
t 271 689 743 385
t 272 166 536 302
t 272 748 722 114
t 273 191 92 128
t 273 663 95 619
t 273 634 6 619
t 273 95 92 128
t 274 490 47 572
t 275 724 686 700
t 276 746 544 82
t 277 424 152 319
t 277 424 779 332
t 278 41 93 206
t 278 41 206 384
t 278 41 748 127
t 278 384 105 127
t 278 590 748 105
t 279 760 531 612
t 279 724 730 275
t 279 233 730 586
t 279 233 275 586
t 280 753 350 109
t 280 109 185 725
t 280 185 772 611
t 280 185 611 406
t 281 297 13 251
t 281 133 735 78
t 282 651 172 597
t 282 651 492 597
t 282 226 211 459
t 283 321 45 625
t 283 321 45 506
t 283 365 45 647
t 283 365 376 625
t 283 365 647 433
t 283 376 791 625
t 283 506 647 433
t 284 25 298 456
t 285 527 236 364
t 285 115 673 364
t 285 509 673 73
t 285 509 73 241
t 286 354 766 554
t 286 354 204 554
t 286 354 364 227
t 286 766 179 643
t 286 766 258 364
t 287 254 535 86
t 289 4 17 89
t 289 415 17 142
t 289 415 89 97
t 290 304 209 702
t 290 414 209 436
t 291 89 97 109
t 292 775 632 386
t 292 165 504 632
t 293 364 73 128
t 293 364 286 388
t 293 73 554 388
t 293 73 643 388
t 294 196 737 230
t 295 359 752 477
t 297 707 710 623
t 297 738 645 70
t 297 70 623 251
t 298 417 566 236
t 298 555 566 263
t 300 464 548 66
t 300 494 584 379
t 300 574 761 66
t 300 326 379 66
t 301 599 362 649
t 301 599 231 649
t 301 108 177 371
t 302 435 748 755
t 303 732 80 310
t 303 312 428 382
t 303 312 470 310
t 304 290 414 793
t 305 658 140 392
t 306 74 684 90
t 306 74 739 415
t 306 322 514 99
t 306 514 142 739
t 307 682 4 126
t 307 682 4 637
t 307 682 749 637
t 307 682 311 126
t 307 126 637 309
t 308 14 595 335
t 308 75 505 790
t 308 75 335 320
t 309 610 528 126
t 310 653 401 127
t 310 789 312 80
t 311 685 587 507
t 311 776 405 309
t 312 470 523 127
t 312 80 653 127
t 312 382 303 523
t 312 382 653 127
t 313 75 525 347
t 314 768 415 405
t 314 768 415 307
t 314 768 47 307
t 314 415 47 307
t 315 1 253 130
t 315 253 564 357
t 316 158 234 446
t 316 267 234 596
t 317 499 136 611
t 317 136 589 745
t 317 136 432 611
t 318 368 473 708
t 318 708 448 608
t 319 576 472 352
t 319 576 60 779
t 319 576 476 352
t 319 472 22 779
t 319 472 169 352
t 319 169 476 779
t 320 261 187 335
t 320 486 790 713
t 321 657 45 433
t 321 365 376 647
t 321 376 45 506
t 322 514 289 541
t 322 99 289 541
t 323 743 689 723
t 323 740 689 701
t 323 701 288 495
t 323 620 288 495
t 324 118 248 593
t 324 105 248 67
t 324 248 462 593
t 325 475 410 648
t 325 475 337 252
t 325 121 329 252
t 325 30 329 648
t 326 574 329 379
t 326 494 30 568
t 326 329 300 568
t 326 300 464 669
t 327 769 72 242
t 329 30 548 325
t 330 638 375 151
t 330 638 556 629
t 330 453 171 629
t 330 375 480 556
t 331 196 658 230
t 332 319 169 22
t 332 472 576 22
t 333 481 110 575
t 334 469 797 694
t 334 469 797 181
t 334 763 173 455
t 334 763 649 694
t 335 187 505 486
t 335 155 486 713
t 335 505 737 713
t 336 374 790 468
t 336 14 468 15
t 337 252 624 87
t 337 252 662 669
t 337 613 325 87
t 337 410 86 669
t 338 692 403 394
t 339 156 791 144
t 341 626 77 63
t 341 373 410 26
t 342 175 107 693
t 343 728 667 339
t 343 667 339 543
t 344 79 557 732
t 344 557 259 732
t 344 259 44 19
t 344 393 597 19
t 344 597 561 44
t 345 229 531 152
t 346 677 422 493
t 346 750 460 412
t 346 422 493 549
t 348 638 375 189
t 349 275 716 724
t 351 207 498 520
t 351 207 520 578
t 351 340 143 520
t 352 82 60 240
t 353 449 111 396
t 354 286 554 364
t 354 286 179 227
t 354 293 554 227
t 354 554 73 94
t 354 73 94 227
t 355 299 76 417
t 356 573 338 135
t 357 333 130 741
t 357 481 58 575
t 357 58 629 315
t 358 775 149 777
t 361 172 282 55
t 361 172 282 19
t 361 170 282 59
t 361 282 55 59
t 362 439 231 163
t 362 784 62 163
t 362 599 62 546
t 363 78 660 735
t 364 388 236 128
t 364 293 38 128
t 364 73 115 451
t 366 678 491 693
t 367 265 755 478
t 368 642 318 448
t 368 205 318 53
t 368 473 318 83
t 369 479 232 198
t 369 232 171 198
t 371 582 551 93
t 372 94 456 643
t 373 77 626 314
t 373 77 464 761
t 373 77 341 654
t 373 626 464 654
t 373 464 761 654
t 374 389 766 706
t 374 204 468 75
t 374 766 706 75
t 375 197 330 556
t 375 197 330 445
t 375 197 171 189
t 375 330 556 445
t 375 330 445 189
t 376 499 215 657
t 377 99 510 541
t 377 124 739 744
t 379 548 329 326
t 379 30 300 574
t 380 606 461 413
t 380 129 112 265
t 381 27 114 265
t 381 413 302 206
t 381 265 302 206
t 382 312 470 310
t 382 470 111 310
t 383 698 705 487
t 386 254 539 632
t 386 254 632 69
t 386 86 104 87
t 386 664 87 607
t 387 38 141 95
t 387 451 527 95
t 387 527 141 54
t 388 115 293 387
t 388 509 293 38
t 388 293 387 73
t 389 204 634 790
t 389 187 16 250
t 390 581 418 116
t 390 680 5 600
t 390 680 378 553
t 390 5 378 553
t 391 43 585 26
t 391 794 54 662
t 391 141 26 24
t 392 385 587 140
t 392 385 481 658
t 392 212 658 140
t 393 259 44 529
t 393 597 557 492
t 394 91 251 356
t 396 678 328 181
t 396 678 161 366
t 397 213 317 347
t 397 547 196 615
t 398 559 496 72
t 399 481 198 232
t 400 458 521 743
t 400 689 10 190
t 400 608 521 385
t 400 10 385 603
t 401 146 396 55
t 402 156 266 144
t 402 266 204 15
t 403 697 168 199
t 403 697 623 199
t 403 697 338 665
t 403 697 693 508
t 403 199 692 244
t 403 199 665 244
t 404 571 138 385
t 404 305 385 615
t 405 792 771 655
t 405 792 311 655
t 406 122 670 350
t 406 670 136 37
t 407 183 724 531
t 407 183 760 531
t 407 152 60 22
t 408 210 261 271
t 408 210 249 176
t 408 210 323 740
t 408 210 323 368
t 408 176 323 740
t 408 759 368 271
t 408 323 271 477
t 410 624 795 614
t 410 419 325 614
t 410 341 795 613
t 410 795 613 626
t 410 337 613 238
t 411 108 455 371
t 411 108 23 599
t 412 538 677 267
t 412 220 346 446
t 413 265 461 755
t 413 381 729 114
t 413 381 461 755
t 413 27 665 755
t 414 290 502 793
t 414 209 436 304
t 414 436 304 793
t 414 436 778 793
t 414 436 778 567
t 414 195 502 793
t 415 501 142 4
t 415 684 289 4
t 415 514 471 4
t 416 274 142 594
t 417 555 681 177
t 418 378 482 592
t 418 390 553 116
t 418 123 553 5
t 419 614 410 47
t 419 410 624 421
t 419 421 47 655
t 419 421 569 150
t 420 65 119 71
t 420 65 71 213
t 420 65 71 682
t 420 65 397 196
t 420 761 196 682
t 421 614 560 153
t 421 614 239 419
t 421 560 239 193
t 421 569 419 164
t 422 750 446 57
t 422 750 549 512
t 422 446 220 677
t 422 549 220 512
t 423 69 287 72
t 423 535 120 72
t 423 535 254 287
t 423 535 7 386
t 423 535 386 72
t 423 120 386 165
t 424 276 182 240
t 424 276 182 152
t 424 276 182 60
t 424 276 182 319
t 424 276 696 60
t 425 370 160 228
t 425 787 160 452
t 426 198 703 453
t 427 563 714 498
t 427 520 578 412
t 428 631 732 597
t 428 621 382 312
t 430 31 621 93
t 431 221 195 243
t 431 436 243 414
t 432 682 499 307
t 432 682 4 65
t 432 499 659 65
t 432 659 4 307
t 433 283 499 215
t 434 715 244 467
t 435 302 272 748
t 436 195 431 192
t 436 526 502 209
t 436 192 221 209
t 437 200 263 103
t 437 456 566 372
t 438 217 564 671
t 438 1 315 672
t 439 599 546 582
t 441 358 709 182
t 441 358 182 90
t 441 709 182 101
t 442 467 244 49
t 442 681 719 49
t 442 719 46 2
t 443 180 16 486
t 443 562 16 585
t 444 73 673 95
t 444 673 293 20
t 445 426 197 208
t 445 426 453 556
t 445 270 197 556
t 445 198 453 556
t 446 512 267 158
t 447 572 490 142
t 447 572 3 145
t 447 490 712 90
t 447 416 712 145
t 448 473 205 83
t 448 385 205 400
t 449 789 328 353
t 449 789 328 540
t 449 328 127 225
t 449 127 678 540
t 449 310 678 225
t 450 506 402 266
t 451 128 387 752
t 451 54 388 115
t 451 388 115 752
t 453 171 556 375
t 453 171 232 330
t 453 171 232 197
t 453 232 375 198
t 453 330 375 198
t 453 375 198 638
t 454 545 359 477
t 455 649 111 523
t 455 411 50 523
t 455 225 111 23
t 456 94 284 263
t 456 236 284 103
t 456 236 263 388
t 457 538 412 125
t 457 538 552 137
t 457 427 412 137
t 458 10 239 560
t 458 164 521 288
t 458 164 560 493
t 458 239 560 493
t 459 98 211 223
t 459 98 651 223
t 459 580 223 361
t 459 580 361 172
t 460 288 723 495
t 460 288 164 549
t 460 493 164 750
t 460 493 239 549
t 461 381 114 367
t 461 27 114 129
t 461 112 380 265
t 461 129 606 367
t 462 324 248 524
t 462 550 524 46
t 463 622 728 459
t 463 237 468 525
t 463 580 459 500
t 464 584 494 255
t 464 548 373 626
t 466 123 482 628
t 467 107 442 46
t 467 107 442 168
t 469 694 111 225
t 469 334 227 50
t 469 111 227 50
t 470 80 382 732
t 470 310 401 732
t 471 314 47 373
t 472 169 319 48
t 473 385 83 205
t 473 385 83 404
t 473 608 83 271
t 474 289 89 682
t 474 289 682 432
t 474 4 17 514
t 475 669 121 30
t 476 576 145 22
t 476 169 154 377
t 478 764 129 680
t 478 764 367 755
t 478 262 5 665
t 478 767 367 755
t 479 375 270 171
t 479 375 151 198
t 479 445 151 171
t 479 445 197 198
t 479 197 198 171
t 480 171 556 333
t 480 453 708 556
t 481 357 741 399
t 481 741 110 130
t 482 170 146 59
t 482 170 401 680
t 482 146 628 401
t 482 146 59 583
t 482 628 401 59
t 482 628 680 59
t 482 628 680 592
t 482 401 680 59
t 484 238 736 274
t 484 260 655 47
t 484 655 736 274
t 484 736 18 274
t 485 437 103 284
t 485 103 227 284
t 486 562 335 443
t 486 562 713 16
t 487 131 630 661
t 487 630 147 102
t 487 630 102 489
t 487 630 661 794
t 487 147 489 43
t 488 716 349 700
t 488 644 686 700
t 489 147 52 630
t 489 147 287 630
t 489 661 535 69
t 490 274 142 256
t 491 604 339 353
t 491 366 353 678
t 491 339 353 678
t 492 226 44 223
t 492 282 44 459
t 493 164 750 723
t 493 57 750 421
t 493 239 723 421
t 494 329 464 669
t 495 723 323 131
t 496 559 503 241
t 499 246 432 213
t 499 71 659 682
t 499 317 589 89
t 500 525 343 227
t 501 256 514 289
t 502 195 526 243
t 502 431 221 192
t 502 436 192 526
t 502 436 526 778
t 504 793 101 149
t 505 595 335 187
t 505 595 187 155
t 505 595 155 213
t 505 737 790 213
t 506 657 135 791
t 507 771 776 193
t 507 652 521 792
t 507 521 528 63
t 508 244 199 715
t 508 467 715 2
t 509 115 527 284
t 509 236 527 285
t 509 527 285 242
t 509 527 364 387
t 509 364 566 284
t 510 712 34 377
t 511 677 636 412
t 511 346 153 412
t 512 158 717 190
t 512 446 717 190
t 513 203 141 527
t 513 496 527 769
t 514 322 712 501
t 515 752 364 766
t 515 359 250 766
t 515 359 364 766
t 516 152 476 407
t 516 277 182 777
t 516 476 182 777
t 517 138 615 331
t 518 681 467 449
t 518 681 328 449
t 518 107 353 449
t 518 107 719 449
t 518 754 719 449
t 519 44 699 597
t 519 699 640 226
t 520 578 88 765
t 520 552 88 498
t 520 88 39 498
t 521 10 771 239
t 521 10 193 164
t 523 312 789 621
t 524 508 729 462
t 524 244 2 467
t 524 342 2 467
t 525 728 500 667
t 525 728 75 156
t 525 75 156 667
t 526 431 192 778
t 526 192 502 32
t 527 38 73 235
t 528 610 652 311
t 528 309 685 727
t 529 44 640 597
t 529 44 226 428
t 529 640 519 23
t 529 226 597 557
t 530 511 636 785
t 530 636 785 247
t 531 183 686 233
t 531 686 716 233
t 531 724 349 716
t 531 760 233 644
t 534 718 17 377
t 534 541 34 97
t 534 739 34 97
t 535 287 489 268
t 536 113 272 367
t 536 113 755 722
t 536 113 722 478
t 536 755 114 367
t 537 733 587 126
t 537 587 727 224
t 538 457 412 88
t 538 457 552 125
t 538 457 552 137
t 538 412 88 552
t 538 552 563 137
t 539 104 87 409
t 539 104 87 735
t 539 86 409 254
t 539 86 735 386
t 539 87 735 475
t 540 342 729 310
t 540 342 449 167
t 540 695 729 449
t 541 718 534 97
t 542 320 14 545
t 542 261 176 187
t 542 261 14 790
t 542 477 176 486
t 544 646 139 602
t 544 746 64 751
t 545 454 477 542
t 545 454 320 759
t 545 454 261 359
t 546 157 42 118
t 546 157 61 118
t 546 163 299 582
t 546 61 118 248
t 546 178 118 248
t 547 571 294 305
t 547 571 305 397
t 548 379 30 326
t 548 494 300 326
t 548 329 30 341
t 548 329 464 341
t 548 30 341 326
t 549 288 460 723
t 549 723 689 422
t 549 323 422 493
t 550 67 462 118
t 550 67 105 118
t 551 734 582 384
t 551 734 621 384
t 551 371 93 384
t 552 520 578 412
t 552 520 578 511
t 552 520 538 216
t 553 600 378 116
t 554 25 643 179
t 554 643 444 92
t 554 444 354 465
t 555 298 241 177
t 555 417 601 177
t 555 241 177 235
t 555 241 442 235
t 555 601 177 566
t 556 171 189 426
t 556 197 426 638
t 557 44 519 529
t 557 393 519 226
t 558 517 547 308
t 559 496 242 241
t 559 242 398 601
t 560 164 239 193
t 560 421 239 10
t 560 10 190 460
t 560 10 460 193
t 561 583 361 19
t 561 55 146 721
t 562 16 187 230
t 562 443 29 335
t 564 672 700 130
t 565 561 721 628
t 565 561 5 482
t 565 55 59 5
t 565 628 59 482
t 565 628 5 361
t 566 103 100 456
t 566 601 298 100
t 567 609 290 35
t 568 588 363 673
t 569 421 150 795
t 569 153 150 795
t 569 560 150 419
t 572 447 416 48
t 572 490 3 48
t 572 169 3 48
t 572 712 3 416
t 573 394 91 356
t 573 568 465 356
t 574 494 300 379
t 574 494 379 464
t 574 326 300 475
t 574 329 669 548
t 574 30 548 464
t 575 629 357 480
t 575 333 741 130
t 576 60 635 48
t 578 498 427 538
t 579 796 617 350
t 580 98 223 161
t 580 12 161 173
t 580 223 237 282
t 581 418 390 378
t 581 418 390 592
t 581 418 378 553
t 582 371 546 93
t 582 157 546 31
t 582 157 42 61
t 582 157 31 163
t 583 561 565 59
t 583 55 565 721
t 583 628 565 732
t 583 732 170 721
t 584 464 300 761
t 584 300 761 373
t 584 255 77 266
t 585 443 77 794
t 586 1 438 117
t 586 1 674 253
t 587 685 537 311
t 587 685 528 727
t 587 610 733 727
t 588 673 20 719
t 589 317 670 136
t 589 317 499 246
t 589 683 246 376
t 593 590 42 324
t 593 36 42 61
t 593 42 324 105
t 593 42 67 163
t 593 67 118 248
t 594 48 416 733
t 595 505 187 230
t 595 335 737 155
t 595 335 790 230
t 596 446 137 212
t 596 220 267 212
t 597 557 44 226
t 597 557 44 428
t 598 275 315 234
t 599 301 178 177
t 599 439 263 103
t 599 362 784 103
t 599 784 177 103
t 600 553 116 592
t 600 592 581 418
t 600 581 418 378
t 601 566 786 509
t 601 103 559 509
t 602 612 773 64
t 603 392 385 305
t 603 385 481 521
t 603 400 587 521
t 604 366 51 179
t 604 366 51 328
t 604 51 667 678
t 604 51 179 328
t 604 51 678 711
t 604 667 328 711
t 605 184 705 269
t 605 705 249 794
t 605 383 269 131
t 606 461 27 413
t 607 254 489 513
t 607 52 69 758
t 607 287 87 147
t 608 448 385 205
t 608 271 473 458
t 609 567 679 70
t 609 304 290 13
t 609 290 209 793
t 611 406 280 136
t 611 406 753 317
t 611 406 136 317
t 611 670 725 317
t 611 280 725 136
t 612 577 586 22
t 613 252 688 419
t 613 688 268 419
t 615 571 140 397
t 615 547 658 138
t 615 140 658 138
t 615 658 659 404
t 616 421 636 560
t 617 350 703 122
t 617 742 280 122
t 618 356 85 782
t 619 255 9 266
t 619 255 77 373
t 619 761 77 273
t 620 740 180 713
t 620 443 102 743
t 620 323 102 713
t 621 631 80 732
t 622 468 766 728
t 622 463 237 668
t 623 338 356 251
t 623 692 738 251
t 623 356 707 251
t 624 410 252 238
t 624 795 613 252
t 624 613 419 614
t 624 419 614 325
t 625 215 283 433
t 625 283 45 647
t 626 341 329 30
t 626 548 373 30
t 626 548 77 410
t 626 373 379 77
t 627 639 720 214
t 627 720 576 169
t 629 575 333 481
t 629 58 130 700
t 630 769 489 72
t 630 489 327 756
t 631 428 523 430
t 631 23 699 382
t 631 699 523 430
t 631 529 621 523
t 631 529 621 430
t 632 664 252 96
t 632 121 325 292
t 633 518 754 353
t 633 681 107 693
t 633 107 467 91
t 633 199 719 91
t 635 48 594 472
t 635 134 472 572
t 635 576 594 472
t 636 530 785 614
t 637 749 659 704
t 637 725 682 780
t 637 109 659 140
t 637 659 780 122
t 638 375 453 480
t 638 375 197 151
t 638 556 197 629
t 638 629 151 232
t 639 691 579 279
t 639 48 217 279
t 640 699 797 44
t 642 53 608 549
t 642 448 608 549
t 643 25 554 444
t 643 25 554 73
t 643 25 554 286
t 643 25 354 286
t 644 686 716 724
t 644 686 598 531
t 644 716 724 700
t 644 760 646 700
t 645 710 13 245
t 645 710 245 297
t 646 602 544 234
t 646 602 84 267
t 646 602 746 267
t 647 97 71 89
t 647 97 71 65
t 647 89 474 66
t 647 89 17 66
t 648 238 274 624
t 648 121 709 484
t 648 121 624 410
t 648 325 274 624
t 648 325 260 410
t 648 260 624 410
t 648 260 410 352
t 649 411 334 23
t 649 411 334 763
t 650 627 217 730
t 650 627 217 438
t 650 627 233 438
t 650 666 639 217
t 650 671 217 730
t 651 282 492 211
t 651 282 223 580
t 651 492 211 597
t 651 226 173 580
t 652 771 193 405
t 652 771 193 610
t 653 310 722 470
t 653 310 789 695
t 653 722 312 748
t 653 789 312 695
t 653 789 755 695
t 653 312 470 695
t 654 770 150 405
t 654 77 150 405
t 655 792 405 652
t 655 309 528 652
t 658 305 294 776
t 658 547 776 615
t 658 776 138 196
t 659 637 749 122
t 660 735 673 91
t 660 735 133 465
t 661 489 52 287
t 661 268 630 52
t 661 268 487 287
t 661 268 287 688
t 661 630 147 52
t 662 337 141 147
t 663 273 128 619
t 663 73 38 92
t 664 632 252 386
t 664 252 386 669
t 664 252 104 669
t 664 337 325 104
t 664 337 86 121
t 664 386 104 121
t 665 175 693 262
t 665 695 342 262
t 666 671 217 579
t 666 217 438 691
t 666 438 579 691
t 666 579 691 426
t 667 179 343 339
t 667 161 604 728
t 667 500 339 678
t 667 227 343 678
t 668 728 227 343
t 669 329 30 326
t 669 379 548 337
t 670 317 683 37
t 672 564 217 275
t 672 1 217 315
t 672 217 438 730
t 673 588 444 25
t 673 20 660 568
t 673 235 660 25
t 673 660 285 568
t 674 773 612 602
t 674 757 110 612
t 674 110 602 253
t 674 110 117 675
t 675 190 64 610
t 675 64 757 610
t 676 68 209 524
t 676 434 524 778
t 677 125 153 412
t 677 57 493 750
t 677 57 153 460
t 677 57 153 412
t 677 493 511 750
t 677 153 750 412
t 678 328 353 469
t 678 328 181 469
t 678 353 181 469
t 679 609 656 782
t 680 262 764 378
t 680 418 378 390
t 681 633 518 199
t 681 633 754 508
t 681 633 442 244
t 681 518 467 199
t 682 432 307 474
t 682 4 71 474
t 682 749 659 474
t 682 71 637 474
t 683 202 670 317
t 683 670 317 745
t 683 670 745 517
t 683 589 745 558
t 683 317 615 611
t 684 21 471 306
t 684 501 514 314
t 684 514 142 314
t 685 311 610 405
t 685 311 521 140
t 685 587 776 652
t 686 531 644 760
t 686 275 724 760
t 687 417 298 263
t 687 284 784 94
t 687 784 566 263
t 688 96 613 795
t 688 781 530 252
t 688 247 613 530
t 689 743 323 701
t 689 743 608 271
t 689 323 271 701
t 689 288 740 271
t 690 425 452 412
t 691 639 134 617
t 691 134 627 194
t 692 91 697 693
t 693 695 767 692
t 693 695 692 262
t 693 665 262 366
t 694 225 181 94
t 694 225 372 763
t 694 111 485 227
t 695 175 342 262
t 695 342 262 367
t 696 276 352 544
t 696 240 779 84
t 696 779 544 746
t 696 779 82 746
t 696 260 544 746
t 696 84 544 82
t 697 338 168 199
t 697 693 692 175
t 698 799 496 242
t 698 383 496 242
t 698 184 327 54
t 698 184 24 54
t 699 529 519 226
t 699 631 23 44
t 700 598 130 275
t 700 58 275 672
t 701 743 323 63
t 701 323 770 443
t 703 8 617 445
t 704 742 350 109
t 704 742 350 122
t 704 350 224 796
t 706 752 515 389
t 707 782 623 13
t 707 738 623 281
t 707 13 710 356
t 708 448 385 608
t 708 369 53 392
t 709 145 121 274
t 709 90 441 274
t 710 281 738 707
t 711 144 450 156
t 711 450 51 506
t 711 450 506 339
t 711 450 135 402
t 712 142 447 510
t 713 230 740 335
t 715 2 244 508
t 715 49 524 778
t 716 686 531 39
t 716 488 531 598
t 717 158 234 190
t 717 751 267 234
t 717 751 234 57
t 718 97 34 291
t 719 673 660 681
t 719 91 588 633
t 719 588 444 681
t 720 233 639 671
t 723 288 460 493
t 723 288 460 689
t 723 460 239 323
t 723 460 569 493
t 723 495 569 323
t 724 760 531 233
t 724 279 686 117
t 724 275 349 117
t 726 358 101 182
t 727 733 736 587
t 729 105 342 550
t 729 524 265 324
t 730 760 279 672
t 730 279 686 275
t 730 279 531 672
t 730 720 531 672
t 730 531 275 724
t 731 398 559 756
t 731 398 496 756
t 731 398 72 120
t 731 7 203 72
t 731 203 72 242
t 732 312 470 428
t 733 537 742 587
t 733 757 110 742
t 735 78 409 539
t 735 409 539 20
t 736 577 610 3
t 736 594 610 490
t 736 18 655 3
t 737 347 335 138
t 737 335 196 230
t 737 335 230 294
t 737 335 331 294
t 738 251 394 707
t 738 133 394 570
t 738 133 394 707
t 738 623 692 356
t 739 541 17 289
t 739 17 514 74
t 739 148 289 97
t 740 620 323 743
t 740 210 29 180
t 740 713 443 689
t 741 212 357 399
t 741 333 357 575
t 741 333 575 58
t 741 392 357 603
t 742 224 796 350
t 742 224 579 733
t 742 704 350 537
t 743 323 740 210
t 743 689 701 400
t 743 701 740 400
t 744 772 148 48
t 744 148 124 185
t 746 82 117 18
t 746 82 117 3
t 746 240 612 577
t 746 117 352 779
t 747 679 707 297
t 748 755 722 206
t 748 722 272 41
t 748 722 114 653
t 748 788 41 653
t 748 41 536 206
t 748 367 653 206
t 749 637 780 307
t 749 109 780 140
t 749 109 307 126
t 750 422 288 677
t 750 493 57 723
t 750 57 677 495
t 751 64 316 234
t 751 158 646 602
t 751 158 602 316
t 752 359 295 24
t 752 515 184 54
t 753 280 772 291
t 753 772 291 742
t 754 491 681 394
t 754 692 681 199
t 755 722 114 536
t 755 788 265 272
t 755 114 41 653
t 756 769 513 559
t 756 327 496 147
t 756 327 496 559
t 756 731 513 7
t 757 727 537 733
t 757 537 733 736
t 757 537 674 610
t 757 537 610 126
t 757 110 674 736
t 759 261 477 176
t 759 261 29 187
t 759 477 542 29
t 759 477 486 187
t 760 724 730 117
t 760 233 275 686
t 761 584 464 9
t 761 619 119 66
t 762 228 370 346
t 762 228 269 549
t 762 228 549 346
t 762 787 186 257
t 762 370 186 690
t 763 485 469 181
t 763 334 694 227
t 763 694 227 649
t 765 88 81 520
t 765 81 544 520
t 765 544 646 716
t 766 258 286 374
t 766 258 668 237
t 766 258 204 500
t 766 258 468 237
t 766 258 468 374
t 767 262 665 5
t 767 262 697 693
t 767 697 478 175
t 767 697 693 680
t 768 47 274 684
t 770 63 341 614
t 770 150 771 507
t 771 652 193 521
t 771 150 63 10
t 773 253 1 234
t 774 522 625 215
t 774 522 85 618
t 774 625 85 718
t 775 358 245 149
t 775 358 245 475
t 775 726 149 441
t 776 685 405 521
t 776 507 658 196
t 776 658 305 264
t 776 311 405 305
t 776 311 652 196
t 776 405 521 264
t 777 441 358 709
t 778 209 49 431
t 778 209 49 195
t 778 715 49 414
t 779 240 60 18
t 779 240 352 696
t 779 60 82 18
t 779 60 696 3
t 779 352 696 22
t 779 276 696 18
t 779 696 3 746
t 780 126 682 256
t 781 530 511 613
t 781 33 511 613
t 782 707 13 679
t 782 656 297 618
t 782 297 623 618
t 784 178 177 439
t 785 153 493 125
t 785 57 421 125
t 786 601 103 298
t 786 177 566 301
t 786 177 298 439
t 787 690 750 422
t 788 653 755 303
t 788 722 367 789
t 788 312 367 789
t 789 310 449 470
t 789 310 449 328
t 789 312 523 328
t 789 470 127 523
t 789 80 127 653
t 790 187 336 14
t 791 711 45 339
t 791 711 506 657
t 792 405 471 63
t 792 507 655 256
t 793 504 304 209
t 793 304 567 195
t 794 54 102 705
t 794 102 131 141
t 795 624 614 252
t 795 636 410 419
t 795 410 419 614
t 796 733 537 579
t 797 23 334 631
t 797 23 173 699
t 797 23 173 108
t 797 23 108 631
t 797 334 108 631
t 798 466 12 459
t 798 12 459 500
t 798 170 161 500
t 798 170 123 500
t 799 698 509 496
