v 17.36803991800251 17.066684062135774 7.175793265307215
v 17.606978406093795 17.07255936718506 7.263164990013885
v 17.696601173388057 17.349093581718968 7.320029986379216
v 17.283280691073404 17.371098702529455 7.224586574920697
v 17.316408933457048 17.10245371106204 7.4758324946452435
v 17.785332468436614 17.078972868615654 7.603644746175466
v 17.73225615315443 17.29168385996986 7.671607277191333
v 17.36079983146745 17.445139209795872 7.5866851685935295
v 18.01636059791693 17.02816876967796 7.389042466510923
v 18.075497922746493 17.1025220178481 7.355796294897578
v 18.238481698575605 17.01186847487603 7.851361725161132
v 18.253587471085694 17.22816969292031 7.82123610268573
v 17.02570235192292 17.446381794472465 7.136842588901503
v 17.22034055905673 17.959075548910782 7.2597261240847395
v 17.030409345728387 17.768451893410077 7.186537018723448
v 17.075751728035726 17.381891633554094 7.4450841059628505
v 17.24665959955764 17.987011126250913 7.5540785431118405
v 17.05071585241194 17.960108797693174 7.508187317710014
v 17.39341480702522 18.153545514656244 7.281665947433132
v 17.649891212423057 17.889059159829642 7.715846134631154
v 17.130874057960007 18.592880987712928 7.2644716880073945
v 16.990173057414555 18.39723984224388 7.234335522164267
v 17.165928106329908 18.561668830898498 7.679940985736772
v 17.007454505998865 18.614401002379058 7.572939358844969
v 17.343480268256645 18.51352594365774 7.256267266363631
v 17.518487958663417 18.574578109737164 7.739049631616246
v 17.013946148845523 18.953327785444895 7.224833714322104
v 16.962580595291286 18.883880811125444 7.294047388291998
v 17.147582413743052 18.98992124723374 7.65600708036737
v 16.985760048257347 19.031519842009303 7.82323503309488
v 17.05455923320011 17.06835329829631 7.481615395680209
v 17.089990873927995 17.10238477386123 7.816534004831427
v 17.36198380133835 17.11942781722503 8.076988555402199
v 17.35141641599274 17.39988903344793 8.135094922145187
v 17.10422947736882 17.405990152127156 8.05599206215965
v 17.88381049292644 17.081868021350765 8.2414333489233
v 17.875867330691417 17.358440985185954 8.259836553792447
v 18.454899471901243 17.049015186087946 8.406636032233513
v 18.37867042671635 17.252469047075166 8.466374265405616
v 18.676037508676178 16.99994095118402 8.111823744128698
v 18.710742126736992 17.066513886576633 8.029058355537572
v 18.776803119871506 17.038070886858435 8.702359835160435
v 18.728630111209156 17.24650266104731 8.487111730314695
v 17.310995931331703 18.014403874620943 8.21319019253517
v 17.076377496510414 18.02671287753909 8.159451799253342
v 17.777801800901806 17.972534112702466 8.301672279312779
v 17.990320019010912 18.108766028793948 7.941419921873006
v 18.294377357165157 17.798469782786146 8.477017888174442
v 17.2458780090716 18.728425424861058 8.29467944293633
v 17.037624500269597 18.73325242747799 8.294172718153286
v 17.639033389184796 18.592678322810418 8.415134302878394
v 17.906201748937303 18.501520294813318 7.907008034371914
v 17.948619541714645 18.608051192393823 8.353615492041127
v 17.162735613823944 19.312509107350778 8.51297042561204
v 17.013838673029795 19.29660028326396 8.604816228271698
v 17.406504555175253 19.061671668449993 7.835695731792592
v 17.508777495505335 19.25268043100906 8.456245372290558
v 17.106209513992482 17.113142331041846 8.568624387846029
v 17.384463711286653 17.120453653355433 8.903446189038295
v 17.38320608022186 17.40881339880686 8.965977147790351
v 17.113400868149505 17.413506651131172 8.891557396664068
v 17.95752514454212 17.106100233311295 9.054468072638164
v 17.936191881236137 17.37694831084409 9.07215559305471
v 18.53259880833829 17.080687273103095 9.203572191547947
v 18.505133549885286 17.333522155593023 9.173557123519789
v 18.832565491053412 17.072625083992182 9.51869092791985
v 18.785454283719066 17.309977579611548 9.23429136230195
v 17.35075531627046 18.04848381037131 9.040105294848502
v 17.09865966932334 18.061237727936685 9.019042282526248
v 17.878778962306153 17.967277830824845 9.107681477629091
v 18.39533948453063 17.815848668687938 9.254580030481028
v 18.750719262657828 17.59861635252325 8.648406139505541
v 18.752970174252237 17.774649012490837 9.181470184749402
v 17.279364256406083 18.808924057664505 9.117401990475575
v 17.070247739326973 18.83390472023424 9.121850313800298
v 17.740818714257074 18.699330212646185 9.120260302569859
v 18.35205434380596 18.29882393168651 9.116134277515544
v 17.213566927196638 19.481006980190916 9.199390190033798
v 17.03775459409726 19.508948876186256 9.258436826570362
v 17.42826873149429 19.421994911510346 9.090634225607484
v 17.87762449201316 19.066277856882877 8.459200698479753
v 17.893258588272335 18.998025264024218 8.723074877947713
v 17.248470478793674 19.768318552750227 8.797221932372265
v 17.040195131012364 19.76020113209206 8.925387997821025
v 17.161880751033 19.815124904962158 9.230671161824704
v 17.01815449704964 19.864626748328686 9.541350523451907
v 17.392340081415334 19.77707243772302 8.689062238197243
v 17.335173136694102 19.791061147062347 8.976257328503007
v 17.111755354774907 17.120526244448886 9.491129576911646
v 17.398391030622665 17.129950579165023 9.845375630875461
v 17.39487098004422 17.418074327066037 9.903552952998936
v 17.121481459808383 17.423482736458872 9.8405972928639
v 17.97948982138396 17.118456285764527 9.978925644616444
v 17.964994603886215 17.393058645726956 9.980194339456856
v 18.558437374708742 17.097743403632254 10.099695153183225
v 18.533283994065158 17.35394947160843 10.047146676714192
v 18.841508693771914 17.069914005859108 10.41283432647356
v 18.81392175844909 17.334310874560494 10.083995257525087
v 17.367217326202926 18.059756026650735 9.9735068234037
v 17.112900050454908 18.082563185417502 9.955063455338893
v 17.906216196560074 17.998335359220345 10.006506669480872
v 18.473714437446045 17.890103675768252 10.007069811951405
v 18.761611054274287 17.828235265891138 9.970878562071851
v 17.30745297077439 18.84207763793451 10.015486233580255
v 17.082428440519067 18.878980425184096 10.014233826880695
v 17.74532053671513 18.663259369668864 10.14168936591506
v 18.30210563391888 18.478488952470144 10.105756210164461
v 18.783257633963974 18.138640943959437 9.322001617553951
v 18.750073964884024 18.142801370726556 9.735699748084768
v 17.212432852662698 19.52106013105457 10.036209717324516
v 17.0401148004074 19.566096742439118 10.092571968513312
v 17.578659529152073 19.352074822581127 10.107593757814374
v 17.160154449359943 19.84927607448916 10.035686994129582
v 17.00123975786601 19.893488883318803 10.371365222031876
v 17.313172103922923 19.82362585776476 9.695779288092282
v 17.111538113732365 17.13118311630305 10.471382916690676
v 17.39233191213149 17.136899526157364 10.821837214264914
v 17.386265968703725 17.42150642466535 10.870204199318064
v 17.11741760783615 17.430938864696497 10.81768143478301
v 17.968153125583907 17.11795000088079 10.93198100650932
v 17.95011664000444 17.390611218756217 10.915101809871999
v 18.543366936178913 17.076628352891365 11.012494127053266
v 18.519884108536058 17.339041983864654 10.924126764229923
v 18.83042277174531 17.005575054839895 11.266003510425298
v 18.806966516556123 17.285193124431448 10.920906682263155
v 17.360854281549926 18.066293780164443 10.909754264269269
v 17.10725096742099 18.08613482712483 10.911845167946494
v 17.889786696907414 18.007859377974736 10.906905527180127
v 18.446233432156678 17.90563071630467 10.845124083329976
v 18.739884261479133 17.82417635642434 10.764184579904557
v 17.304195969739574 18.837750630477146 10.916283033238273
v 17.07620106487916 18.881998347345643 10.932273113041445
v 17.77297897488398 18.737592428087172 10.903665579603988
v 18.260140230428057 18.50390566978091 10.909974402233855
v 18.71239933868799 18.17455437692302 10.51785855822969
v 17.216434623799188 19.519664501190658 10.897784967734042
v 17.030547567195292 19.55944109879678 10.955582983666778
v 17.57730818557555 19.33756150313921 10.942245441579207
v 18.05235156692804 19.085632084784528 10.29820507276391
v 18.010481236661438 19.05205381437933 10.685964208182359
v 17.154676463433987 19.84301473541108 10.879113162896457
v 16.980762767671155 19.898434041605753 11.159370482610436
v 17.32611077827212 19.816039602150134 10.568830889986895
v 17.094942213733678 17.135649180289196 11.454330547106425
v 17.360870620742652 17.129645699442722 11.78112464169821
v 17.346980474926085 17.40655609827383 11.804522815969927
v 17.08954182996793 17.42619452373118 11.777695905369585
v 17.92484824384465 17.08238213827878 11.843817622503133
v 17.88741157771706 17.35865196198724 11.791906118408807
v 18.499517997871397 16.990926826583053 11.841415033963884
v 18.46156146247652 17.24915334770614 11.72164466077849
v 18.802687460703996 16.88703490332302 11.980679806459861
v 18.82369396292121 17.080370572761524 11.560748830606961
v 17.31700826184234 18.041101317423166 11.796564462531565
v 17.074160235979267 18.068891299220585 11.832382585203062
v 17.81603861610672 17.983784714737226 11.727226304606615
v 18.295664539071183 17.96531547810258 11.516144568013221
v 18.751348812086444 17.622496447608757 11.260558070969457
v 17.272736483307305 18.80940957235521 11.726520073482407
v 17.052716210457195 18.834373148598004 11.781793222697797
v 17.715621976064458 18.71103503927993 11.652213698605527
v 18.080978018145668 18.605300695569323 11.560970115768239
v 18.625439086704908 18.161010147197295 11.143539157607735
v 17.246479088714402 19.412429895034112 11.557177438735836
v 17.00290917627159 19.531276529464257 11.692706985877793
v 17.5385350984218 19.326114334493237 11.64693549908166
v 17.944878538880342 19.04686322321638 11.39600945957028
v 17.144956248181334 19.842100010649705 11.573267980318224
v 16.94657458995852 19.931368745331167 11.532208665373572
v 17.32446829145683 19.792995293095263 11.349778842577415
v 17.052521652799285 17.12499140922323 12.389129629693771
v 17.293274166360284 17.097311103424186 12.649844129917916
v 17.263302447900333 17.36303631764003 12.625947666482322
v 17.024612301013516 17.403331601282986 12.652409422491052
v 17.853360064689916 16.992591004341712 12.607602088365818
v 17.780676435771454 17.256059679389725 12.53819317412308
v 18.429288365047878 16.868450253195423 12.495494181552424
v 18.29882026903068 17.044170343457505 12.339996910755895
v 18.811355532980468 16.78590159387843 12.306934955303895
v 18.74705741983935 16.89549828075036 12.155904914992794
v 17.216562104465734 17.95517647102908 12.562081864789695
v 17.008675865968023 18.000896745781443 12.634663996937622
v 17.61938941550877 17.983006936267078 12.34967352731324
v 18.115194759686442 17.67691769474242 12.131223390566904
v 17.237863438215737 18.604869760845013 12.34142893810526
v 16.97435870576693 18.71238119967896 12.498302924953345
v 17.624834559590308 18.64076108319482 12.131095826214725
v 17.981949135806584 18.42013699362557 12.001300209891241
v 17.17384283543747 19.45922781933825 12.012950350711634
v 16.958653320218463 19.36459748621496 12.173862174882242
v 17.4805426987442 19.240803491073475 11.997443513238316
v 17.851915732382356 18.989173421656492 11.897339850401323
v 17.308651929826272 19.765904399460865 11.856399263978156
v 17.187719773959653 19.875040352295056 11.925144366224352
v 16.9700271221904 17.098406534819404 13.1839106858893
v 17.18262498365095 17.02380851509939 13.328423171310144
v 17.079333869166103 17.338669149560598 13.233536444331516
v 16.918929791253525 17.346174888440498 13.34966165840348
v 17.93561628122069 16.879012336693023 12.966819964355619
v 17.580647307298758 17.086640562657085 13.027896514441501
v 18.251927918521204 16.771160006543607 12.915847556170165
v 18.119947895555722 16.885975319983825 12.852046198791882
v 17.093943729466858 17.837762564209378 13.032349603191198
v 16.87463950529469 17.84441752965695 13.284842012023267
v 17.373059484199814 17.64474373320401 12.928110688203795
v 17.015010396826206 18.262420466425606 12.935351320827568
v 16.860263049666266 18.333491330917514 13.055806504442005
v 17.314843154616476 18.20225399033597 12.761733241589356
v 16.859194118762424 17.062413541495896 13.70161033708654
v 16.900003477636744 16.970948397827062 13.783774631710042
v 16.865214163708124 17.149792226539354 13.725940242787722
v 16.800256012235398 17.355694194637618 13.71174371607153
v 16.834487311726154 17.491748045765863 13.637341627438545
v 16.750144187437336 17.556658942532735 13.734671842375617
v 16.854790674401897 6.987307532150255 16.818911142885394
v 17.079219862831312 7.074755845702147 16.898486576244355
v 17.310786913777896 7.365934890698633 16.98859933876184
v 16.961408350848092 7.192025106229915 16.902979894046737
v 16.936393072195862 7.077116009860371 17.01504744498021
v 17.264750090599016 7.147345735169124 17.188019807996962
v 17.277740195648533 7.473510783507277 17.18922403373174
v 17.043313722633457 7.3772455527365395 17.199608901683405
v 17.72014809956752 7.1346069785610275 16.96864603809267
v 17.9771646853305 7.441437785517384 17.028497380803444
v 18.18019918556599 7.148413871984731 17.132751369393304
v 18.044561173766855 7.468450624251766 17.292605273064922
v 18.438426036961676 7.180059575992134 17.028737580517365
v 18.615568044818527 7.505860283836053 17.08717861326485
v 18.698462039519708 7.194911128588364 17.31286491340726
v 18.669342786965085 7.499210967109845 17.353342543298417
v 18.872544534004952 7.254549681025189 17.12906694298287
v 18.932798655501383 7.718298750696432 17.104396964237083
v 18.986789922999144 7.182072521632293 17.51522521330324
v 18.941808019408366 7.513998616509545 17.381923520960086
v 17.43361834596064 7.9639568638332845 17.063540275390718
v 17.105795304384465 7.712585932830667 17.013291651772956
v 17.438012730531433 8.032439688016845 17.342476777093367
v 17.14710625531281 7.978052282951412 17.31959342146017
v 18.063861309646704 8.057763210620665 17.095813591043942
v 18.069092807738674 8.088533714267804 17.371820699244346
v 18.680302095413442 8.164486551508752 17.111970308424358
v 18.680667253614306 8.145239583258498 17.38085774339836
v 19.003605015337246 8.455649621800283 17.110825249847476
v 18.981595190296755 8.205183142911569 17.375035003993247
v 17.514179323098507 8.63903945349682 17.140815217210545
v 17.196937704588002 8.396752541928633 17.101536746182692
v 17.50011975353447 8.702948969706965 17.436541936288812
v 17.20094171801274 8.672178518944214 17.441746049306918
v 18.158812352870687 8.727814125742173 17.131040337310605
v 18.115837951749825 8.788953719145596 17.425308737984846
v 18.784343156139947 8.887532169303725 17.126947825610184
v 18.753471721248136 8.880344368951127 17.40320664186237
v 19.12296910809645 9.17383468385605 17.119592168312934
v 19.108594048767795 8.993250155359025 17.393578490947174
v 17.717039237821083 9.027923006064338 17.162664650027146
v 17.2583340327879 8.941435175385248 17.215457758631782
v 17.42042963115199 9.267169683791996 17.601952066083793
v 17.17303308593004 9.194846319821764 17.662566059863146
v 18.417949544455134 9.153181326584015 17.131952428051463
v 18.191766646861904 9.224008193305822 17.465539309894943
v 19.02691599217906 9.411972298965628 17.11058643464184
v 18.853864761166346 9.492545867385248 17.437463118186518
v 19.2286733517841 9.70953806704579 17.095791748159442
v 19.26899634923089 9.51345616776518 17.430704058073765
v 19.297937347704618 9.931692521521088 17.032887445996774
v 19.188903185037066 9.830147657595878 17.128333498652395
v 19.226745593744383 9.858561790286457 17.248993234468468
v 19.036831453531665 9.836836116608342 17.540966678388475
v 16.961899796203074 7.155453988246427 17.530390495360546
v 17.020610424375885 7.178932542010513 17.84354934062133
v 17.30680256953742 7.561896258499878 17.745077625147864
v 17.04634369629408 7.484877884387542 17.749473309151707
v 18.523337768289245 7.1954009118238424 17.62545134713255
v 18.836260476891315 7.198530241546496 17.846299524246323
v 18.745470219361554 7.4884035236537585 17.874424139511937
v 18.232416360489374 7.5887241558016 17.947545049359586
v 19.097273626758252 7.112270788749245 17.990778792016435
v 18.989041952546916 7.460651443407907 17.922531651241197
v 17.448110401873144 8.141493412207419 17.9440924125107
v 17.154491042727308 8.14348606310092 17.904918268069615
v 18.064886780374145 8.154853084192137 17.96298641591325
v 18.68430003080856 8.147112128880854 17.952808600038622
v 18.96221231866776 8.138277786536623 17.937505327582247
v 17.46442810254509 8.859687314150062 18.069491164495563
v 17.191759807064837 8.842624113567735 18.06670092657687
v 18.064958394400712 8.869035069431972 18.045900757365082
v 18.679990233819822 8.907446325574337 17.990175951402957
v 19.16202796747807 9.036618449375514 17.84845765466454
v 17.451570743679806 9.31726175647276 18.14968588174948
v 17.16867955495709 9.467929541407756 18.204028261720207
v 18.099164397419074 9.526078489030633 18.13410525213576
v 18.723811946729786 9.552019359049371 18.03553238660866
v 19.081665015309685 9.538623772804547 17.902162875142007
v 19.58114059784493 9.329156537605561 17.52523106660569
v 19.66165262547107 9.473444333631898 17.476098033954166
v 19.632504677899767 9.293924133161665 17.638835367267323
v 19.57722588932528 9.414301028408437 17.607229821422887
v 17.22240903797948 9.742574001069709 17.81637518916311
v 17.1380970036467 9.687696740325118 17.850907039204323
v 17.429711763303924 9.845488239732722 18.267462608046912
v 17.126853756083975 9.805154015640241 18.04465994498439
v 18.564238775231345 9.771384325525583 17.77277071347557
v 18.75749677663003 9.869636800402438 18.05456009119569
v 18.26582912608855 9.953064233875667 18.355701030077107
v 19.097257966257366 9.834963929310758 17.752924001541892
v 16.96469552194105 7.225046583501484 18.01359806034852
v 17.00956830437368 7.159036396900956 18.12627725936085
v 17.378146177465457 7.577126553218567 18.268310894542264
v 17.092746927623125 7.718388744861254 18.17174003237512
v 18.622588328134505 7.275435432830325 18.136698883437
v 18.998257738860104 7.1402148645269055 18.151021508055134
v 18.697295908365778 7.614298968929585 18.41333012276914
v 18.147198353952856 7.791112193909107 18.55094812770095
v 19.188665193065212 7.0318504796107915 18.18627605779653
v 19.070244639787013 7.294824202991658 18.21628982154526
v 17.464796674879846 8.313101724528952 18.63497099328347
v 17.159707068343565 8.460091202236404 18.47991719489977
v 18.053453516812617 8.261337518329167 18.649099299611215
v 18.659879188076065 8.167831822243098 18.40654844629473
v 18.92321847039859 8.120592893848404 18.543822081177183
v 17.452236540927743 9.022610339027612 18.799834488406866
v 17.19171438892426 9.054790656000199 18.78821725288048
v 17.941427053243757 9.073306180303247 18.69718022763597
v 18.594162408120617 8.948772335773103 18.67647695415897
v 18.8929725733858 8.886053040426784 18.610894592569675
v 17.410470159222633 9.690502296038524 18.94215703375749
v 17.116633187022572 9.643948874732676 19.123957018266022
v 17.991371024613482 9.687388125554348 18.87363626363055
v 18.56069426215648 9.619415562831248 18.718972800559623
v 18.94836948569388 9.409430795913085 18.43612212057869
v 18.008517194613333 10.099210427600077 18.94084516858203
v 17.2683806159198 10.334981036026381 19.332052094905464
v 18.431780859015337 10.240898897241225 18.848735382412073
v 18.90866849970399 9.866720572867393 18.30479381934121
v 17.732754821443933 8.003145057105517 18.964658306445532
v 18.254337524491174 7.920164618047593 18.964902617220627
v 17.86469137890869 8.45753498771245 19.322428096587245
v 17.59386042081484 8.611554193248244 19.23792786362172
v 18.576198204388582 7.820550031599571 18.919984673983734
v 18.603890639657333 8.263465397118516 18.966668587976393
v 17.23819096027787 8.779417800743367 19.068808883969155
v 17.527321956856017 9.097300850314898 19.35096760857671
v 17.167131320671697 9.36714105219679 19.265733761010683
v 17.90304974213912 9.209726095016595 19.370233663010524
v 18.91097803724138 8.324782412621353 18.969655914541192
v 18.853041022228034 8.719843671984933 18.998748801687555
v 18.479266688800884 9.236557048554548 19.340291740801316
v 17.375148798933477 9.854370121600018 19.546733544292046
v 17.040038940101702 10.03943872842931 19.51476516503565
v 18.00204518423269 9.682042278110899 19.390987115846634
v 18.29647024264422 9.699773477612744 19.39919718071557
v 18.777442333398533 9.309579534446392 19.023396557805285
v 17.011568631253045 10.262511719213103 19.449754632130162
v 17.139056419061355 10.30388645664571 19.5636939741554
v 16.931000438386345 10.44140744698069 19.712233061763836
v 18.01352140548276 10.265154034084732 19.445871417311213
v 18.279640725944123 10.164444740230024 19.30286694024245
v 16.92647694772606 10.720848229535637 19.537863870863973
v 16.87645250834693 10.67560838479325 19.590984953045908
v 16.898129082737306 10.681441344955648 19.610492313235397
v 16.801040993017736 10.744760970269343 19.682007193573572
v 18.414443163979854 10.717396823861288 19.17395543067802
v 18.292574825651624 10.64189648290182 19.235396891001695
v 18.338344617046154 10.650857265865406 19.294233858186097
v 18.264134267141323 10.71816395311005 19.390558732971545
v 17.684405574956862 8.886035956739553 19.73219340711733
v 17.80205411969852 8.796223701935721 19.80455680551862
v 17.93800836556084 9.226385048913684 19.760550998495052
v 17.63585944146833 9.430612880843405 19.804074710938455
v 17.92092676158651 9.789984925475604 19.776071846685806
v 17.335020309819047 9.944922179709232 19.928037254092203
v 18.26207171394337 9.376848205653813 19.794679613122522
v 18.205334986312394 9.622524470417435 19.75521888091323
v 17.003037954267505 10.20976371879289 19.876067411874146
v 17.021633441354318 10.252682259716117 19.881878719708393
v 16.8824982011603 10.370721104202648 19.943168427520263
v 18.186355765197046 10.041238315917116 19.711183779197686
v 18.083367281188227 10.133501851947718 19.780683174825427
t 0 1 3 4
t 1 2 3 6
t 1 4 5 6
t 3 4 6 7
t 1 3 4 6
t 1 8 2 5
t 8 9 2 11
t 8 5 10 11
t 2 5 11 6
t 8 2 5 11
t 12 3 14 15
t 3 13 14 16
t 3 15 7 16
t 14 15 16 17
t 3 14 15 16
t 3 2 13 7
t 2 18 13 19
t 2 7 6 19
t 13 7 19 16
t 2 13 7 19
t 14 13 21 17
t 13 20 21 22
t 13 17 16 22
t 21 17 22 23
t 13 21 17 22
t 13 18 20 16
t 18 24 20 25
t 18 16 19 25
t 20 16 25 22
t 18 20 16 25
t 21 20 27 23
t 20 26 27 28
t 20 23 22 28
t 27 23 28 29
t 20 27 23 28
t 30 4 15 31
t 4 7 15 33
t 4 31 32 33
t 15 31 33 34
t 4 15 31 33
t 4 5 7 32
t 5 6 7 36
t 5 32 35 36
t 7 32 36 33
t 5 7 32 36
t 5 10 6 35
t 10 11 6 38
t 10 35 37 38
t 6 35 38 36
t 10 6 35 38
t 10 39 11 37
t 39 40 11 42
t 39 37 41 42
t 11 37 42 38
t 39 11 37 42
t 15 7 17 34
t 7 16 17 43
t 7 34 33 43
t 17 34 43 44
t 7 17 34 43
t 7 6 16 33
t 6 19 16 45
t 6 33 36 45
t 16 33 45 43
t 6 16 33 45
t 6 11 19 36
t 11 46 19 47
t 11 36 38 47
t 19 36 47 45
t 11 19 36 47
t 17 16 23 44
t 16 22 23 48
t 16 44 43 48
t 23 44 48 49
t 16 23 44 48
t 16 19 22 43
t 19 25 22 50
t 19 43 45 50
t 22 43 50 48
t 19 22 43 50
t 19 46 25 45
t 46 51 25 52
t 46 45 47 52
t 25 45 52 50
t 46 25 45 52
t 23 22 29 49
t 22 28 29 53
t 22 49 48 53
t 29 49 53 54
t 22 29 49 53
t 22 25 28 48
t 25 55 28 56
t 25 48 50 56
t 28 48 56 53
t 25 28 48 56
t 31 32 34 57
t 32 33 34 59
t 32 57 58 59
t 34 57 59 60
t 32 34 57 59
t 32 35 33 58
t 35 36 33 62
t 35 58 61 62
t 33 58 62 59
t 35 33 58 62
t 35 37 36 61
t 37 38 36 64
t 37 61 63 64
t 36 61 64 62
t 37 36 61 64
t 37 41 38 63
t 41 42 38 66
t 41 63 65 66
t 38 63 66 64
t 41 38 63 66
t 34 33 44 60
t 33 43 44 67
t 33 60 59 67
t 44 60 67 68
t 33 44 60 67
t 33 36 43 59
t 36 45 43 69
t 36 59 62 69
t 43 59 69 67
t 36 43 59 69
t 36 38 45 62
t 38 47 45 70
t 38 62 64 70
t 45 62 70 69
t 38 45 62 70
t 38 42 47 64
t 42 71 47 72
t 42 64 66 72
t 47 64 72 70
t 42 47 64 72
t 44 43 49 68
t 43 48 49 73
t 43 68 67 73
t 49 68 73 74
t 43 49 68 73
t 43 45 48 67
t 45 50 48 75
t 45 67 69 75
t 48 67 75 73
t 45 48 67 75
t 45 47 50 69
t 47 52 50 76
t 47 69 70 76
t 50 69 76 75
t 47 50 69 76
t 49 48 54 74
t 48 53 54 77
t 48 74 73 77
t 54 74 77 78
t 48 54 74 77
t 48 50 53 73
t 50 56 53 79
t 50 73 75 79
t 53 73 79 77
t 50 53 73 79
t 50 52 56 75
t 52 80 56 81
t 52 75 76 81
t 56 75 81 79
t 52 56 75 81
t 54 53 83 78
t 53 82 83 84
t 53 78 77 84
t 83 78 84 85
t 53 83 78 84
t 53 56 82 77
t 56 86 82 87
t 56 77 79 87
t 82 77 87 84
t 56 82 77 87
t 57 58 60 88
t 58 59 60 90
t 58 88 89 90
t 60 88 90 91
t 58 60 88 90
t 58 61 59 89
t 61 62 59 93
t 61 89 92 93
t 59 89 93 90
t 61 59 89 93
t 61 63 62 92
t 63 64 62 95
t 63 92 94 95
t 62 92 95 93
t 63 62 92 95
t 63 65 64 94
t 65 66 64 97
t 65 94 96 97
t 64 94 97 95
t 65 64 94 97
t 60 59 68 91
t 59 67 68 98
t 59 91 90 98
t 68 91 98 99
t 59 68 91 98
t 59 62 67 90
t 62 69 67 100
t 62 90 93 100
t 67 90 100 98
t 62 67 90 100
t 62 64 69 93
t 64 70 69 101
t 64 93 95 101
t 69 93 101 100
t 64 69 93 101
t 64 66 70 95
t 66 72 70 102
t 66 95 97 102
t 70 95 102 101
t 66 70 95 102
t 68 67 74 99
t 67 73 74 103
t 67 99 98 103
t 74 99 103 104
t 67 74 99 103
t 67 69 73 98
t 69 75 73 105
t 69 98 100 105
t 73 98 105 103
t 69 73 98 105
t 69 70 75 100
t 70 76 75 106
t 70 100 101 106
t 75 100 106 105
t 70 75 100 106
t 70 72 76 101
t 72 107 76 108
t 72 101 102 108
t 76 101 108 106
t 72 76 101 108
t 74 73 78 104
t 73 77 78 109
t 73 104 103 109
t 78 104 109 110
t 73 78 104 109
t 73 75 77 103
t 75 79 77 111
t 75 103 105 111
t 77 103 111 109
t 75 77 103 111
t 78 77 85 110
t 77 84 85 112
t 77 110 109 112
t 85 110 112 113
t 77 85 110 112
t 77 79 84 109
t 79 87 84 114
t 79 109 111 114
t 84 109 114 112
t 79 84 109 114
t 88 89 91 115
t 89 90 91 117
t 89 115 116 117
t 91 115 117 118
t 89 91 115 117
t 89 92 90 116
t 92 93 90 120
t 92 116 119 120
t 90 116 120 117
t 92 90 116 120
t 92 94 93 119
t 94 95 93 122
t 94 119 121 122
t 93 119 122 120
t 94 93 119 122
t 94 96 95 121
t 96 97 95 124
t 96 121 123 124
t 95 121 124 122
t 96 95 121 124
t 91 90 99 118
t 90 98 99 125
t 90 118 117 125
t 99 118 125 126
t 90 99 118 125
t 90 93 98 117
t 93 100 98 127
t 93 117 120 127
t 98 117 127 125
t 93 98 117 127
t 93 95 100 120
t 95 101 100 128
t 95 120 122 128
t 100 120 128 127
t 95 100 120 128
t 95 97 101 122
t 97 102 101 129
t 97 122 124 129
t 101 122 129 128
t 97 101 122 129
t 99 98 104 126
t 98 103 104 130
t 98 126 125 130
t 104 126 130 131
t 98 104 126 130
t 98 100 103 125
t 100 105 103 132
t 100 125 127 132
t 103 125 132 130
t 100 103 125 132
t 100 101 105 127
t 101 106 105 133
t 101 127 128 133
t 105 127 133 132
t 101 105 127 133
t 101 102 106 128
t 102 108 106 134
t 102 128 129 134
t 106 128 134 133
t 102 106 128 134
t 104 103 110 131
t 103 109 110 135
t 103 131 130 135
t 110 131 135 136
t 103 110 131 135
t 103 105 109 130
t 105 111 109 137
t 105 130 132 137
t 109 130 137 135
t 105 109 130 137
t 105 106 111 132
t 106 138 111 139
t 106 132 133 139
t 111 132 139 137
t 106 111 132 139
t 110 109 113 136
t 109 112 113 140
t 109 136 135 140
t 113 136 140 141
t 109 113 136 140
t 109 111 112 135
t 111 114 112 142
t 111 135 137 142
t 112 135 142 140
t 111 112 135 142
t 115 116 118 143
t 116 117 118 145
t 116 143 144 145
t 118 143 145 146
t 116 118 143 145
t 116 119 117 144
t 119 120 117 148
t 119 144 147 148
t 117 144 148 145
t 119 117 144 148
t 119 121 120 147
t 121 122 120 150
t 121 147 149 150
t 120 147 150 148
t 121 120 147 150
t 121 123 122 149
t 123 124 122 152
t 123 149 151 152
t 122 149 152 150
t 123 122 149 152
t 118 117 126 146
t 117 125 126 153
t 117 146 145 153
t 126 146 153 154
t 117 126 146 153
t 117 120 125 145
t 120 127 125 155
t 120 145 148 155
t 125 145 155 153
t 120 125 145 155
t 120 122 127 148
t 122 128 127 156
t 122 148 150 156
t 127 148 156 155
t 122 127 148 156
t 122 124 128 150
t 124 129 128 157
t 124 150 152 157
t 128 150 157 156
t 124 128 150 157
t 126 125 131 154
t 125 130 131 158
t 125 154 153 158
t 131 154 158 159
t 125 131 154 158
t 125 127 130 153
t 127 132 130 160
t 127 153 155 160
t 130 153 160 158
t 127 130 153 160
t 127 128 132 155
t 128 133 132 161
t 128 155 156 161
t 132 155 161 160
t 128 132 155 161
t 128 129 133 156
t 129 134 133 162
t 129 156 157 162
t 133 156 162 161
t 129 133 156 162
t 131 130 136 159
t 130 135 136 163
t 130 159 158 163
t 136 159 163 164
t 130 136 159 163
t 130 132 135 158
t 132 137 135 165
t 132 158 160 165
t 135 158 165 163
t 132 135 158 165
t 132 133 137 160
t 133 139 137 166
t 133 160 161 166
t 137 160 166 165
t 133 137 160 166
t 136 135 141 164
t 135 140 141 167
t 135 164 163 167
t 141 164 167 168
t 135 141 164 167
t 135 137 140 163
t 137 142 140 169
t 137 163 165 169
t 140 163 169 167
t 137 140 163 169
t 143 144 146 170
t 144 145 146 172
t 144 170 171 172
t 146 170 172 173
t 144 146 170 172
t 144 147 145 171
t 147 148 145 175
t 147 171 174 175
t 145 171 175 172
t 147 145 171 175
t 147 149 148 174
t 149 150 148 177
t 149 174 176 177
t 148 174 177 175
t 149 148 174 177
t 149 151 150 176
t 151 152 150 179
t 151 176 178 179
t 150 176 179 177
t 151 150 176 179
t 146 145 154 173
t 145 153 154 180
t 145 173 172 180
t 154 173 180 181
t 145 154 173 180
t 145 148 153 172
t 148 155 153 182
t 148 172 175 182
t 153 172 182 180
t 148 153 172 182
t 148 150 155 175
t 150 156 155 183
t 150 175 177 183
t 155 175 183 182
t 150 155 175 183
t 154 153 159 181
t 153 158 159 184
t 153 181 180 184
t 159 181 184 185
t 153 159 181 184
t 153 155 158 180
t 155 160 158 186
t 155 180 182 186
t 158 180 186 184
t 155 158 180 186
t 155 156 160 182
t 156 161 160 187
t 156 182 183 187
t 160 182 187 186
t 156 160 182 187
t 159 158 164 185
t 158 163 164 188
t 158 185 184 188
t 164 185 188 189
t 158 164 185 188
t 158 160 163 184
t 160 165 163 190
t 160 184 186 190
t 163 184 190 188
t 160 163 184 190
t 160 161 165 186
t 161 166 165 191
t 161 186 187 191
t 165 186 191 190
t 161 165 186 191
t 163 165 167 188
t 165 169 167 192
t 165 188 190 192
t 167 188 192 193
t 165 167 188 192
t 170 171 173 194
t 171 172 173 196
t 171 194 195 196
t 173 194 196 197
t 171 173 194 196
t 171 174 172 195
t 174 175 172 199
t 174 195 198 199
t 172 195 199 196
t 174 172 195 199
t 174 176 175 198
t 176 177 175 201
t 176 198 200 201
t 175 198 201 199
t 176 175 198 201
t 173 172 181 197
t 172 180 181 202
t 172 197 196 202
t 181 197 202 203
t 172 181 197 202
t 172 175 180 196
t 175 182 180 204
t 175 196 199 204
t 180 196 204 202
t 175 180 196 204
t 181 180 185 203
t 180 184 185 205
t 180 203 202 205
t 185 203 205 206
t 180 185 203 205
t 180 182 184 202
t 182 186 184 207
t 182 202 204 207
t 184 202 207 205
t 182 184 202 207
t 194 195 197 208
t 195 196 197 210
t 195 208 209 210
t 197 208 210 211
t 195 197 208 210
t 197 196 203 211
t 196 202 203 212
t 196 211 210 212
t 203 211 212 213
t 196 203 211 212
t 214 215 217 218
t 215 216 217 220
t 215 218 219 220
t 217 218 220 221
t 215 217 218 220
t 215 222 216 219
t 222 223 216 225
t 222 219 224 225
t 216 219 225 220
t 222 216 219 225
t 222 226 223 224
t 226 227 223 229
t 226 224 228 229
t 223 224 229 225
t 226 223 224 229
t 226 230 227 228
t 230 231 227 233
t 230 228 232 233
t 227 228 233 229
t 230 227 228 233
t 217 216 235 221
t 216 234 235 236
t 216 221 220 236
t 235 221 236 237
t 216 235 221 236
t 216 223 234 220
t 223 238 234 239
t 223 220 225 239
t 234 220 239 236
t 223 234 220 239
t 223 227 238 225
t 227 240 238 241
t 227 225 229 241
t 238 225 241 239
t 227 238 225 241
t 227 231 240 229
t 231 242 240 243
t 231 229 233 243
t 240 229 243 241
t 231 240 229 243
t 235 234 245 237
t 234 244 245 246
t 234 237 236 246
t 245 237 246 247
t 234 245 237 246
t 234 238 244 236
t 238 248 244 249
t 238 236 239 249
t 244 236 249 246
t 238 244 236 249
t 238 240 248 239
t 240 250 248 251
t 240 239 241 251
t 248 239 251 249
t 240 248 239 251
t 240 242 250 241
t 242 252 250 253
t 242 241 243 253
t 250 241 253 251
t 242 250 241 253
t 245 244 255 247
t 244 254 255 256
t 244 247 246 256
t 255 247 256 257
t 244 255 247 256
t 244 248 254 246
t 248 258 254 259
t 248 246 249 259
t 254 246 259 256
t 248 254 246 259
t 248 250 258 249
t 250 260 258 261
t 250 249 251 261
t 258 249 261 259
t 250 258 249 261
t 250 252 260 251
t 252 262 260 263
t 252 251 253 263
t 260 251 263 261
t 252 260 251 263
t 260 262 265 261
t 262 264 265 266
t 262 261 263 266
t 265 261 266 267
t 262 265 261 266
t 218 219 221 268
t 219 220 221 270
t 219 268 269 270
t 221 268 270 271
t 219 221 268 270
t 224 228 225 272
t 228 229 225 274
t 228 272 273 274
t 225 272 274 275
t 228 225 272 274
t 228 232 229 273
t 232 233 229 277
t 232 273 276 277
t 229 273 277 274
t 232 229 273 277
t 221 220 237 271
t 220 236 237 278
t 220 271 270 278
t 237 271 278 279
t 220 237 271 278
t 220 225 236 270
t 225 239 236 280
t 225 270 275 280
t 236 270 280 278
t 225 236 270 280
t 225 229 239 275
t 229 241 239 281
t 229 275 274 281
t 239 275 281 280
t 229 239 275 281
t 229 233 241 274
t 233 243 241 282
t 233 274 277 282
t 241 274 282 281
t 233 241 274 282
t 237 236 247 279
t 236 246 247 283
t 236 279 278 283
t 247 279 283 284
t 236 247 279 283
t 236 239 246 278
t 239 249 246 285
t 239 278 280 285
t 246 278 285 283
t 239 246 278 285
t 239 241 249 280
t 241 251 249 286
t 241 280 281 286
t 249 280 286 285
t 241 249 280 286
t 241 243 251 281
t 243 253 251 287
t 243 281 282 287
t 251 281 287 286
t 243 251 281 287
t 247 246 257 284
t 246 256 257 288
t 246 284 283 288
t 257 284 288 289
t 246 257 284 288
t 246 249 256 283
t 249 259 256 290
t 249 283 285 290
t 256 283 290 288
t 249 256 283 290
t 249 251 259 285
t 251 261 259 291
t 251 285 286 291
t 259 285 291 290
t 251 259 285 291
t 251 253 261 286
t 253 263 261 292
t 253 286 287 292
t 261 286 292 291
t 253 261 286 292
t 253 293 263 287
t 293 294 263 296
t 293 287 295 296
t 263 287 296 292
t 293 263 287 296
t 257 256 298 289
t 256 297 298 299
t 256 289 288 299
t 298 289 299 300
t 256 298 289 299
t 259 261 301 290
t 261 267 301 302
t 261 290 291 302
t 301 290 302 303
t 261 301 290 302
t 261 263 267 291
t 263 266 267 304
t 263 291 292 304
t 267 291 304 302
t 263 267 291 304
t 268 269 271 305
t 269 270 271 307
t 269 305 306 307
t 271 305 307 308
t 269 271 305 307
t 272 273 275 309
t 273 274 275 311
t 273 309 310 311
t 275 309 311 312
t 273 275 309 311
t 273 276 274 310
t 276 277 274 314
t 276 310 313 314
t 274 310 314 311
t 276 274 310 314
t 271 270 279 308
t 270 278 279 315
t 270 308 307 315
t 279 308 315 316
t 270 279 308 315
t 270 275 278 307
t 275 280 278 317
t 275 307 312 317
t 278 307 317 315
t 275 278 307 317
t 275 274 280 312
t 274 281 280 318
t 274 312 311 318
t 280 312 318 317
t 274 280 312 318
t 274 277 281 311
t 277 282 281 319
t 277 311 314 319
t 281 311 319 318
t 277 281 311 319
t 279 278 284 316
t 278 283 284 320
t 278 316 315 320
t 284 316 320 321
t 278 284 316 320
t 278 280 283 315
t 280 285 283 322
t 280 315 317 322
t 283 315 322 320
t 280 283 315 322
t 280 281 285 317
t 281 286 285 323
t 281 317 318 323
t 285 317 323 322
t 281 285 317 323
t 281 282 286 318
t 282 287 286 324
t 282 318 319 324
t 286 318 324 323
t 282 286 318 324
t 284 283 289 321
t 283 288 289 325
t 283 321 320 325
t 289 321 325 326
t 283 289 321 325
t 283 285 288 320
t 285 290 288 327
t 285 320 322 327
t 288 320 327 325
t 285 288 320 327
t 285 286 290 322
t 286 291 290 328
t 286 322 323 328
t 290 322 328 327
t 286 290 322 328
t 286 287 291 323
t 287 292 291 329
t 287 323 324 329
t 291 323 329 328
t 287 291 323 329
t 288 290 299 325
t 290 303 299 330
t 290 325 327 330
t 299 325 330 331
t 290 299 325 330
t 290 291 303 327
t 291 302 303 332
t 291 327 328 332
t 303 327 332 330
t 291 303 327 332
t 291 292 302 328
t 292 304 302 333
t 292 328 329 333
t 302 328 333 332
t 292 302 328 333
t 307 312 315 334
t 312 317 315 336
t 312 334 335 336
t 315 334 336 337
t 312 315 334 336
t 312 311 317 335
t 311 318 317 339
t 311 335 338 339
t 317 335 339 336
t 311 317 335 339
t 316 315 321 340
t 315 320 321 341
t 315 340 337 341
t 321 340 341 342
t 315 321 340 341
t 315 317 320 337
t 317 322 320 343
t 317 337 336 343
t 320 337 343 341
t 317 320 337 343
t 318 319 323 339
t 319 324 323 345
t 319 339 344 345
t 323 339 345 346
t 319 323 339 345
t 321 320 326 342
t 320 325 326 347
t 320 342 341 347
t 326 342 347 348
t 320 326 342 347
t 320 322 325 341
t 322 327 325 349
t 322 341 343 349
t 325 341 349 347
t 322 325 341 349
t 322 323 327 343
t 323 328 327 350
t 323 343 346 350
t 327 343 350 349
t 323 327 343 350
t 323 324 328 346
t 324 329 328 351
t 324 346 345 351
t 328 346 351 350
t 324 328 346 351
t 326 325 352 348
t 325 331 352 353
t 325 348 347 353
t 352 348 353 354
t 325 352 348 353
t 325 327 331 347
t 327 330 331 355
t 327 347 349 355
t 331 347 355 353
t 327 331 347 355
t 327 328 330 349
t 328 332 330 356
t 328 349 350 356
t 330 349 356 355
t 328 330 349 356
t 352 331 358 354
t 331 357 358 359
t 331 354 353 359
t 358 354 359 360
t 331 358 354 359
t 330 332 362 355
t 332 361 362 363
t 332 355 356 363
t 362 355 363 364
t 332 362 355 363
t 337 336 341 365
t 336 343 341 367
t 336 365 366 367
t 341 365 367 368
t 336 341 365 367
t 341 343 347 368
t 343 349 347 369
t 343 368 367 369
t 347 368 369 370
t 343 347 368 369
t 343 346 349 367
t 346 350 349 372
t 346 367 371 372
t 349 367 372 369
t 346 349 367 372
t 348 347 354 373
t 347 353 354 374
t 347 373 370 374
t 354 373 374 375
t 347 354 373 374
t 349 350 355 369
t 350 356 355 376
t 350 369 372 376
t 355 369 376 377
t 350 355 369 376
