# CLOUD_GEN_METADATA
# generated=2025-12-07T05:56:43.038Z
# mode=smooth
# shape=cumulus
# resolution=64
# threshold=0.48
# scale=0.5
# octaves=5
# persistance=0.5
# lacunarity=2
# jitter=0.6
# smoothIters=5
# smoothStr=0.6
# vertices=643
# tetrahedra=1280
# END_METADATA
v 32.014442597512954 32.058887137353786 31.7586431541828
v 20.17076735526271 51.2115188041552 31.967522529503874
v 44.25202474002657 51.75660216215117 32.01089761306027
v 20.481419658742173 13.350573205506189 31.862148476795472
v 44.25236505033154 12.188872553774022 31.97348396475357
v 31.999755878452145 20.28115968397434 50.88138375119542
v 32.00482948201154 43.52428592415418 50.6156989978313
v 32.08288168233964 19.60086631844477 11.946980554205933
v 31.984073914537554 44.50570917300771 11.73996588889036
v 52.279006422959434 32.05110773276609 19.453477831176304
v 51.30025550877058 32.06450554105941 43.94764291450481
v 11.373577132007 31.98226420092401 19.217902416765096
v 11.76273148246402 32.08879347667469 44.50200726840347
v 13.012691876548775 43.815092767577454 39.42596244990686
v 19.83171934798347 39.58748605526844 51.48211376257345
v 24.675536178096504 50.850682334429194 43.62167947511757
v 39.48732468639962 51.24239131295416 43.83881369334414
v 32.00728527206022 54.50030462619884 31.843385653568337
v 39.34348195694247 51.22649330633623 20.13679781233675
v 24.383466980683362 51.99559574578411 19.561885791533346
v 19.679800406310825 39.77824200069409 11.93060833250093
v 13.845653117254681 43.33885776063518 24.895005006021613
v 7.641205493217129 32.004883548982434 31.91962768056671
v 43.92678273639607 39.37613512033218 50.9756832415999
v 51.367234169031406 44.04199392481052 39.30793743763677
v 20.241079719669482 24.730344272166153 51.069022837393476
v 31.97453369984804 32.064961032788304 53.913673961640065
v 12.709629608977414 20.11136877872044 24.467486065643453
v 13.409446563225412 20.540822005872116 39.13250762828851
v 32.09498584071342 32.11341234562397 9.009968774453556
v 19.987168788712587 24.777967148499446 12.645270064188248
v 51.41882473986931 43.93816801031909 24.67361879234579
v 43.779207223702365 39.15178989821701 12.884908913552934
v 50.2569796869293 20.75454801761104 38.94843078382369
v 43.77652273305117 24.705616109539335 50.935621305746665
v 39.437817229472635 12.745237015497528 43.84335655122532
v 24.944094793680968 13.740405122518364 43.364723492267274
v 32.13250035739403 8.87581915719975 31.830898654382818
v 24.565741679896263 12.568698778741 19.951617556424488
v 39.368143804273515 12.607521485339808 19.852464416710394
v 44.65363509349559 24.23109411545867 11.51193188996508
v 50.99064889733121 20.309193500512944 24.680330318904872
v 55.479210993463894 32.09377418216616 31.868633703610982
v 16.232610409519406 48.59338109044749 35.538299924986426
v 17.886774100643073 48.44621084737304 42.40751064527624
v 21.58399394574944 52.24682136012307 37.68898947134247
v 14.51350276823096 35.76694441557166 48.67614364793185
v 15.336097720104693 42.66221869066914 46.3257071912824
v 10.976494422999341 37.89567030756896 42.80972448613717
v 28.529884385608945 47.59858937659801 48.250295946747386
v 21.5514996121646 46.110489275181976 48.28549732985451
v 26.214927892491 42.29739233147874 51.99878244298809
v 28.42735379688268 53.40226323737378 38.011168909755575
v 25.284410084394576 53.84573563571818 31.90931165944322
v 35.579367521789976 47.71441981305829 48.32339605064576
v 32.04352379153578 51.25850047269783 43.63348191403645
v 38.871179985579666 54.16544546717868 31.959671019367736
v 35.600531387548486 53.61288217385337 38.079072887422214
v 42.60607303466303 52.6927837670799 37.85354002304608
v 28.36548106657573 54.47464281287057 25.464730794957255
v 21.54872877158953 52.542733175123864 26.09716635329669
v 42.58902596778519 52.58668721673843 26.17312346294548
v 35.68762597042825 54.47281723212409 25.51316454033564
v 28.262600031601064 48.84038775809928 14.349616517249222
v 31.959391016404048 52.765158662783165 19.399268157734447
v 35.45652760047478 48.224302581421654 14.991460955058923
v 18.051753857931597 48.518473383013045 21.457712897526985
v 16.52474183747114 48.407931746812544 28.526601192096035
v 25.976927725524412 43.05938639645727 10.601388724066492
v 21.252433532946363 46.71536505174621 14.884680759520412
v 11.51863749543044 37.63460155980841 21.453022700702988
v 15.797946334008964 42.49951040123316 17.768512584554138
v 14.595144060373336 35.62697278195068 15.212564820284486
v 12.968396341183691 43.536917659051916 32.06808822350783
v 8.24284156073725 31.984695474341404 24.70771202497694
v 9.71993513671264 38.073229535612946 28.35180296482736
v 9.642046944466777 38.15266712199843 35.67451684549787
v 8.860051708342276 32.04311036644271 39.05261899733481
v 46.20000131677305 48.65398646764458 42.50671602226432
v 48.511303656700065 49.26903474964477 35.591644384699556
v 37.69027760445545 42.17288385570589 51.722225030637226
v 42.47314343289497 46.14559756014289 48.23117660685581
v 52.32681795682578 37.80365988477946 42.36453475333824
v 48.35299519936842 42.456994084326425 46.01652444390705
v 48.994418952480245 35.603072626392866 48.206600464546945
v 25.739078484725606 35.61677510632607 53.68523031130967
v 31.97961559400658 38.590084480769626 53.413633127837855
v 15.010132731559418 28.544549621520243 48.22936366081564
v 19.757322579516906 32.1179360329887 52.13096485887645
v 31.965900559101495 25.42793780430896 53.32539053995058
v 25.764839080639227 28.462035065914463 53.7786914407136
v 26.28113415420675 21.663089564628567 52.23743612584275
v 9.694376418036105 25.833626749663498 35.53574933035074
v 11.583112078465307 26.380854891710566 42.44071725552176
v 10.74706908720922 26.193945944206366 21.05780245700835
v 9.248919768195721 25.7266331982018 28.159732036414105
v 16.493411907648937 15.83588311420983 35.3804148489224
v 12.343410170195499 20.12699644666836 31.89104185043412
v 16.083922548108543 15.332586766546205 28.33507925174216
v 19.252186098331652 32.06115243456372 11.003170026000397
v 14.320129927467342 28.38471833547466 15.030805277740152
v 32.050783844171804 39.1370839114544 9.170826795557495
v 25.532942194434852 35.84716809179989 9.353403024205269
v 26.355233907617265 21.702655475987065 11.79219503066107
v 25.613937636191665 28.450764833331114 9.775933608922427
v 32.079227627672566 25.141902195456858 9.761963112607736
v 42.019587225769115 45.56056500948726 16.206135779008267
v 37.67965936937632 42.428974621503805 11.46431771459774
v 48.561704777902676 49.231701435232296 28.370960480053203
v 45.90524477659037 48.14242053616295 21.78024919156829
v 49.28512225839306 35.52840759797154 15.431570559503538
v 47.91092069127953 41.99926800221922 18.327423173008764
v 52.93421406954578 37.75618346283321 21.333259783652064
v 47.84854485719049 15.329165612512028 35.42566882007215
v 45.68914884354938 15.924180723507364 42.1268693052201
v 42.629237396651924 11.304146629970237 37.78366642986361
v 48.832101422678 28.51267110034542 48.11315262783541
v 47.741524113556686 22.011916831713286 45.66111189901154
v 51.820749095651884 26.52044773578154 42.1443074411092
v 35.52740902919218 16.176224465843667 48.4303159984126
v 42.20607408238052 18.10820244686379 48.03452246484462
v 37.67304532926978 21.80614832949006 51.77016768387565
v 35.728223532949656 9.948174511994322 38.199744780680355
v 39.06635971503492 9.14803148241463 31.90892153070479
v 28.508619689052775 16.186547490391085 48.616339665468146
v 32.099940968262025 12.530039761582918 43.79175706357444
v 25.519305510095162 10.575310890037132 31.878986555946
v 28.568741603059653 10.693048094727466 37.95951725325135
v 22.12357139448244 12.738183542164887 37.409857925703754
v 35.75075656304202 9.08539060900248 25.41331451124553
v 42.474642414218195 11.519119905674541 26.240920598593853
v 21.596106660361215 11.7086907411171 26.106751059073506
v 28.445272443579498 9.59802495521942 25.481513666478403
v 35.75747708236168 15.219425472499928 14.29404727499468
v 32.04275717623415 11.247622148807315 19.364009610274948
v 28.51352014644144 15.69595947938856 14.947197141705068
v 45.83867431659279 16.015529838145298 21.684448622473436
v 47.9707691090893 15.306012242932926 28.46509466669022
v 38.15888725518715 21.04600305434275 10.571809325262725
v 42.76403755023547 17.53847250941175 14.88209264332559
v 52.661411859949155 26.306285280419793 21.39967506546915
v 48.47497941472788 21.57749218769809 17.62350495024214
v 49.43908095957177 28.39654608842932 15.19159517262694
v 51.613944084644565 20.17245010347689 31.931992341300518
v 55.05785552774253 32.103333067884236 24.84456511848812
v 54.224913032274245 25.798573512018248 28.338400906072668
v 53.899896902973595 25.896925489624785 35.49002429438746
v 54.080519053011116 32.03115632944543 38.668454290705355
v 38.10698164853695 28.49086011832366 53.12874476888074
v 44.119846112995596 32.01820001465003 51.71286325017077
v 38.16656624760801 35.58884720418559 53.33573530533925
v 18.468849100553392 16.384718737461906 42.01391110220647
v 21.78395328124397 18.196305735394198 48.20216546089007
v 15.997427822786623 21.860103738183497 45.84169267557593
v 21.793579987433755 18.219120693081777 16.002021464797895
v 17.810300763581587 15.506915951622322 21.52910710245701
v 15.490504918313828 21.62388892809799 17.832191363706706
v 44.814536355024906 31.915410803097576 10.835378203233741
v 38.718648028714334 28.262962061459607 8.974066625024054
v 38.52393284391836 35.687652562024 9.179234894519043
v 54.589495760416014 38.46298658628961 35.49850826855961
v 55.14300482061889 38.57543626956817 28.158695835478962
v 52.93169395192469 44.663141365525725 31.90665831504033
v 18.144561704553208 50.38499424931376 33.60471328951269
v 18.616275872782747 50.69496533488636 36.88094326427406
v 20.591746651468696 52.044011768450076 34.58307345409827
v 15.143908548256668 46.33114327571894 41.07716029927268
v 16.75616273957051 48.745547271442256 39.030634585328606
v 14.522089373134524 46.372317508190704 37.50420563745919
v 22.961580931944734 51.856982415225026 40.77474415864631
v 19.62803122969683 50.641722187561555 40.1637326873007
v 21.133205259831445 49.992428463405986 43.276032661480244
v 12.590543082542574 33.76649687287429 46.67982667449056
v 12.458782457201817 37.116263777980286 46.00113178846784
v 10.88293185442964 34.76131383880959 44.03439031550498
v 17.37935901777477 41.3133471296919 49.24536922233544
v 14.674195487238674 39.30800186551818 47.79916345890126
v 16.966874345634384 37.75851501952859 50.32858576490837
v 11.769224204860596 40.962176024997014 41.22201386397408
v 12.885147765649029 40.411806348575084 44.68459249132452
v 13.825927885115808 43.51921255354517 42.99318369114324
v 30.424786016521768 45.60663418514428 49.9113388821625
v 27.11928014853603 45.165060694079585 50.29432428558163
v 29.381402166765547 43.13810896533609 51.53349225012529
v 22.990688063168893 48.74823935509992 46.05955605598707
v 25.006299479258626 47.08654274846326 48.4244416994481
v 26.583126312535455 49.36773580009198 46.11689447005053
v 22.97431350043896 41.12189035241803 52.026311765068506
v 23.75131009395455 44.32002426870761 50.485088076768
v 20.45897169705404 43.02678551054748 50.17174480091717
v 16.439720794795786 45.74928582799619 44.47989326497456
v 18.274747210290588 44.60507044814546 47.57736566251525
v 19.554478827709875 47.53838000388837 45.542296294627
v 23.545346934928872 53.24926753894722 34.9213529217184
v 22.24780259546594 52.87656354035275 31.94504572259705
v 26.52578782675933 52.376374723432804 40.93691417772802
v 24.925615509151097 53.10199444314249 37.987412213477526
v 28.597134225865087 54.316916840601564 31.86429073182737
v 26.844923500260197 53.841369078476085 34.98040057106477
v 30.263472969163104 54.05598116969509 34.95615046055238
v 33.63297145154338 45.61093735782233 49.88552963970288
v 32.06035700551965 47.792436188943675 48.16303386277949
v 35.77600765508735 51.385929442403054 43.758190944414984
v 33.90113319981469 49.709287921471336 46.118223638849024
v 37.57149371144374 49.6395292231503 46.30314936645728
v 30.23185139826629 49.60381072689536 46.0443629938324
v 28.33926409776625 51.14945107009256 43.63681989214292
v 42.020939362600394 53.31402401145461 32.00498250114562
v 40.62706083715434 53.654297998728076 35.035328011715734
v 43.7180068261372 52.540583883688896 34.69171800128906
v 33.74132532838124 54.14567816279537 34.97971787335251
v 37.230482920681716 54.110262766363 35.05651699000544
v 35.46338000720341 54.48533822976173 31.8865214199046
v 41.18977163070596 52.29574290523247 40.974992321304384
v 39.18033802217235 53.48055761072145 38.12608202914157
v 37.568683681285954 52.714896818459046 41.07212998155069
v 30.172880019367323 52.507024020398994 40.921409195649254
v 33.86239023860862 52.62993942146653 40.96351322493673
v 31.995480997707748 53.5039512318817 38.00370081321434
v 23.525119608823044 53.45741625068963 28.89759744262058
v 20.628860991227363 52.06979464679379 29.32656422697279
v 30.260864487850725 54.68048428441927 28.66749238275876
v 26.812679939093762 54.279452710118946 28.734611811484086
v 22.78441072396646 52.60856031888618 22.759408430795162
v 24.82437131250393 53.79216074630648 25.63743646121562
v 26.34561786117878 53.627392354044 22.36763710251457
v 43.72669035217696 52.48687384308695 29.33531501077329
v 40.670522669676465 53.729523516440715 28.92863934570907
v 37.59194384404936 53.29283856810787 22.61223335752922
v 39.23842968171829 53.76824987321631 25.732234228308073
v 41.10845779503404 52.186475105955545 23.050977650093945
v 37.30134269906298 54.46270017591277 28.751578443330022
v 33.787277929918055 54.74844117560201 28.669102022075272
v 30.2824568096044 46.71340855471731 12.524372233700849
v 31.914810594114353 48.894401054173905 14.598804603101838
v 33.58032548617953 46.46032839560211 12.826467103852892
v 28.12102394670829 52.69994744711275 19.331108605926154
v 30.02534999993272 51.04124099974455 16.743445392194065
v 26.254869600515384 50.67351523849904 16.71984224477199
v 37.40509060935728 49.827030105259055 17.473026500614072
v 33.78989738471987 50.72194877253476 17.02874250918687
v 35.73262157852904 52.23106332336521 19.694292072546702
v 32.02134051206161 54.70184238280291 25.42607840601041
v 33.894511156017465 53.93856647738745 22.34753030577504
v 30.101845358100217 54.05627941714897 22.257150938462264
v 18.751677329552955 50.679374996116685 27.06310741865663
v 18.22316016265268 50.33487008886038 30.379756441285547
v 20.95276500081953 50.601405157377314 20.23300156012793
v 19.643486939738278 50.89704009122405 23.627185251071758
v 15.132498806476937 45.98874853092135 26.696287565419045
v 17.11410448195122 48.57871837650759 25.00792458238955
v 15.765829116543138 45.976038854796215 23.10191352889585
v 29.265340014005716 44.115526403575146 10.799357257493156
v 26.85731695447181 46.175602700052345 12.231258622911996
v 20.242983855654437 43.41290785967215 13.113237840897787
v 23.42739531845491 45.042812562199714 12.361819658510825
v 22.699374658149207 41.60021502281424 10.955815980343722
v 24.651932250884354 48.084202836151846 14.370592071550735
v 22.662779104946516 49.624022366228644 17.08301575181545
v 10.917549600252972 34.60638508861247 19.973215494638534
v 12.921260710498796 36.90116632324446 18.194604212226654
v 12.499119255859188 33.6268153555377 17.149909983303132
v 14.613348069060116 43.11346357072386 21.303804872663747
v 13.662754926638883 40.087609817798494 19.65869408423058
v 12.596623627528118 40.5644452603953 23.13499445533068
v 16.999283658874717 37.7230113986267 13.438995994935121
v 15.114944762127555 39.14932943326282 16.337433190062722
v 17.48336789529123 41.37647405193008 14.534140362427136
v 19.441909543243682 47.912464998981456 18.00401021352461
v 18.264996225307822 44.79582767593346 16.058739887404275
v 16.77101402767823 45.6461077052008 19.49373731228157
v 16.207476197419684 48.381877314690705 32.022841747793755
v 13.323878114107023 43.41824531630175 28.46358404929961
v 14.703898797429556 45.9943114213397 30.260064685311495
v 14.45653358006469 46.154113529110596 33.86575102330595
v 12.813090904991775 43.72169635279486 35.74623751400704
v 9.480784594214708 31.976978612464837 21.47962608699615
v 9.477095559150012 34.96986339637399 23.093949347990527
v 8.114303176541979 35.14069361743684 30.108606321548375
v 8.518908210533855 35.10437429423061 26.509403349540246
v 7.65827583859827 31.999538472017097 28.256505588460698
v 10.425285499219752 37.95583440198401 24.840681770229086
v 11.84305460332742 40.75454142025724 26.646701893700616
v 9.60393167047039 35.090215385921546 40.88322608469773
v 10.015603038900597 32.074805140178405 42.272622545613245
v 11.285417359515202 41.050163735308615 37.58319512071288
v 10.109627662664074 38.15130621694435 39.30986207342236
v 8.077370561024008 32.01258240145043 35.549084013577065
v 8.778820167431153 35.14426467752513 37.395868904172936
v 8.249051147430604 35.1399957982797 33.778306540581255
v 11.366161646801412 40.85152013835311 30.2207449920256
v 9.470175223628706 38.11699106841907 31.99110864630746
v 11.18560000137939 40.95307861649442 33.88577896165034
v 45.73108728546148 51.186350738854685 37.01159516096936
v 46.45238116725154 51.043761218757695 33.66220359514511
v 43.021416448474525 50.36151581199676 43.489516661499955
v 44.552743490044215 51.03966084744368 40.3435889381168
v 50.17176908797491 46.87341012572145 37.50056868126588
v 47.54138230811096 49.104760808495435 39.122335047013465
v 48.97396360999077 46.44539165572197 41.03668870538365
v 34.58280592863445 43.078339960468035 51.404792945108966
v 36.878965581565154 45.14593665482035 50.1783801759258
v 43.39890001177383 42.848742502469655 49.812954625613514
v 40.18808441472021 44.22977020246561 50.24048580907418
v 40.87603356124182 40.94761764976351 51.61665940218196
v 39.07710265507921 47.22319432101625 48.478884928146435
v 41.16035487086352 49.03902374955309 46.25086432825248
v 52.122460606200185 34.680820133907616 43.45678642277419
v 50.82280419238465 36.964352889819075 45.49438937572133
v 50.67926619254423 33.67511341655341 46.17315201800498
v 50.00885275975951 43.4247895865257 42.776388266130276
v 50.62761379137257 40.24025106709975 44.302821538119886
v 52.08062943163108 40.96857120571566 40.9519933836278
v 46.6776030399801 37.54867383492656 49.81668793195926
v 48.844160691205985 39.091279246703195 47.339523213037815
v 46.329376240403974 41.080380767166666 48.814608016327036
v 44.50453332690813 47.67732486393507 45.615596811445435
v 45.60830526340521 44.48601678368028 47.381663419097364
v 47.465786417643045 45.698962096051616 44.38422637862554
v 28.98469409449869 40.301791073661654 52.902897697690655
v 31.9754161729766 41.48093599963916 52.30035347271271
v 22.664770372600447 37.61527772382563 52.89982383543016
v 25.830340657591954 39.0697536304828 53.12297483358273
v 31.990266132895346 35.397612837268134 53.89460474323791
v 28.88630273036518 37.12324179418469 53.700349575742464
v 28.872820562480758 33.765409331099676 54.01196609203135
v 12.848179062359442 30.46020387440124 46.488983864084965
v 14.703684045455336 32.131885096218454 48.79518306780855
v 19.957438057394693 28.36101260555314 51.77138701452754
v 17.229607337136898 30.267595839146857 50.42950409068002
v 17.52841469837778 26.611562255039967 49.74238895741262
v 16.987427791341336 34.029960005235 50.69072987134154
v 19.656083425942093 35.90720447207133 52.097303734964434
v 31.986633774881007 22.413114534787283 52.42633774463119
v 29.00334664595058 23.655588941997365 53.0669493907351
v 29.393093463882458 20.6879087277756 51.84805766325538
v 28.86242896631003 30.328422262435133 54.0255245912501
v 28.877916019551787 26.923002712660967 53.75953104203835
v 31.95941102550766 28.705550689713263 53.73757034736801
v 23.170711924426715 23.031078873989934 51.98628926037223
v 25.892053002101555 24.97924335853653 53.26404359583488
v 22.84480373761043 26.550379839565995 52.807224461391115
v 22.631236757329155 33.937576764332 53.22439339051145
v 22.70317667558675 30.209171825329573 53.1877172925157
v 25.735223743976626 32.04516181168731 53.88183446133363
v 9.88851538018917 29.06210232941773 40.71145411198222
v 11.25500852046093 29.44365733538496 43.80199263255335
v 8.297684400033425 28.8491918036361 33.73084203923419
v 8.911484031873645 28.912980556155077 37.303936461660356
v 12.344391680050652 23.373993275156106 40.853583955521536
v 10.452264944952265 26.00498757244532 39.06618455737268
v 11.443896181932237 23.05378592816758 37.348795014005965
v 10.53557316691633 29.32598323952351 19.746104629082538
v 9.07698587039216 28.94875830338299 22.89971130388935
v 10.844552926267204 22.813726825780783 26.279785041006143
v 9.680196941610628 25.82779141955103 24.523952401294522
v 11.53821275925971 23.071706103768005 22.679665806590698
v 8.261132415023098 28.833326920849775 26.396506341980157
v 8.056030678959361 28.822416820458994 30.054003720468167
v 18.463914426357242 14.153879869978194 33.4653514518816
v 16.077966084762124 15.659482762842815 31.892125104552772
v 18.24920832238621 13.84353225931234 30.25938647992352
v 12.699376391136932 20.286976224841837 35.571235540721595
v 14.226710039515881 17.810096909344068 33.73487530677979
v 14.783122460637415 17.989732366766226 37.29853546853138
v 14.22818183089171 17.473547861282594 26.376133178173706
v 14.034788019487767 17.625915014975956 30.056923232345596
v 12.313197498837521 20.035242140017925 28.14689688421558
v 9.296632988485458 25.746181001961283 31.873260847836086
v 10.696563631107479 22.789299176039783 29.998557833501287
v 10.904801948233915 22.878100700297754 33.724391573937766
v 14.270867740378755 31.992958692132756 14.664774091766825
v 12.291452569484672 30.332968496704137 17.006447247177956
v 19.383704951131943 35.94382986719707 11.238324605900283
v 16.657616157769024 33.9329787627396 12.750483743394724
v 16.942871156426726 26.499453202177385 13.554350786292677
v 16.584193959448868 30.132280000305162 12.718519370855791
v 19.426628901934624 28.290026688920744 11.444871892003354
v 32.01006538539938 42.3232467751887 10.051006688901737
v 28.895616779225616 41.01549878023961 9.601457741587108
v 28.823901852695098 33.916939191675226 9.102001677085036
v 28.818162179593887 37.52305161423881 9.126390257416004
v 32.08815833627545 35.653130120898446 8.907944411097214
v 25.61293459358553 39.5558312133877 9.684490818880688
v 22.396554681517447 37.86395728866054 10.199207226548527
v 29.441012101244684 20.355140005822186 11.572411814538556
v 29.039878173049125 23.45586736991022 10.471959318541348
v 32.08048069070854 21.895649529637296 10.502620858722075
v 22.610325770638685 26.57042312561383 10.821926191483175
v 25.862544755375687 24.986026201052486 10.59463898242246
v 23.186894043855744 23.198036138524046 12.140221839826976
v 32.082679851384015 28.599094109510695 9.320787963195029
v 28.88040588060698 26.824813301313426 9.770024976319052
v 28.83169928458292 30.32794008876463 9.327651832472519
v 22.290100057339345 34.011239314644484 9.90276575925474
v 25.53311994585637 32.104242736418435 9.382816320128555
v 22.32411667371592 30.194327493091567 10.057545333705523
v 36.78963456704471 45.44622324736549 13.13207846744455
v 34.62678136293746 43.79862322989738 11.216895549251943
v 40.834438223965826 48.568567822486465 18.0395823726295
v 38.81754306862053 47.03062775289717 15.511243425829939
v 40.73999249274464 40.83591266133993 12.074050817372324
v 39.919054215828695 44.0054390349194 13.721631117368922
v 42.97130082476213 42.398543684142105 14.508130177789218
v 46.46516779751506 51.012147021054794 30.345958886544253
v 45.71052398451326 51.026726901762295 27.031447033440664
v 48.785849835517915 46.1375516010064 23.121575487600655
v 47.469257616134556 48.86348261732019 24.96109431305494
v 50.23541986394525 46.825622101771806 26.456584742385107
v 44.41039821214974 50.679595954611756 23.801966762282873
v 42.75204714380139 49.86203699253281 20.781814109260388
v 51.35490397768789 33.65462394208194 17.326057233054588
v 51.20076476775777 36.858764091140706 18.24778339342873
v 53.064932770262565 34.68144926603813 20.012974382278458
v 45.93629458452423 40.678529595889174 15.472172732851297
v 48.71701323938251 38.83518784872847 16.705291194363312
v 46.69062765155696 37.38240498621802 13.956113771010104
v 52.29626153013066 40.85289041509124 22.961337814535053
v 50.58170945354708 39.98099991611709 19.746195766400533
v 49.750000643227 43.08191414493163 21.416804105793215
v 44.05416364250136 47.01682280652644 18.854394025658213
v 47.01215899217019 45.15396130336775 20.00675109306341
v 45.06230046224528 43.87962777162493 17.135349229711476
v 46.1921626111971 13.206002971239354 33.58650081925782
v 45.50248550436265 13.104345655564005 36.85747302115421
v 43.75835729254728 11.36822250845291 34.62205271226608
v 48.11455536219056 18.30700731896464 40.61393733895244
v 46.96701617986425 15.49404752318824 38.823078254916844
v 49.15773027361174 17.93882186089726 37.21443511650857
v 41.172513557516794 11.748915731060716 40.938038896633024
v 44.33015509054328 13.30456247957738 40.13243409849042
v 42.784622467661826 13.957942984130694 43.25956597943284
v 50.576279641267554 30.444502686528622 46.1184341477534
v 50.46390581138003 27.274902569235977 45.30457809911222
v 51.922646140200854 29.488119243767276 43.35903069918897
v 46.00192480994572 23.14804248182785 48.64315787687583
v 48.45574814732916 25.17452635952831 47.12035666562303
v 46.503864495898995 26.56310093239863 49.72654664911413
v 51.200320350946726 23.611571893783243 40.6255529398673
v 49.953045087381156 24.219356018115576 43.96271244897161
v 49.10846419257522 21.259478864179865 42.33891982436985
v 33.60238965118314 18.211946252320153 50.10613173645039
v 36.839553367792874 18.819345546237802 50.251667065421685
v 34.58620436851446 20.809003148209275 51.5367919469942
v 40.953814698248614 15.170480299551892 46.070216547327675
v 38.95250934096805 16.8629206442931 48.413615964530216
v 37.511638713181455 14.290082256260025 46.34153352074275
v 40.793192066578165 23.091108768883714 51.62964768601582
v 40.081014562091134 19.84665966448014 50.235611653677815
v 43.178041044379405 21.308675303373906 49.73057119922494
v 46.78969397440785 18.91858458120652 43.95058505762232
v 45.1663359965688 19.894603250981792 47.08792529990822
v 44.084600422861556 16.7755115341662 45.263505860997675
v 40.79494923237033 9.93933032456907 35.0066731910986
v 42.173070274103125 10.308810483663269 31.96010005501189
v 37.6469422384915 11.044122366116852 41.20731527889268
v 39.30110356083534 10.238251988127217 38.173539987187795
v 35.628719900482686 8.698709686604344 31.850405040771015
v 37.40634904432612 9.266648640413141 35.08011782821709
v 33.87504934741661 9.231514462665555 35.029686871291844
v 30.39378646187368 18.130567688770885 50.29177957744645
v 32.01936219880461 15.958819971545102 48.4573927141335
v 28.44954663281332 12.995964095828924 43.612677812118996
v 30.241578524443664 14.227410867704618 46.26981528446896
v 26.6668516503332 14.747563123488261 46.20474355775687
v 33.895070259775586 14.050622085224399 46.31816814515901
v 35.815559223925085 12.355250275670194 43.93352212444202
v 22.581429044957254 11.774162258638695 31.86928367290556
v 23.931305958628627 11.500739897952352 34.791442292257074
v 21.08346455453737 12.8117738764022 34.41949554753291
v 30.37527834662819 9.636718858984315 34.97698865821116
v 27.042671967397162 10.415563689782786 34.9288307552248
v 28.733513642424086 9.570125189920985 31.858094852758438
v 23.407039826303578 13.04669798936963 40.40572833435632
v 25.24792658379104 11.555057474409645 37.785915068892045
v 26.747916376816224 12.087309226271438 40.734090999452924
v 33.954456081404814 11.054072731220677 41.12861030995281
v 30.27563090519268 11.444350701451487 40.94221791230936
v 32.09766506157742 10.164118892221403 38.08572494418269
v 40.76905201712058 9.882585683969877 28.893328745547876
v 43.70608857772498 11.466296650780585 29.347954864908143
v 33.90677915723728 8.558875889073999 28.589844439058265
v 37.43179697257944 8.86302622553754 28.66672894088154
v 40.975125457894016 11.944587576348603 23.06079698065682
v 39.2400742168244 10.009391883600347 25.6933776841937
v 37.58516139702048 10.559422402896846 22.498736515445923
v 20.769904925944275 12.27227796317715 29.25910337838015
v 23.704632624705958 10.962963147745299 28.88834181948233
v 26.437004191057323 10.730205129428755 22.517375578499713
v 24.928031463523354 10.544891963017193 25.6938266489538
v 22.871511991938696 11.769173010406158 22.924003863100282
v 26.949163965646292 9.894592618286577 28.73783379360576
v 30.36730667877292 8.990383960924209 28.634253867475735
v 33.7755301374911 17.310386600191972 12.529890839001649
v 32.09646047055337 15.093598357702989 14.545707340302553
v 30.45483757145999 17.57309817438304 12.921135946565103
v 35.81396417442894 11.546313925982023 19.42870049609109
v 33.9559363545801 13.04742887582664 16.718827393040957
v 37.64660138431196 13.636960988400581 16.815729950475006
v 26.51035563711062 13.97382485121079 17.309519745554024
v 30.18054510451422 13.20163438347835 16.927268083302707
v 28.237191047974534 11.661754084117689 19.566867143084483
v 32.093692498715775 8.982262223540687 25.36572854567397
v 30.159224743523264 10.013093124042515 22.29384064398043
v 33.94139710176217 9.87742620330797 22.25538802567082
v 45.42634847585955 13.311799120320043 27.139202618840944
v 46.18793425524718 13.251594446665209 30.362755502108687
v 42.694755590719 14.197539375586018 20.624530705811317
v 44.1594769424707 13.675836464433734 23.913335509028343
v 49.5976732014429 17.68053995849504 26.547608183597305
v 47.10358615140063 15.557554470504298 25.063949191239363
v 48.6598301081307 18.021649259680274 23.038765583875595
v 34.81596284349159 19.999249396097902 10.952329591348917
v 37.22830159156896 17.86145122210587 12.172419000920875
v 43.980547837939824 20.67149799538707 12.871551501595224
v 40.71400198863434 19.027176589399527 12.217829332407465
v 41.55133656283843 22.457427275354956 10.667244888713762
v 39.35173021662748 16.07904942784076 14.3514090147185
v 41.133710415811024 14.9071530958964 17.308130751506567
v 52.881288077783324 29.414702229288807 20.094734260687954
v 51.17886438308255 27.11567929474805 18.177764740246808
v 51.31256667153155 30.400335772506835 17.32982639385807
v 49.8991466164573 20.795922450447758 21.144073083433415
v 50.716977288802155 23.87076884299225 19.508556631793233
v 52.01387321253535 23.21780830763587 22.94937646270931
v 47.25132027981727 26.28385590014419 13.145718875904262
v 49.12176548409109 24.89033588455509 16.162033466600928
v 46.786970640755875 22.68972152150562 14.262902405567438
v 44.40019068999271 16.623262767799698 18.216428512154216
v 45.847653246299174 19.42275155470616 15.993837490574304
v 47.36340469237795 18.59809231167775 19.516632481638684
v 48.22441263575033 15.26662643454676 31.949038956946648
v 51.57584451358345 20.117583518413447 28.285891319939658
v 49.99436437345231 17.596064851531967 30.12715842274268
v 49.82225577759924 17.708504147987195 33.719211153152756
v 51.14564794910108 20.3994483331383 35.503382046280585
v 54.02910046205737 32.071514645383125 21.669096623955056
v 54.15854394900693 29.0411613860977 23.18658796970886
v 55.11288410053956 28.90302596767869 30.141326428761655
v 54.86645134593153 28.92765602387798 26.59474758899013
v 55.50861107741629 32.12165508338523 28.32010077002373
v 53.699808396956286 25.920269102861294 24.791017284025113
v 52.83907723509797 22.904826519993932 26.489415055420224
v 53.22792905596484 29.1002391268279 40.34170466374412
v 52.88504688749423 32.05565474909334 41.730090090342905
v 52.25840169167891 23.214919255109415 37.246742075300226
v 53.01258142535048 26.112006512115492 38.87511219684291
v 54.97613394394385 32.043966828608106 35.34748202727735
v 54.28133205218467 28.936507501970727 37.09923802925568
v 54.93495181105358 28.894296597381928 33.68328974197514
v 53.14550305334533 22.844879150578375 30.124610752410796
v 54.30473610551726 25.802958134041095 31.949405619327557
v 52.95143384764049 22.96001473247178 33.74845267889031
v 34.94230935459537 23.73495904272867 52.709800686300134
v 41.0924930953821 26.551372527621563 52.3796044529829
v 38.029051494364225 25.05090632169618 52.73733337595038
v 35.02802037646906 26.969788823410486 53.31376078417172
v 35.03933636523926 30.351270128011397 53.56858042279146
v 48.96883414391233 32.030897351327674 48.48747874681502
v 44.11633750452181 35.75417881556767 51.58724098880009
v 46.769076173834314 33.88086235313596 50.287950221663024
v 46.71823299446943 30.168776032609728 50.25564012832452
v 44.03471296667254 28.295385027457883 51.53470583992517
v 34.94779039767819 40.24262325122339 52.773226726549545
v 35.069620772431485 33.77288927828174 53.72916965979034
v 35.073042926326465 37.1097370232045 53.58018510917013
v 38.07418648439248 38.982543340088064 52.85919829599997
v 41.17357937040073 37.494151758951595 52.462609243646966
v 41.17260182071631 30.17672509860128 52.629438618337886
v 41.212303654694814 33.87107907799145 52.69899451581769
v 38.13274131109623 32.04350443928678 53.294215473356836
v 19.1695010525712 14.163533523047608 36.63969733655221
v 21.597409625018223 14.858649440168323 42.87738826428514
v 20.231444146871656 14.34848912622473 39.77995256388741
v 17.30203654145739 15.99686932541306 38.74259445520109
v 15.712261665847102 18.2996853159013 40.742349610639714
v 27.13251021184925 18.657839737087226 50.669257486585074
v 20.786869701311694 21.284062465636918 49.93133048429101
v 23.87911987728611 19.74035949649222 50.61907868436809
v 25.074556718969205 16.926901066683765 48.637765714452115
v 23.228153333148594 15.694852236282616 45.916593047319935
v 13.105081349814602 27.19198895555414 45.548836246312355
v 14.489209412948698 21.012300010575554 42.58658896951052
v 13.637549739303328 24.009516211170496 44.19814770614905
v 15.386592143330718 25.10538057281932 47.20760208014912
v 17.94851084524712 23.12588157964351 48.71127594926088
v 19.973162735850664 17.103321307702934 45.221887952363616
v 18.724025104720425 19.894534990324647 47.22825112237746
v 17.01926226838937 18.906264325284788 44.08856983930762
v 27.2112302913524 18.57793442925809 13.262015382571539
v 23.010150141175828 15.1503096537043 17.83107397459192
v 25.098045959391843 16.82100579857829 15.418364770259155
v 24.010607079691134 19.95605591054217 13.72105887175883
v 20.811151496979313 21.466788463000686 14.278521771908451
v 18.597244779946397 13.298623863070187 26.96008496277396
v 14.989343566803042 17.63878527789523 22.84076401264654
v 16.61104459224975 15.128148961667085 24.829779199919447
v 19.53525284435094 13.188644627138395 23.661459612001018
v 21.066696922732568 13.83111374358969 20.57438470031496
v 12.364392896363343 27.023654881515778 17.854910396476264
v 17.64637423771401 23.096856563511025 15.046228305637351
v 14.766540460478073 24.934621526237724 16.220541521264746
v 12.89134028648589 23.752996848596005 19.292426541921987
v 13.755528811160087 20.58836891847053 20.985274396521238
v 19.63860445345495 16.62193091978834 18.576585484642546
v 16.477549715278712 18.423370135897205 19.608038966681452
v 18.53857816017255 19.80180186520697 16.771142113798167
v 49.50721036823787 31.998575617857668 14.890269865911687
v 44.89768527013028 28.031348899747226 10.829813874907583
v 47.383526678986 30.04998523888749 12.67659031049495
v 47.200272026322594 33.82224634464733 12.94421081261116
v 44.422440298450574 35.67837099183652 11.558371543342215
v 35.21432462346197 23.20347232396107 9.882456411915896
v 35.38251216430482 30.27560105701125 8.884489963533733
v 35.346496931308884 26.703420066112866 9.274436497682233
v 38.585369422213454 24.58358710466949 9.553684308827421
v 41.916695874725185 26.16495604147844 9.743057683184746
v 35.06931231373653 40.78681164752628 9.857797031158118
v 41.35064797732312 37.47856581862215 10.653578816035367
v 38.206257947323444 39.180558822878886 10.10093366927718
v 35.27347931309625 37.417869685789846 9.05473705668074
v 35.36523965186584 33.872714189643965 8.762135411973912
v 41.969744615212974 30.0032324526281 9.403461154483292
v 38.69316307411165 32.00045540057863 8.80748816170178
v 41.772872650899416 33.83937429577664 9.703202600845822
v 53.43156758618305 35.04801881106154 40.411301402766895
v 55.30850059316653 35.3033628414346 33.62133111510234
v 54.50368798685171 35.19489240321077 37.09895556946237
v 53.56938717524711 38.22366901641357 39.007979964982
v 53.28082491661997 41.41451366650444 37.43504710550464
v 54.505642770769356 35.1278868673984 23.06074006596059
v 53.66657894922103 41.46096916805446 26.35498809692612
v 54.32410315886981 38.301678923836896 24.633130348718115
v 55.376340302871725 35.32992151808603 26.455335700828766
v 55.646779520156215 35.372588524455736 30.02735415151784
v 48.92241700453444 49.32398918676685 31.966717120685026
v 52.42271250556559 44.45841084616495 35.67646388979338
v 50.950717564103805 47.13975606592273 33.80989700278491
v 51.022601681816056 47.16527350791558 30.056708161956475
v 52.59520599564189 44.4996787968594 28.169553286889943
v 55.2104321475785 38.60573038933263 31.843598137348966
v 54.332594420250835 41.748033045131216 29.998566244566494
v 54.13614515664478 41.69809521746484 33.762746901326736
t 1 163 165 0
t 43 164 163 0
t 45 165 164 0
t 163 164 165 0
t 13 166 168 0
t 44 167 166 0
t 43 168 167 0
t 166 167 168 0
t 15 169 171 0
t 45 170 169 0
t 44 171 170 0
t 169 170 171 0
t 43 167 164 0
t 44 170 167 0
t 45 164 170 0
t 167 170 164 0
t 12 172 174 0
t 46 173 172 0
t 48 174 173 0
t 172 173 174 0
t 14 175 177 0
t 47 176 175 0
t 46 177 176 0
t 175 176 177 0
t 13 178 180 0
t 48 179 178 0
t 47 180 179 0
t 178 179 180 0
t 46 176 173 0
t 47 179 176 0
t 48 173 179 0
t 176 179 173 0
t 6 181 183 0
t 49 182 181 0
t 51 183 182 0
t 181 182 183 0
t 15 184 186 0
t 50 185 184 0
t 49 186 185 0
t 184 185 186 0
t 14 187 189 0
t 51 188 187 0
t 50 189 188 0
t 187 188 189 0
t 49 185 182 0
t 50 188 185 0
t 51 182 188 0
t 185 188 182 0
t 13 180 166 0
t 47 190 180 0
t 44 166 190 0
t 180 190 166 0
t 14 189 175 0
t 50 191 189 0
t 47 175 191 0
t 189 191 175 0
t 15 171 184 0
t 44 192 171 0
t 50 184 192 0
t 171 192 184 0
t 47 191 190 0
t 50 192 191 0
t 44 190 192 0
t 191 192 190 0
t 1 165 194 0
t 45 193 165 0
t 53 194 193 0
t 165 193 194 0
t 15 195 169 0
t 52 196 195 0
t 45 169 196 0
t 195 196 169 0
t 17 197 199 0
t 53 198 197 0
t 52 199 198 0
t 197 198 199 0
t 45 196 193 0
t 52 198 196 0
t 53 193 198 0
t 196 198 193 0
t 6 200 181 0
t 54 201 200 0
t 49 181 201 0
t 200 201 181 0
t 16 202 204 0
t 55 203 202 0
t 54 204 203 0
t 202 203 204 0
t 15 186 206 0
t 49 205 186 0
t 55 206 205 0
t 186 205 206 0
t 54 203 201 0
t 55 205 203 0
t 49 201 205 0
t 203 205 201 0
t 2 207 209 0
t 56 208 207 0
t 58 209 208 0
t 207 208 209 0
t 17 210 212 0
t 57 211 210 0
t 56 212 211 0
t 210 211 212 0
t 16 213 215 0
t 58 214 213 0
t 57 215 214 0
t 213 214 215 0
t 56 211 208 0
t 57 214 211 0
t 58 208 214 0
t 211 214 208 0
t 15 206 195 0
t 55 216 206 0
t 52 195 216 0
t 206 216 195 0
t 16 215 202 0
t 57 217 215 0
t 55 202 217 0
t 215 217 202 0
t 17 199 210 0
t 52 218 199 0
t 57 210 218 0
t 199 218 210 0
t 55 217 216 0
t 57 218 217 0
t 52 216 218 0
t 217 218 216 0
t 1 194 220 0
t 53 219 194 0
t 60 220 219 0
t 194 219 220 0
t 17 221 197 0
t 59 222 221 0
t 53 197 222 0
t 221 222 197 0
t 19 223 225 0
t 60 224 223 0
t 59 225 224 0
t 223 224 225 0
t 53 222 219 0
t 59 224 222 0
t 60 219 224 0
t 222 224 219 0
t 2 226 207 0
t 61 227 226 0
t 56 207 227 0
t 226 227 207 0
t 18 228 230 0
t 62 229 228 0
t 61 230 229 0
t 228 229 230 0
t 17 212 232 0
t 56 231 212 0
t 62 232 231 0
t 212 231 232 0
t 61 229 227 0
t 62 231 229 0
t 56 227 231 0
t 229 231 227 0
t 8 233 235 0
t 63 234 233 0
t 65 235 234 0
t 233 234 235 0
t 19 236 238 0
t 64 237 236 0
t 63 238 237 0
t 236 237 238 0
t 18 239 241 0
t 65 240 239 0
t 64 241 240 0
t 239 240 241 0
t 63 237 234 0
t 64 240 237 0
t 65 234 240 0
t 237 240 234 0
t 17 232 221 0
t 62 242 232 0
t 59 221 242 0
t 232 242 221 0
t 18 241 228 0
t 64 243 241 0
t 62 228 243 0
t 241 243 228 0
t 19 225 236 0
t 59 244 225 0
t 64 236 244 0
t 225 244 236 0
t 62 243 242 0
t 64 244 243 0
t 59 242 244 0
t 243 244 242 0
t 1 220 246 0
t 60 245 220 0
t 67 246 245 0
t 220 245 246 0
t 19 247 223 0
t 66 248 247 0
t 60 223 248 0
t 247 248 223 0
t 21 249 251 0
t 67 250 249 0
t 66 251 250 0
t 249 250 251 0
t 60 248 245 0
t 66 250 248 0
t 67 245 250 0
t 248 250 245 0
t 8 252 233 0
t 68 253 252 0
t 63 233 253 0
t 252 253 233 0
t 20 254 256 0
t 69 255 254 0
t 68 256 255 0
t 254 255 256 0
t 19 238 258 0
t 63 257 238 0
t 69 258 257 0
t 238 257 258 0
t 68 255 253 0
t 69 257 255 0
t 63 253 257 0
t 255 257 253 0
t 11 259 261 0
t 70 260 259 0
t 72 261 260 0
t 259 260 261 0
t 21 262 264 0
t 71 263 262 0
t 70 264 263 0
t 262 263 264 0
t 20 265 267 0
t 72 266 265 0
t 71 267 266 0
t 265 266 267 0
t 70 263 260 0
t 71 266 263 0
t 72 260 266 0
t 263 266 260 0
t 19 258 247 0
t 69 268 258 0
t 66 247 268 0
t 258 268 247 0
t 20 267 254 0
t 71 269 267 0
t 69 254 269 0
t 267 269 254 0
t 21 251 262 0
t 66 270 251 0
t 71 262 270 0
t 251 270 262 0
t 69 269 268 0
t 71 270 269 0
t 66 268 270 0
t 269 270 268 0
t 1 246 163 0
t 67 271 246 0
t 43 163 271 0
t 246 271 163 0
t 21 272 249 0
t 73 273 272 0
t 67 249 273 0
t 272 273 249 0
t 13 168 275 0
t 43 274 168 0
t 73 275 274 0
t 168 274 275 0
t 67 273 271 0
t 73 274 273 0
t 43 271 274 0
t 273 274 271 0
t 11 276 259 0
t 74 277 276 0
t 70 259 277 0
t 276 277 259 0
t 22 278 280 0
t 75 279 278 0
t 74 280 279 0
t 278 279 280 0
t 21 264 282 0
t 70 281 264 0
t 75 282 281 0
t 264 281 282 0
t 74 279 277 0
t 75 281 279 0
t 70 277 281 0
t 279 281 277 0
t 12 174 284 0
t 48 283 174 0
t 77 284 283 0
t 174 283 284 0
t 13 285 178 0
t 76 286 285 0
t 48 178 286 0
t 285 286 178 0
t 22 287 289 0
t 77 288 287 0
t 76 289 288 0
t 287 288 289 0
t 48 286 283 0
t 76 288 286 0
t 77 283 288 0
t 286 288 283 0
t 21 282 272 0
t 75 290 282 0
t 73 272 290 0
t 282 290 272 0
t 22 289 278 0
t 76 291 289 0
t 75 278 291 0
t 289 291 278 0
t 13 275 285 0
t 73 292 275 0
t 76 285 292 0
t 275 292 285 0
t 75 291 290 0
t 76 292 291 0
t 73 290 292 0
t 291 292 290 0
t 2 209 294 0
t 58 293 209 0
t 79 294 293 0
t 209 293 294 0
t 16 295 213 0
t 78 296 295 0
t 58 213 296 0
t 295 296 213 0
t 24 297 299 0
t 79 298 297 0
t 78 299 298 0
t 297 298 299 0
t 58 296 293 0
t 78 298 296 0
t 79 293 298 0
t 296 298 293 0
t 6 300 200 0
t 80 301 300 0
t 54 200 301 0
t 300 301 200 0
t 23 302 304 0
t 81 303 302 0
t 80 304 303 0
t 302 303 304 0
t 16 204 306 0
t 54 305 204 0
t 81 306 305 0
t 204 305 306 0
t 80 303 301 0
t 81 305 303 0
t 54 301 305 0
t 303 305 301 0
t 10 307 309 0
t 82 308 307 0
t 84 309 308 0
t 307 308 309 0
t 24 310 312 0
t 83 311 310 0
t 82 312 311 0
t 310 311 312 0
t 23 313 315 0
t 84 314 313 0
t 83 315 314 0
t 313 314 315 0
t 82 311 308 0
t 83 314 311 0
t 84 308 314 0
t 311 314 308 0
t 16 306 295 0
t 81 316 306 0
t 78 295 316 0
t 306 316 295 0
t 23 315 302 0
t 83 317 315 0
t 81 302 317 0
t 315 317 302 0
t 24 299 310 0
t 78 318 299 0
t 83 310 318 0
t 299 318 310 0
t 81 317 316 0
t 83 318 317 0
t 78 316 318 0
t 317 318 316 0
t 6 183 320 0
t 51 319 183 0
t 86 320 319 0
t 183 319 320 0
t 14 321 187 0
t 85 322 321 0
t 51 187 322 0
t 321 322 187 0
t 26 323 325 0
t 86 324 323 0
t 85 325 324 0
t 323 324 325 0
t 51 322 319 0
t 85 324 322 0
t 86 319 324 0
t 322 324 319 0
t 12 326 172 0
t 87 327 326 0
t 46 172 327 0
t 326 327 172 0
t 25 328 330 0
t 88 329 328 0
t 87 330 329 0
t 328 329 330 0
t 14 177 332 0
t 46 331 177 0
t 88 332 331 0
t 177 331 332 0
t 87 329 327 0
t 88 331 329 0
t 46 327 331 0
t 329 331 327 0
t 5 333 335 0
t 89 334 333 0
t 91 335 334 0
t 333 334 335 0
t 26 336 338 0
t 90 337 336 0
t 89 338 337 0
t 336 337 338 0
t 25 339 341 0
t 91 340 339 0
t 90 341 340 0
t 339 340 341 0
t 89 337 334 0
t 90 340 337 0
t 91 334 340 0
t 337 340 334 0
t 14 332 321 0
t 88 342 332 0
t 85 321 342 0
t 332 342 321 0
t 25 341 328 0
t 90 343 341 0
t 88 328 343 0
t 341 343 328 0
t 26 325 336 0
t 85 344 325 0
t 90 336 344 0
t 325 344 336 0
t 88 343 342 0
t 90 344 343 0
t 85 342 344 0
t 343 344 342 0
t 12 284 346 0
t 77 345 284 0
t 93 346 345 0
t 284 345 346 0
t 22 347 287 0
t 92 348 347 0
t 77 287 348 0
t 347 348 287 0
t 28 349 351 0
t 93 350 349 0
t 92 351 350 0
t 349 350 351 0
t 77 348 345 0
t 92 350 348 0
t 93 345 350 0
t 348 350 345 0
t 11 352 276 0
t 94 353 352 0
t 74 276 353 0
t 352 353 276 0
t 27 354 356 0
t 95 355 354 0
t 94 356 355 0
t 354 355 356 0
t 22 280 358 0
t 74 357 280 0
t 95 358 357 0
t 280 357 358 0
t 94 355 353 0
t 95 357 355 0
t 74 353 357 0
t 355 357 353 0
t 3 359 361 0
t 96 360 359 0
t 98 361 360 0
t 359 360 361 0
t 28 362 364 0
t 97 363 362 0
t 96 364 363 0
t 362 363 364 0
t 27 365 367 0
t 98 366 365 0
t 97 367 366 0
t 365 366 367 0
t 96 363 360 0
t 97 366 363 0
t 98 360 366 0
t 363 366 360 0
t 22 358 347 0
t 95 368 358 0
t 92 347 368 0
t 358 368 347 0
t 27 367 354 0
t 97 369 367 0
t 95 354 369 0
t 367 369 354 0
t 28 351 362 0
t 92 370 351 0
t 97 362 370 0
t 351 370 362 0
t 95 369 368 0
t 97 370 369 0
t 92 368 370 0
t 369 370 368 0
t 11 261 372 0
t 72 371 261 0
t 100 372 371 0
t 261 371 372 0
t 20 373 265 0
t 99 374 373 0
t 72 265 374 0
t 373 374 265 0
t 30 375 377 0
t 100 376 375 0
t 99 377 376 0
t 375 376 377 0
t 72 374 371 0
t 99 376 374 0
t 100 371 376 0
t 374 376 371 0
t 8 378 252 0
t 101 379 378 0
t 68 252 379 0
t 378 379 252 0
t 29 380 382 0
t 102 381 380 0
t 101 382 381 0
t 380 381 382 0
t 20 256 384 0
t 68 383 256 0
t 102 384 383 0
t 256 383 384 0
t 101 381 379 0
t 102 383 381 0
t 68 379 383 0
t 381 383 379 0
t 7 385 387 0
t 103 386 385 0
t 105 387 386 0
t 385 386 387 0
t 30 388 390 0
t 104 389 388 0
t 103 390 389 0
t 388 389 390 0
t 29 391 393 0
t 105 392 391 0
t 104 393 392 0
t 391 392 393 0
t 103 389 386 0
t 104 392 389 0
t 105 386 392 0
t 389 392 386 0
t 20 384 373 0
t 102 394 384 0
t 99 373 394 0
t 384 394 373 0
t 29 393 380 0
t 104 395 393 0
t 102 380 395 0
t 393 395 380 0
t 30 377 388 0
t 99 396 377 0
t 104 388 396 0
t 377 396 388 0
t 102 395 394 0
t 104 396 395 0
t 99 394 396 0
t 395 396 394 0
t 8 235 398 0
t 65 397 235 0
t 107 398 397 0
t 235 397 398 0
t 18 399 239 0
t 106 400 399 0
t 65 239 400 0
t 399 400 239 0
t 32 401 403 0
t 107 402 401 0
t 106 403 402 0
t 401 402 403 0
t 65 400 397 0
t 106 402 400 0
t 107 397 402 0
t 400 402 397 0
t 2 404 226 0
t 108 405 404 0
t 61 226 405 0
t 404 405 226 0
t 31 406 408 0
t 109 407 406 0
t 108 408 407 0
t 406 407 408 0
t 18 230 410 0
t 61 409 230 0
t 109 410 409 0
t 230 409 410 0
t 108 407 405 0
t 109 409 407 0
t 61 405 409 0
t 407 409 405 0
t 9 411 413 0
t 110 412 411 0
t 112 413 412 0
t 411 412 413 0
t 32 414 416 0
t 111 415 414 0
t 110 416 415 0
t 414 415 416 0
t 31 417 419 0
t 112 418 417 0
t 111 419 418 0
t 417 418 419 0
t 110 415 412 0
t 111 418 415 0
t 112 412 418 0
t 415 418 412 0
t 18 410 399 0
t 109 420 410 0
t 106 399 420 0
t 410 420 399 0
t 31 419 406 0
t 111 421 419 0
t 109 406 421 0
t 419 421 406 0
t 32 403 414 0
t 106 422 403 0
t 111 414 422 0
t 403 422 414 0
t 109 421 420 0
t 111 422 421 0
t 106 420 422 0
t 421 422 420 0
t 4 423 425 0
t 113 424 423 0
t 115 425 424 0
t 423 424 425 0
t 33 426 428 0
t 114 427 426 0
t 113 428 427 0
t 426 427 428 0
t 35 429 431 0
t 115 430 429 0
t 114 431 430 0
t 429 430 431 0
t 113 427 424 0
t 114 430 427 0
t 115 424 430 0
t 427 430 424 0
t 10 432 434 0
t 116 433 432 0
t 118 434 433 0
t 432 433 434 0
t 34 435 437 0
t 117 436 435 0
t 116 437 436 0
t 435 436 437 0
t 33 438 440 0
t 118 439 438 0
t 117 440 439 0
t 438 439 440 0
t 116 436 433 0
t 117 439 436 0
t 118 433 439 0
t 436 439 433 0
t 5 441 443 0
t 119 442 441 0
t 121 443 442 0
t 441 442 443 0
t 35 444 446 0
t 120 445 444 0
t 119 446 445 0
t 444 445 446 0
t 34 447 449 0
t 121 448 447 0
t 120 449 448 0
t 447 448 449 0
t 119 445 442 0
t 120 448 445 0
t 121 442 448 0
t 445 448 442 0
t 33 440 426 0
t 117 450 440 0
t 114 426 450 0
t 440 450 426 0
t 34 449 435 0
t 120 451 449 0
t 117 435 451 0
t 449 451 435 0
t 35 431 444 0
t 114 452 431 0
t 120 444 452 0
t 431 452 444 0
t 117 451 450 0
t 120 452 451 0
t 114 450 452 0
t 451 452 450 0
t 4 425 454 0
t 115 453 425 0
t 123 454 453 0
t 425 453 454 0
t 35 455 429 0
t 122 456 455 0
t 115 429 456 0
t 455 456 429 0
t 37 457 459 0
t 123 458 457 0
t 122 459 458 0
t 457 458 459 0
t 115 456 453 0
t 122 458 456 0
t 123 453 458 0
t 456 458 453 0
t 5 460 441 0
t 124 461 460 0
t 119 441 461 0
t 460 461 441 0
t 36 462 464 0
t 125 463 462 0
t 124 464 463 0
t 462 463 464 0
t 35 446 466 0
t 119 465 446 0
t 125 466 465 0
t 446 465 466 0
t 124 463 461 0
t 125 465 463 0
t 119 461 465 0
t 463 465 461 0
t 3 467 469 0
t 126 468 467 0
t 128 469 468 0
t 467 468 469 0
t 37 470 472 0
t 127 471 470 0
t 126 472 471 0
t 470 471 472 0
t 36 473 475 0
t 128 474 473 0
t 127 475 474 0
t 473 474 475 0
t 126 471 468 0
t 127 474 471 0
t 128 468 474 0
t 471 474 468 0
t 35 466 455 0
t 125 476 466 0
t 122 455 476 0
t 466 476 455 0
t 36 475 462 0
t 127 477 475 0
t 125 462 477 0
t 475 477 462 0
t 37 459 470 0
t 122 478 459 0
t 127 470 478 0
t 459 478 470 0
t 125 477 476 0
t 127 478 477 0
t 122 476 478 0
t 477 478 476 0
t 4 454 480 0
t 123 479 454 0
t 130 480 479 0
t 454 479 480 0
t 37 481 457 0
t 129 482 481 0
t 123 457 482 0
t 481 482 457 0
t 39 483 485 0
t 130 484 483 0
t 129 485 484 0
t 483 484 485 0
t 123 482 479 0
t 129 484 482 0
t 130 479 484 0
t 482 484 479 0
t 3 486 467 0
t 131 487 486 0
t 126 467 487 0
t 486 487 467 0
t 38 488 490 0
t 132 489 488 0
t 131 490 489 0
t 488 489 490 0
t 37 472 492 0
t 126 491 472 0
t 132 492 491 0
t 472 491 492 0
t 131 489 487 0
t 132 491 489 0
t 126 487 491 0
t 489 491 487 0
t 7 493 495 0
t 133 494 493 0
t 135 495 494 0
t 493 494 495 0
t 39 496 498 0
t 134 497 496 0
t 133 498 497 0
t 496 497 498 0
t 38 499 501 0
t 135 500 499 0
t 134 501 500 0
t 499 500 501 0
t 133 497 494 0
t 134 500 497 0
t 135 494 500 0
t 497 500 494 0
t 37 492 481 0
t 132 502 492 0
t 129 481 502 0
t 492 502 481 0
t 38 501 488 0
t 134 503 501 0
t 132 488 503 0
t 501 503 488 0
t 39 485 496 0
t 129 504 485 0
t 134 496 504 0
t 485 504 496 0
t 132 503 502 0
t 134 504 503 0
t 129 502 504 0
t 503 504 502 0
t 4 480 506 0
t 130 505 480 0
t 137 506 505 0
t 480 505 506 0
t 39 507 483 0
t 136 508 507 0
t 130 483 508 0
t 507 508 483 0
t 41 509 511 0
t 137 510 509 0
t 136 511 510 0
t 509 510 511 0
t 130 508 505 0
t 136 510 508 0
t 137 505 510 0
t 508 510 505 0
t 7 512 493 0
t 138 513 512 0
t 133 493 513 0
t 512 513 493 0
t 40 514 516 0
t 139 515 514 0
t 138 516 515 0
t 514 515 516 0
t 39 498 518 0
t 133 517 498 0
t 139 518 517 0
t 498 517 518 0
t 138 515 513 0
t 139 517 515 0
t 133 513 517 0
t 515 517 513 0
t 9 519 521 0
t 140 520 519 0
t 142 521 520 0
t 519 520 521 0
t 41 522 524 0
t 141 523 522 0
t 140 524 523 0
t 522 523 524 0
t 40 525 527 0
t 142 526 525 0
t 141 527 526 0
t 525 526 527 0
t 140 523 520 0
t 141 526 523 0
t 142 520 526 0
t 523 526 520 0
t 39 518 507 0
t 139 528 518 0
t 136 507 528 0
t 518 528 507 0
t 40 527 514 0
t 141 529 527 0
t 139 514 529 0
t 527 529 514 0
t 41 511 522 0
t 136 530 511 0
t 141 522 530 0
t 511 530 522 0
t 139 529 528 0
t 141 530 529 0
t 136 528 530 0
t 529 530 528 0
t 4 506 423 0
t 137 531 506 0
t 113 423 531 0
t 506 531 423 0
t 41 532 509 0
t 143 533 532 0
t 137 509 533 0
t 532 533 509 0
t 33 428 535 0
t 113 534 428 0
t 143 535 534 0
t 428 534 535 0
t 137 533 531 0
t 143 534 533 0
t 113 531 534 0
t 533 534 531 0
t 9 536 519 0
t 144 537 536 0
t 140 519 537 0
t 536 537 519 0
t 42 538 540 0
t 145 539 538 0
t 144 540 539 0
t 538 539 540 0
t 41 524 542 0
t 140 541 524 0
t 145 542 541 0
t 524 541 542 0
t 144 539 537 0
t 145 541 539 0
t 140 537 541 0
t 539 541 537 0
t 10 434 544 0
t 118 543 434 0
t 147 544 543 0
t 434 543 544 0
t 33 545 438 0
t 146 546 545 0
t 118 438 546 0
t 545 546 438 0
t 42 547 549 0
t 147 548 547 0
t 146 549 548 0
t 547 548 549 0
t 118 546 543 0
t 146 548 546 0
t 147 543 548 0
t 546 548 543 0
t 41 542 532 0
t 145 550 542 0
t 143 532 550 0
t 542 550 532 0
t 42 549 538 0
t 146 551 549 0
t 145 538 551 0
t 549 551 538 0
t 33 535 545 0
t 143 552 535 0
t 146 545 552 0
t 535 552 545 0
t 145 551 550 0
t 146 552 551 0
t 143 550 552 0
t 551 552 550 0
t 5 443 333 0
t 121 553 443 0
t 89 333 553 0
t 443 553 333 0
t 34 554 447 0
t 148 555 554 0
t 121 447 555 0
t 554 555 447 0
t 26 338 557 0
t 89 556 338 0
t 148 557 556 0
t 338 556 557 0
t 121 555 553 0
t 148 556 555 0
t 89 553 556 0
t 555 556 553 0
t 10 309 432 0
t 84 558 309 0
t 116 432 558 0
t 309 558 432 0
t 23 559 313 0
t 149 560 559 0
t 84 313 560 0
t 559 560 313 0
t 34 437 562 0
t 116 561 437 0
t 149 562 561 0
t 437 561 562 0
t 84 560 558 0
t 149 561 560 0
t 116 558 561 0
t 560 561 558 0
t 6 320 300 0
t 86 563 320 0
t 80 300 563 0
t 320 563 300 0
t 26 564 323 0
t 150 565 564 0
t 86 323 565 0
t 564 565 323 0
t 23 304 567 0
t 80 566 304 0
t 150 567 566 0
t 304 566 567 0
t 86 565 563 0
t 150 566 565 0
t 80 563 566 0
t 565 566 563 0
t 34 562 554 0
t 149 568 562 0
t 148 554 568 0
t 562 568 554 0
t 23 567 559 0
t 150 569 567 0
t 149 559 569 0
t 567 569 559 0
t 26 557 564 0
t 148 570 557 0
t 150 564 570 0
t 557 570 564 0
t 149 569 568 0
t 150 570 569 0
t 148 568 570 0
t 569 570 568 0
t 3 469 359 0
t 128 571 469 0
t 96 359 571 0
t 469 571 359 0
t 36 572 473 0
t 151 573 572 0
t 128 473 573 0
t 572 573 473 0
t 28 364 575 0
t 96 574 364 0
t 151 575 574 0
t 364 574 575 0
t 128 573 571 0
t 151 574 573 0
t 96 571 574 0
t 573 574 571 0
t 5 335 460 0
t 91 576 335 0
t 124 460 576 0
t 335 576 460 0
t 25 577 339 0
t 152 578 577 0
t 91 339 578 0
t 577 578 339 0
t 36 464 580 0
t 124 579 464 0
t 152 580 579 0
t 464 579 580 0
t 91 578 576 0
t 152 579 578 0
t 124 576 579 0
t 578 579 576 0
t 12 346 326 0
t 93 581 346 0
t 87 326 581 0
t 346 581 326 0
t 28 582 349 0
t 153 583 582 0
t 93 349 583 0
t 582 583 349 0
t 25 330 585 0
t 87 584 330 0
t 153 585 584 0
t 330 584 585 0
t 93 583 581 0
t 153 584 583 0
t 87 581 584 0
t 583 584 581 0
t 36 580 572 0
t 152 586 580 0
t 151 572 586 0
t 580 586 572 0
t 25 585 577 0
t 153 587 585 0
t 152 577 587 0
t 585 587 577 0
t 28 575 582 0
t 151 588 575 0
t 153 582 588 0
t 575 588 582 0
t 152 587 586 0
t 153 588 587 0
t 151 586 588 0
t 587 588 586 0
t 7 495 385 0
t 135 589 495 0
t 103 385 589 0
t 495 589 385 0
t 38 590 499 0
t 154 591 590 0
t 135 499 591 0
t 590 591 499 0
t 30 390 593 0
t 103 592 390 0
t 154 593 592 0
t 390 592 593 0
t 135 591 589 0
t 154 592 591 0
t 103 589 592 0
t 591 592 589 0
t 3 361 486 0
t 98 594 361 0
t 131 486 594 0
t 361 594 486 0
t 27 595 365 0
t 155 596 595 0
t 98 365 596 0
t 595 596 365 0
t 38 490 598 0
t 131 597 490 0
t 155 598 597 0
t 490 597 598 0
t 98 596 594 0
t 155 597 596 0
t 131 594 597 0
t 596 597 594 0
t 11 372 352 0
t 100 599 372 0
t 94 352 599 0
t 372 599 352 0
t 30 600 375 0
t 156 601 600 0
t 100 375 601 0
t 600 601 375 0
t 27 356 603 0
t 94 602 356 0
t 156 603 602 0
t 356 602 603 0
t 100 601 599 0
t 156 602 601 0
t 94 599 602 0
t 601 602 599 0
t 38 598 590 0
t 155 604 598 0
t 154 590 604 0
t 598 604 590 0
t 27 603 595 0
t 156 605 603 0
t 155 595 605 0
t 603 605 595 0
t 30 593 600 0
t 154 606 593 0
t 156 600 606 0
t 593 606 600 0
t 155 605 604 0
t 156 606 605 0
t 154 604 606 0
t 605 606 604 0
t 9 521 411 0
t 142 607 521 0
t 110 411 607 0
t 521 607 411 0
t 40 608 525 0
t 157 609 608 0
t 142 525 609 0
t 608 609 525 0
t 32 416 611 0
t 110 610 416 0
t 157 611 610 0
t 416 610 611 0
t 142 609 607 0
t 157 610 609 0
t 110 607 610 0
t 609 610 607 0
t 7 387 512 0
t 105 612 387 0
t 138 512 612 0
t 387 612 512 0
t 29 613 391 0
t 158 614 613 0
t 105 391 614 0
t 613 614 391 0
t 40 516 616 0
t 138 615 516 0
t 158 616 615 0
t 516 615 616 0
t 105 614 612 0
t 158 615 614 0
t 138 612 615 0
t 614 615 612 0
t 8 398 378 0
t 107 617 398 0
t 101 378 617 0
t 398 617 378 0
t 32 618 401 0
t 159 619 618 0
t 107 401 619 0
t 618 619 401 0
t 29 382 621 0
t 101 620 382 0
t 159 621 620 0
t 382 620 621 0
t 107 619 617 0
t 159 620 619 0
t 101 617 620 0
t 619 620 617 0
t 40 616 608 0
t 158 622 616 0
t 157 608 622 0
t 616 622 608 0
t 29 621 613 0
t 159 623 621 0
t 158 613 623 0
t 621 623 613 0
t 32 611 618 0
t 157 624 611 0
t 159 618 624 0
t 611 624 618 0
t 158 623 622 0
t 159 624 623 0
t 157 622 624 0
t 623 624 622 0
t 10 544 307 0
t 147 625 544 0
t 82 307 625 0
t 544 625 307 0
t 42 626 547 0
t 160 627 626 0
t 147 547 627 0
t 626 627 547 0
t 24 312 629 0
t 82 628 312 0
t 160 629 628 0
t 312 628 629 0
t 147 627 625 0
t 160 628 627 0
t 82 625 628 0
t 627 628 625 0
t 9 413 536 0
t 112 630 413 0
t 144 536 630 0
t 413 630 536 0
t 31 631 417 0
t 161 632 631 0
t 112 417 632 0
t 631 632 417 0
t 42 540 634 0
t 144 633 540 0
t 161 634 633 0
t 540 633 634 0
t 112 632 630 0
t 161 633 632 0
t 144 630 633 0
t 632 633 630 0
t 2 294 404 0
t 79 635 294 0
t 108 404 635 0
t 294 635 404 0
t 24 636 297 0
t 162 637 636 0
t 79 297 637 0
t 636 637 297 0
t 31 408 639 0
t 108 638 408 0
t 162 639 638 0
t 408 638 639 0
t 79 637 635 0
t 162 638 637 0
t 108 635 638 0
t 637 638 635 0
t 42 634 626 0
t 161 640 634 0
t 160 626 640 0
t 634 640 626 0
t 31 639 631 0
t 162 641 639 0
t 161 631 641 0
t 639 641 631 0
t 24 629 636 0
t 160 642 629 0
t 162 636 642 0
t 629 642 636 0
t 161 641 640 0
t 162 642 641 0
t 160 640 642 0
t 641 642 640 0
