v 17.021756761115697 16.071532033990785 5.994446902787105
v 18.052726373084784 16.04796998566005 5.970844796738671
v 17.951517144425434 17.00341042569008 6.084345631148118
v 16.942708929721647 17.08541927785077 6.049429092250804
v 16.969699908341024 15.987363661232134 6.91528859487363
v 17.980700853006656 15.974914125655113 6.982794840758277
v 18.00672411308721 16.973560994797086 7.079792337172371
v 16.975003119562263 16.995232820490127 7.074319333468201
v 19.003771045998644 15.991442684733412 5.906173943564921
v 18.95647881577247 17.029100988299618 5.978891266282273
v 19.063411714223356 16.018284634008182 7.088341515452655
v 19.079100454160535 16.996115885597586 6.985257838955256
v 15.95583520693402 17.041630259068985 5.9177603457627805
v 16.91406907308288 18.069103094636425 5.918777342370965
v 16.05783183672372 17.985180157333208 5.953576585983014
v 16.028103364484856 16.93079630732544 7.091654287442623
v 17.02235122459477 17.976091361852333 6.9052072997509635
v 16.09071020072591 17.971577397844424 6.915933411929577
v 18.084067431499857 17.912071083537448 5.938516994346369
v 18.095337289964046 18.073835518004184 7.001745573309604
v 17.067964018348647 19.096861950982607 6.037945642843209
v 15.949806629555395 19.02240616090834 5.931209039062169
v 16.9514486546186 19.077543938663997 7.091645272805606
v 15.922145248422495 18.93447210239591 7.034357919892182
v 17.991931842480625 18.901440855819263 5.937491258563027
v 17.978600771235847 19.05656982688749 7.010393694205669
v 16.95457680234635 19.95962840363103 6.077821777209493
v 16.05748487472132 19.960449228380483 5.952431387445657
v 16.9381904421951 19.973688225231523 6.956093315173543
v 16.029252594424158 20.053558019379942 6.973643046594207
v 15.931835119653726 16.0734162966742 6.926645990402027
v 16.09457094733922 15.941433499578434 7.963416495655054
v 17.022582983296687 16.060583066963623 7.933941780972969
v 16.920522522622726 16.910894900259443 7.9577048628046825
v 15.904068261488106 16.94939905291635 7.924977067668219
v 17.90405569429986 15.974388653598416 7.9516025088765305
v 17.905260660825817 16.926943311727573 8.020272057988663
v 18.906572668618015 15.975578068303786 7.967432433228769
v 18.946354724254604 16.929522449597464 8.03306431070046
v 19.945091264524923 16.040242865719307 6.943808739087472
v 19.92860829076378 16.933355407997638 6.96175516258384
v 20.070560735456613 15.980368803769597 7.9006706413194365
v 20.023969768794867 17.04283023259176 8.000066379537746
v 16.91129044625803 18.06273449344261 7.987074129404001
v 15.923316112428715 18.057450192714604 7.916824358873449
v 17.99429575546637 17.941981538434405 7.944052516429408
v 19.03580283225037 18.05133956261208 7.0819656733945875
v 19.032193458118584 18.04116680523659 8.029993050906613
v 17.08274948552672 18.960358953736815 8.017593531512983
v 15.979699367077021 18.95068816397394 7.967248450307476
v 18.01009167675815 19.003642543993493 7.964971479346649
v 19.051588060477037 18.974322242848615 6.940328733503401
v 18.942500242111166 18.928726866956882 7.916343331922021
v 17.072547100200055 20.02617517502155 7.935586555377838
v 15.958337659260826 20.07189285113891 8.05154536583719
v 17.926985627362257 19.9106332763029 6.956451664057719
v 17.92023793125769 20.022244138816802 7.9803763839876805
v 15.965779153878861 15.948511935471933 8.916185724606269
v 16.97224727783694 15.973023559685032 8.958481485755543
v 16.997084699189816 16.987503916641735 8.93562484102893
v 15.98963621101687 16.95397002941126 9.080108209061597
v 18.071030198918834 16.09662019683107 9.078691071830235
v 18.039886776740573 17.006029315293155 8.918846730575796
v 19.087190447766176 15.973751155462967 8.951646779841239
v 18.953124355833673 16.945195992079555 8.994268203020296
v 19.999265199759616 16.08230690797669 9.072935921983486
v 19.984762247698033 17.042380929654783 9.077810960435073
v 17.07537116314045 18.00773617122558 9.025809020603742
v 16.084720057679398 18.06355368160927 8.948328924267898
v 18.052526120817717 17.998721563884015 9.066092858649709
v 18.93651586812686 18.0523276620421 8.934261364453976
v 20.05477459870618 17.97279018619369 7.943612472424064
v 20.06291467496152 18.043325789284978 8.903159055483417
v 16.91799730402084 19.091737411025306 9.056110266383484
v 15.902689247001982 18.90689887520566 8.925304631495417
v 18.018717282941406 18.92407139924816 9.055592448829788
v 19.018041284283605 19.037185597387584 9.064034936714538
v 17.05268916460886 19.940307739481742 8.921373103158414
v 16.002355448505934 19.91870306876101 8.988847587005358
v 17.947210439494242 19.904497558631416 8.92609396211712
v 18.993946179459407 19.943755254256992 7.9075781652656225
v 18.95988866063809 20.000815052172527 9.059007144546314
v 16.949472319136596 20.96622501910334 8.055927674100484
v 15.927047746051432 21.044605883589757 7.988310740381192
v 16.934188530205343 21.032433890112063 9.004098296863829
v 15.935890245558976 21.07761902901231 8.994381942032902
v 18.021291637498397 20.970390408633918 8.083811787713167
v 17.907687752743985 20.980644548466636 8.922660647699292
v 16.038197345553034 16.046705724874187 10.070986624242837
v 17.068696730488895 15.937442377477224 10.094683480374094
v 16.90397820061008 16.927901074249736 9.946830084669761
v 16.07877998320083 17.034830890940377 9.914408668335351
v 18.080200513480044 15.968559733321548 10.07097517062821
v 17.98650135729696 17.057513963989756 9.900544086804787
v 19.02107587641445 16.059131033902005 9.977151255639523
v 19.001881245812097 16.94789995829604 10.088113792234378
v 20.05968756693217 15.911138992284151 9.95985397237563
v 20.01753816201097 16.97628278092386 9.91257657779492
v 16.9898900988229 18.03234238125875 10.02680319474473
v 15.980020342513388 18.042991815799954 10.00083986078162
v 17.949699355060098 17.973591157862504 10.021719479037753
v 19.069057395831454 17.958047796217045 9.903046430816051
v 19.914772590553845 17.903457047546603 10.05154568771762
v 17.078051737550844 19.006416718118707 9.91237514950571
v 16.096369206601125 19.02407988108437 9.9292330325476
v 17.96081542879648 18.918471467410708 10.085884397441239
v 19.01187280318414 18.94344781239057 10.070287216015524
v 20.001034919511348 19.02220870897067 9.002684774838405
v 20.01048871450406 18.97813786063616 9.991229310415916
v 16.92587764727566 20.03238830535457 10.058494478715996
v 15.986884833557216 20.096290120357708 9.97010681161588
v 17.945378603871077 19.97678287046773 9.943284545767087
v 16.990874174376493 20.920073779907845 10.079382575348522
v 15.999780142642829 20.940881530800702 10.085686651459428
v 18.056550051421794 21.021747678341413 9.913385516645972
v 16.094664202991307 16.08642582955428 10.967768579834216
v 16.933437790239562 15.990457631622705 11.010274930683593
v 16.901583981226118 16.95245899669987 11.029669115399548
v 16.016971765774734 16.98695631912468 11.088548828255178
v 18.085142050951756 15.960309417603561 10.992320962984563
v 18.081321116076598 16.987512253059222 11.009054471880509
v 18.942581529643068 15.989210410337472 11.002017993306813
v 18.984635868383414 16.927823419623518 10.95618841723904
v 19.922288858233266 15.935734449961851 10.92994377831093
v 19.91177182244134 16.967958486056215 10.976991253661101
v 17.028638066430304 17.997474950074896 10.999567858047705
v 15.967661531751821 17.994240291536535 10.945528676033877
v 17.97768793418894 18.07560266796037 10.9081923374708
v 19.005692061096212 18.024206796688528 10.915577198031455
v 20.045073013449116 17.96047832734477 10.906351446823567
v 17.025236723294448 19.0358011012663 10.984943494307142
v 15.958995259824938 18.977848917675242 10.970713578411008
v 17.980507811733045 19.054912042224235 11.094794686890733
v 19.02589904351381 19.069578659673947 11.055776828462648
v 19.983949338376966 19.01625211768455 11.067172578932732
v 17.06044470187363 19.940909008399657 11.063956383696796
v 16.0564478678398 19.950882276216355 10.94513184285216
v 17.96881225415911 19.966917901156993 10.978357634879629
v 19.012485807953937 19.934459037303395 10.05107420410477
v 19.082741260963907 19.96206792367344 10.917983190865986
v 16.933579407870162 21.07619485524208 10.99452199223464
v 16.075531136415233 21.068080122718968 10.98592527755011
v 17.94078420539589 21.00338453926195 11.078739746348594
v 15.904317555306827 16.008820853570676 11.902134908406689
v 17.044832877868398 15.981343813592558 12.058749415940476
v 16.971832727722283 16.940152135830573 11.982339954557467
v 15.93148399463849 17.02514266679322 12.023137476108932
v 17.90057790848016 15.91671928244403 12.09891521737711
v 18.028353150160065 17.081746284892496 12.032595274347356
v 19.08986784686478 16.091454794589634 12.08360388583752
v 18.994571313914488 16.94408618606397 11.959394480045482
v 19.944999678241242 16.051057784703783 12.084678079618902
v 19.98298488324568 17.09384971842947 12.08232337192426
v 16.950449116707098 18.097986181511388 11.962168763803534
v 15.96452352706406 17.9848277197744 11.971133432263137
v 18.093910928040703 18.069730936965975 12.082108087132259
v 18.926827408564925 18.05488324286985 12.018742119141079
v 19.972946478136322 18.050773120892433 12.071558148248798
v 16.932330613027236 19.068717673892078 12.007466851836108
v 15.911362703232111 19.035101107871842 11.948719873673117
v 17.96149015091513 18.939879328374083 11.995407009835063
v 19.013629408963382 18.939672204262504 11.992796917766913
v 19.9325134379434 19.005744334311686 12.026233102317216
v 17.05309426535228 20.052935567649595 12.027371493283534
v 15.94597411994474 20.062851268950382 12.00676988083941
v 18.051460518783998 19.988425903800653 12.01527016493276
v 19.06126506745931 20.09443956958174 11.911380200843144
v 16.91054043723761 21.015578545640242 12.082567106851998
v 15.90773507242331 21.043106564077764 12.069825945018703
v 17.973405175257685 21.028575256469118 11.988142670104585
v 15.976625912481428 16.04843360625414 13.075324473844017
v 17.02841035022731 16.004133743186497 12.939259459389566
v 17.00827763654022 17.02511620754327 12.988938125540638
v 16.025675974895698 16.92219256883358 13.008697538784991
v 18.071985061041175 16.01485497392917 13.081704799057704
v 18.054543918210545 17.013431328205048 12.994058017108582
v 19.008449873656147 16.064214614082296 13.003495379965335
v 18.940160713082676 17.048842955529846 13.056343561968944
v 20.055950300491357 16.00468732216271 13.091205375535433
v 20.054253332707002 16.954256879234677 13.0782770488596
v 16.96626918218697 18.037191227029073 13.047683054791358
v 15.92549362650164 18.049238804232967 12.92116164012737
v 18.09350317304484 18.014166319240513 12.917999898132662
v 18.900328362478437 18.03701998517029 13.094082268271308
v 17.044537208793756 19.031599066511014 12.947875766102682
v 15.997812197359913 19.030191705266 13.083993224807145
v 18.0536519893952 19.068511246947896 12.943451098027952
v 19.012167011177144 19.002001052583736 12.921301223930886
v 16.973081177871506 20.022922965476585 12.96815327628294
v 15.982162848417797 20.040309680771262 13.052541186842218
v 18.064683094814058 19.92771142003607 12.962832799727886
v 18.96218278971983 20.062666864671204 12.948995509845629
v 18.08533976489372 21.095331154766658 12.97508040583941
v 16.94756712084591 21.058749379943134 13.02213209676718
v 16.071487487564422 15.955610299201899 13.984740923423963
v 17.070781110390133 15.947752417246264 14.044965895827069
v 17.082055483533754 16.934538280659837 13.977961436563223
v 16.086780086245508 16.972280140254217 14.00304248784249
v 18.065220977003545 15.987469512169355 14.077663549771039
v 18.062692841573785 17.024558536356455 14.040567731553704
v 19.055955145798038 16.06140562844631 13.921022679277925
v 18.94916391173601 16.92636208587536 13.905524446839303
v 17.056330869972033 17.919221182872658 14.0440573551593
v 15.928265083285584 18.058277877310093 13.968574040518334
v 18.021278906463266 17.95113815195452 13.92687151359185
v 16.972646099322148 18.9453664605071 13.943039567952663
v 15.925640611149525 19.039103308859755 13.953315731034133
v 18.092435145413944 18.98422836900025 14.0374426173467
v 16.048581373137687 16.040078774332912 14.94273701271384
v 16.941924469202284 16.064359064538785 14.936778611769496
v 17.0028911947046 17.077503617068867 15.004360554095157
v 15.904318914111247 17.010718847594397 15.021245171414456
v 16.971320111841447 17.91812412359622 15.046676325031886
v 15.937927069890309 17.92004533977445 14.93063739417632
v 15.977582654153732 6.095026629963643 16.015428591643268
v 17.028994555678647 6.024851028008743 15.98412946029433
v 17.02871151721372 7.008456475076982 16.090193053836025
v 16.02666239398603 6.953089739629133 15.909181402072214
v 15.990920453921731 6.083773388397363 17.00957522570238
v 16.910048757088845 5.994186495996151 16.913017163144307
v 16.901745424616713 6.928830294912614 17.021931617968384
v 16.01732764680351 6.9732530437398665 16.947826313120366
v 18.02813770220971 6.072502095065511 15.97125354148346
v 18.046381240771495 6.946902343294251 15.942573540020744
v 18.061636871525714 5.913023970293797 17.034907160967336
v 18.069166669673372 7.083787766015032 17.042825925853027
v 19.06131481114614 5.975265767517604 15.911072745919482
v 18.941831597307488 7.067713664196807 16.077225709147086
v 18.923191289031255 5.912414453978101 16.902566672956755
v 19.00649968432087 6.994387244040387 17.040712458325217
v 20.06166768093945 6.0382690856290795 15.924697145965084
v 20.090964874165287 7.091905549011593 15.939029221257753
v 20.070602276737944 6.0343158781787585 16.906462871466527
v 19.902319207915124 6.920305969129522 16.968506033413785
v 17.029799864479408 7.980622400962964 15.958756722756684
v 16.07657023959994 7.986728305202489 15.947557942743208
v 17.03567743287059 8.080364953694781 17.090802687341476
v 16.00746804731059 7.927013072292359 17.07369395394666
v 17.915001033242284 7.953693259681248 15.921831114261309
v 17.92820786194084 7.992776639123501 16.99249322756593
v 18.90390172045287 8.07792524258988 15.91256103434844
v 19.092503142896163 7.9066081030300515 16.98526779592168
v 20.05912958821227 8.020066219488228 15.912937575817185
v 20.006244756175924 8.064795214450523 17.016297668388166
v 17.002181190708843 8.902343728105604 16.03039200667549
v 15.988586517189631 9.092135122644095 15.92754437101946
v 17.093758921202216 9.020463568107056 17.008338997571208
v 15.9402876648166 8.969834563170588 17.05123292611902
v 18.086257802566927 8.97105437415302 16.061478077822024
v 17.944290081872364 9.029027684326289 17.045770648774255
v 19.097162077197556 9.036665508910163 15.973685718782468
v 18.968129984247014 8.956015641879167 16.972002155769683
v 20.038959137561577 9.093700578258796 16.075833574601315
v 20.08027517648823 8.931074169286815 16.97205029998436
v 17.087420119727536 9.96121196723728 15.951306149372096
v 16.02767290292315 9.931892461522807 15.96059896407243
v 17.038862476151213 10.01765395802515 16.950988612174587
v 16.095006255642836 10.017762450724124 16.95086324645569
v 17.920581050025493 10.044733235431755 15.939533867087432
v 17.91472329134143 10.028806531859187 17.03990869569344
v 19.046473662249056 9.922305371322807 15.91967450965889
v 19.07693526519936 10.087797309012156 16.917288232243394
v 20.052677777891734 10.034435808041577 15.90861283284355
v 20.073185789093433 10.000381811600056 17.017765731683834
v 19.918264413031483 10.992702054181883 16.030785602953838
v 18.903887697049793 10.904556266059295 15.947309237498619
v 20.0432237280566 11.051511771436665 17.022573159108315
v 18.94143556132988 10.9166809734623 17.062741683433977
v 15.953884995162797 6.059645374951256 17.95816125300028
v 17.041092305137038 6.031670340000216 18.09623117216309
v 16.943259057866708 7.00551698910915 17.96388139441408
v 15.928584312122808 7.091648852835856 18.04685998951409
v 18.090742200107407 6.053026355431566 17.961398684366873
v 18.987952327529186 5.932986356712283 17.94108451439331
v 18.913351084265933 6.919497781755277 17.98369377579189
v 17.95539091128868 7.097993750931428 18.040571904964665
v 20.050963892017883 6.014029047184322 18.087472528146474
v 19.942497284002563 6.94457671196262 18.0292995304265
v 17.0387241882386 8.07992455832295 18.014530963196428
v 15.9400514669309 7.912247840914868 18.00103163102007
v 18.048817543733314 7.974354228378423 18.061808638116748
v 18.975763081088125 7.97844705093255 18.08746580885755
v 19.976129434531 8.018061306476305 18.084712579288553
v 16.904335558320003 9.063342671931023 18.041530260600943
v 15.90354584164064 9.096463091191291 17.91688642300934
v 17.95866798516234 9.098560133639337 17.957157826060346
v 18.928364409814638 8.954084137861159 18.021746825672004
v 20.0575701735329 9.027273176661971 17.928287990337815
v 17.089097844514754 10.043163427804162 18.02446479447131
v 16.081703823896518 10.022470615341163 18.08281051196718
v 17.961863594695476 10.079050785675328 18.016819673732616
v 18.902352033896992 10.04007349366395 17.90017701838648
v 20.045286918666736 10.007437019076756 17.903211383934554
v 20.95214173338798 9.0434752688759 17.04035926523525
v 20.96041832653317 10.058541946492353 17.027244595195643
v 20.930768854853124 8.984284566191416 18.032843945039488
v 20.9231083121603 9.913704458445356 18.02091726277454
v 16.988903879607378 11.058129647507199 17.061971818373912
v 15.968920716365009 11.01078794250922 17.08106644998238
v 17.099715512328046 10.958694322710615 18.065486559953133
v 15.911056246499701 11.038452993035166 17.997154206342223
v 18.063972857269253 11.08719857355052 16.983226021096932
v 19.099892651548057 11.039337519463524 17.98210544927232
v 18.05183480019736 10.965806603383223 17.930250899573156
v 19.986672404078114 10.912942346264247 17.94392932116566
v 16.002531830555935 6.00875184984941 19.028464166482912
v 17.01710750411483 6.042555273319319 19.087040514960318
v 17.091994873882914 6.970978933614929 19.09969263826556
v 15.95206148399847 7.072746977223569 19.01845450477025
v 17.935880456067384 6.094684702460824 18.985049169511885
v 19.067808562810175 6.000282579129156 19.03048558100807
v 18.935720444739093 7.006025792383182 19.05378380854158
v 18.010825629413784 7.083475533484967 19.0875102183787
v 19.99276157435017 5.970798083778975 19.05477292334869
v 19.98557252744678 6.922964780681228 19.076979126259452
v 16.9322274169585 7.906874293369843 19.059259007343364
v 15.972258821074787 7.962167211641828 19.07568573831215
v 18.0214743662679 8.012083767812756 19.01335202503109
v 19.02139142798303 8.034060660184423 18.983654340721372
v 20.031754717992644 7.917160817073307 19.09756658689035
v 17.017598545071785 9.005222163156494 19.07923509974582
v 15.902961859112214 9.05387482962853 18.963071121975542
v 17.98371007436973 9.005813139391098 19.076444817852373
v 19.07082378231501 8.989784223732787 18.97960073479051
v 20.00177492101593 8.952845278755623 18.99593457534592
v 16.924479178174366 9.945628604290379 18.91969097219645
v 15.964895282710202 10.02621877004123 19.085266926859735
v 17.901433093612525 9.918034505461447 19.032212609051005
v 18.94386879261886 10.048590950592008 19.0532147230615
v 19.971192172268392 9.9661915014981 18.94537671111063
v 17.973676113866777 10.939180024572686 19.036303895904183
v 17.000239660969342 10.94354667901496 18.99637560366533
v 19.0971115038426 10.952835292060795 19.056848203312335
v 20.06271336927338 11.077377652706845 19.095353693632784
v 17.052544781032964 7.021036663989787 20.0535173562516
v 18.062376107436492 6.935736135292234 19.98494609732377
v 18.087052433044416 8.078605208480234 19.905563451064154
v 17.01312914968441 7.929317204872408 20.000679164155134
v 18.970679712214093 6.903540798852392 20.06561931493284
v 19.07839303492861 8.045284856704207 19.987238435637575
v 16.05410716711668 7.972884248907754 19.923395407756146
v 17.0253934830632 9.090012313033622 20.000226206887824
v 16.017458960893386 8.909118869690777 19.953590246422703
v 18.074872984074375 9.047140983408267 20.021779417282172
v 20.049730505800163 8.050833818813485 19.92676053912958
v 20.042724998843024 9.08545232951348 20.06327301367865
v 19.020629016308476 9.008254259828435 20.085890173635203
v 17.008761237220618 9.912083516427506 20.02647505157019
v 16.09819956600204 10.087357299355887 20.029454558325448
v 17.99601314519792 10.082607226718004 19.909033503456694
v 18.989692892216507 10.034477063035508 20.075812011947566
v 20.097617356650883 10.050667926402648 19.90503199643913
v 16.01423950982875 10.928529779687977 19.066183814596258
v 16.92771884978617 11.001921020981156 20.01018538885048
v 15.999666415241611 10.953910534791843 19.95890027153936
v 18.02485939429207 11.040826830358068 20.039090623856072
v 18.967522318675265 10.987501968852426 19.90524761982762
v 17.024780915031126 12.03364966382419 19.017607179483445
v 15.98089545611878 12.00359169147951 18.9712729387138
v 17.01450365308655 12.095993905091412 20.094722141459897
v 16.022661176219245 11.976852393744725 19.96399583059437
v 18.90623403082646 11.916487509295406 19.011527862784394
v 18.020004582614828 11.992005047445975 18.923823079732735
v 18.964667616095007 12.05505391459452 20.087787875987225
v 17.994652660098506 11.963772746254412 20.060442135283477
v 16.95379027949132 8.028841189800996 20.91687674426104
v 17.994392890635375 8.010206410321135 21.039339382163607
v 18.04122754443078 9.064066763652473 21.024542712576658
v 17.090216058313164 8.971178107618577 20.995963759973314
v 18.04137135941792 9.921978827008417 21.05620096765676
v 17.072240186457265 9.930248123145425 20.972591439463805
v 18.946637112082417 8.966070561464216 21.041245576359284
v 19.051082328076703 10.093772043072002 20.940208197578208
v 16.054382707078208 9.951786248817516 20.954606026614965
v 17.018568863012742 11.09442048473073 20.949542029245197
v 15.918548412626762 10.916864567739738 20.907432604921762
v 18.930837088397343 10.972307573488298 20.933347518868096
v 17.993644976801903 11.055575480527501 21.007033210433864
t 0 1 3 4
t 1 2 3 6
t 1 4 5 6
t 3 4 6 7
t 1 3 4 6
t 1 8 2 5
t 8 9 2 11
t 8 5 10 11
t 2 5 11 6
t 8 2 5 11
t 12 3 14 15
t 3 13 14 16
t 3 15 7 16
t 14 15 16 17
t 3 14 15 16
t 3 2 13 7
t 2 18 13 19
t 2 7 6 19
t 13 7 19 16
t 2 13 7 19
t 14 13 21 17
t 13 20 21 22
t 13 17 16 22
t 21 17 22 23
t 13 21 17 22
t 13 18 20 16
t 18 24 20 25
t 18 16 19 25
t 20 16 25 22
t 18 20 16 25
t 21 20 27 23
t 20 26 27 28
t 20 23 22 28
t 27 23 28 29
t 20 27 23 28
t 30 4 15 31
t 4 7 15 33
t 4 31 32 33
t 15 31 33 34
t 4 15 31 33
t 4 5 7 32
t 5 6 7 36
t 5 32 35 36
t 7 32 36 33
t 5 7 32 36
t 5 10 6 35
t 10 11 6 38
t 10 35 37 38
t 6 35 38 36
t 10 6 35 38
t 10 39 11 37
t 39 40 11 42
t 39 37 41 42
t 11 37 42 38
t 39 11 37 42
t 15 7 17 34
t 7 16 17 43
t 7 34 33 43
t 17 34 43 44
t 7 17 34 43
t 7 6 16 33
t 6 19 16 45
t 6 33 36 45
t 16 33 45 43
t 6 16 33 45
t 6 11 19 36
t 11 46 19 47
t 11 36 38 47
t 19 36 47 45
t 11 19 36 47
t 17 16 23 44
t 16 22 23 48
t 16 44 43 48
t 23 44 48 49
t 16 23 44 48
t 16 19 22 43
t 19 25 22 50
t 19 43 45 50
t 22 43 50 48
t 19 22 43 50
t 19 46 25 45
t 46 51 25 52
t 46 45 47 52
t 25 45 52 50
t 46 25 45 52
t 23 22 29 49
t 22 28 29 53
t 22 49 48 53
t 29 49 53 54
t 22 29 49 53
t 22 25 28 48
t 25 55 28 56
t 25 48 50 56
t 28 48 56 53
t 25 28 48 56
t 31 32 34 57
t 32 33 34 59
t 32 57 58 59
t 34 57 59 60
t 32 34 57 59
t 32 35 33 58
t 35 36 33 62
t 35 58 61 62
t 33 58 62 59
t 35 33 58 62
t 35 37 36 61
t 37 38 36 64
t 37 61 63 64
t 36 61 64 62
t 37 36 61 64
t 37 41 38 63
t 41 42 38 66
t 41 63 65 66
t 38 63 66 64
t 41 38 63 66
t 34 33 44 60
t 33 43 44 67
t 33 60 59 67
t 44 60 67 68
t 33 44 60 67
t 33 36 43 59
t 36 45 43 69
t 36 59 62 69
t 43 59 69 67
t 36 43 59 69
t 36 38 45 62
t 38 47 45 70
t 38 62 64 70
t 45 62 70 69
t 38 45 62 70
t 38 42 47 64
t 42 71 47 72
t 42 64 66 72
t 47 64 72 70
t 42 47 64 72
t 44 43 49 68
t 43 48 49 73
t 43 68 67 73
t 49 68 73 74
t 43 49 68 73
t 43 45 48 67
t 45 50 48 75
t 45 67 69 75
t 48 67 75 73
t 45 48 67 75
t 45 47 50 69
t 47 52 50 76
t 47 69 70 76
t 50 69 76 75
t 47 50 69 76
t 49 48 54 74
t 48 53 54 77
t 48 74 73 77
t 54 74 77 78
t 48 54 74 77
t 48 50 53 73
t 50 56 53 79
t 50 73 75 79
t 53 73 79 77
t 50 53 73 79
t 50 52 56 75
t 52 80 56 81
t 52 75 76 81
t 56 75 81 79
t 52 56 75 81
t 54 53 83 78
t 53 82 83 84
t 53 78 77 84
t 83 78 84 85
t 53 83 78 84
t 53 56 82 77
t 56 86 82 87
t 56 77 79 87
t 82 77 87 84
t 56 82 77 87
t 57 58 60 88
t 58 59 60 90
t 58 88 89 90
t 60 88 90 91
t 58 60 88 90
t 58 61 59 89
t 61 62 59 93
t 61 89 92 93
t 59 89 93 90
t 61 59 89 93
t 61 63 62 92
t 63 64 62 95
t 63 92 94 95
t 62 92 95 93
t 63 62 92 95
t 63 65 64 94
t 65 66 64 97
t 65 94 96 97
t 64 94 97 95
t 65 64 94 97
t 60 59 68 91
t 59 67 68 98
t 59 91 90 98
t 68 91 98 99
t 59 68 91 98
t 59 62 67 90
t 62 69 67 100
t 62 90 93 100
t 67 90 100 98
t 62 67 90 100
t 62 64 69 93
t 64 70 69 101
t 64 93 95 101
t 69 93 101 100
t 64 69 93 101
t 64 66 70 95
t 66 72 70 102
t 66 95 97 102
t 70 95 102 101
t 66 70 95 102
t 68 67 74 99
t 67 73 74 103
t 67 99 98 103
t 74 99 103 104
t 67 74 99 103
t 67 69 73 98
t 69 75 73 105
t 69 98 100 105
t 73 98 105 103
t 69 73 98 105
t 69 70 75 100
t 70 76 75 106
t 70 100 101 106
t 75 100 106 105
t 70 75 100 106
t 70 72 76 101
t 72 107 76 108
t 72 101 102 108
t 76 101 108 106
t 72 76 101 108
t 74 73 78 104
t 73 77 78 109
t 73 104 103 109
t 78 104 109 110
t 73 78 104 109
t 73 75 77 103
t 75 79 77 111
t 75 103 105 111
t 77 103 111 109
t 75 77 103 111
t 78 77 85 110
t 77 84 85 112
t 77 110 109 112
t 85 110 112 113
t 77 85 110 112
t 77 79 84 109
t 79 87 84 114
t 79 109 111 114
t 84 109 114 112
t 79 84 109 114
t 88 89 91 115
t 89 90 91 117
t 89 115 116 117
t 91 115 117 118
t 89 91 115 117
t 89 92 90 116
t 92 93 90 120
t 92 116 119 120
t 90 116 120 117
t 92 90 116 120
t 92 94 93 119
t 94 95 93 122
t 94 119 121 122
t 93 119 122 120
t 94 93 119 122
t 94 96 95 121
t 96 97 95 124
t 96 121 123 124
t 95 121 124 122
t 96 95 121 124
t 91 90 99 118
t 90 98 99 125
t 90 118 117 125
t 99 118 125 126
t 90 99 118 125
t 90 93 98 117
t 93 100 98 127
t 93 117 120 127
t 98 117 127 125
t 93 98 117 127
t 93 95 100 120
t 95 101 100 128
t 95 120 122 128
t 100 120 128 127
t 95 100 120 128
t 95 97 101 122
t 97 102 101 129
t 97 122 124 129
t 101 122 129 128
t 97 101 122 129
t 99 98 104 126
t 98 103 104 130
t 98 126 125 130
t 104 126 130 131
t 98 104 126 130
t 98 100 103 125
t 100 105 103 132
t 100 125 127 132
t 103 125 132 130
t 100 103 125 132
t 100 101 105 127
t 101 106 105 133
t 101 127 128 133
t 105 127 133 132
t 101 105 127 133
t 101 102 106 128
t 102 108 106 134
t 102 128 129 134
t 106 128 134 133
t 102 106 128 134
t 104 103 110 131
t 103 109 110 135
t 103 131 130 135
t 110 131 135 136
t 103 110 131 135
t 103 105 109 130
t 105 111 109 137
t 105 130 132 137
t 109 130 137 135
t 105 109 130 137
t 105 106 111 132
t 106 138 111 139
t 106 132 133 139
t 111 132 139 137
t 106 111 132 139
t 110 109 113 136
t 109 112 113 140
t 109 136 135 140
t 113 136 140 141
t 109 113 136 140
t 109 111 112 135
t 111 114 112 142
t 111 135 137 142
t 112 135 142 140
t 111 112 135 142
t 115 116 118 143
t 116 117 118 145
t 116 143 144 145
t 118 143 145 146
t 116 118 143 145
t 116 119 117 144
t 119 120 117 148
t 119 144 147 148
t 117 144 148 145
t 119 117 144 148
t 119 121 120 147
t 121 122 120 150
t 121 147 149 150
t 120 147 150 148
t 121 120 147 150
t 121 123 122 149
t 123 124 122 152
t 123 149 151 152
t 122 149 152 150
t 123 122 149 152
t 118 117 126 146
t 117 125 126 153
t 117 146 145 153
t 126 146 153 154
t 117 126 146 153
t 117 120 125 145
t 120 127 125 155
t 120 145 148 155
t 125 145 155 153
t 120 125 145 155
t 120 122 127 148
t 122 128 127 156
t 122 148 150 156
t 127 148 156 155
t 122 127 148 156
t 122 124 128 150
t 124 129 128 157
t 124 150 152 157
t 128 150 157 156
t 124 128 150 157
t 126 125 131 154
t 125 130 131 158
t 125 154 153 158
t 131 154 158 159
t 125 131 154 158
t 125 127 130 153
t 127 132 130 160
t 127 153 155 160
t 130 153 160 158
t 127 130 153 160
t 127 128 132 155
t 128 133 132 161
t 128 155 156 161
t 132 155 161 160
t 128 132 155 161
t 128 129 133 156
t 129 134 133 162
t 129 156 157 162
t 133 156 162 161
t 129 133 156 162
t 131 130 136 159
t 130 135 136 163
t 130 159 158 163
t 136 159 163 164
t 130 136 159 163
t 130 132 135 158
t 132 137 135 165
t 132 158 160 165
t 135 158 165 163
t 132 135 158 165
t 132 133 137 160
t 133 139 137 166
t 133 160 161 166
t 137 160 166 165
t 133 137 160 166
t 136 135 141 164
t 135 140 141 167
t 135 164 163 167
t 141 164 167 168
t 135 141 164 167
t 135 137 140 163
t 137 142 140 169
t 137 163 165 169
t 140 163 169 167
t 137 140 163 169
t 143 144 146 170
t 144 145 146 172
t 144 170 171 172
t 146 170 172 173
t 144 146 170 172
t 144 147 145 171
t 147 148 145 175
t 147 171 174 175
t 145 171 175 172
t 147 145 171 175
t 147 149 148 174
t 149 150 148 177
t 149 174 176 177
t 148 174 177 175
t 149 148 174 177
t 149 151 150 176
t 151 152 150 179
t 151 176 178 179
t 150 176 179 177
t 151 150 176 179
t 146 145 154 173
t 145 153 154 180
t 145 173 172 180
t 154 173 180 181
t 145 154 173 180
t 145 148 153 172
t 148 155 153 182
t 148 172 175 182
t 153 172 182 180
t 148 153 172 182
t 148 150 155 175
t 150 156 155 183
t 150 175 177 183
t 155 175 183 182
t 150 155 175 183
t 154 153 159 181
t 153 158 159 184
t 153 181 180 184
t 159 181 184 185
t 153 159 181 184
t 153 155 158 180
t 155 160 158 186
t 155 180 182 186
t 158 180 186 184
t 155 158 180 186
t 155 156 160 182
t 156 161 160 187
t 156 182 183 187
t 160 182 187 186
t 156 160 182 187
t 159 158 164 185
t 158 163 164 188
t 158 185 184 188
t 164 185 188 189
t 158 164 185 188
t 158 160 163 184
t 160 165 163 190
t 160 184 186 190
t 163 184 190 188
t 160 163 184 190
t 160 161 165 186
t 161 166 165 191
t 161 186 187 191
t 165 186 191 190
t 161 165 186 191
t 163 165 167 188
t 165 169 167 192
t 165 188 190 192
t 167 188 192 193
t 165 167 188 192
t 170 171 173 194
t 171 172 173 196
t 171 194 195 196
t 173 194 196 197
t 171 173 194 196
t 171 174 172 195
t 174 175 172 199
t 174 195 198 199
t 172 195 199 196
t 174 172 195 199
t 174 176 175 198
t 176 177 175 201
t 176 198 200 201
t 175 198 201 199
t 176 175 198 201
t 173 172 181 197
t 172 180 181 202
t 172 197 196 202
t 181 197 202 203
t 172 181 197 202
t 172 175 180 196
t 175 182 180 204
t 175 196 199 204
t 180 196 204 202
t 175 180 196 204
t 181 180 185 203
t 180 184 185 205
t 180 203 202 205
t 185 203 205 206
t 180 185 203 205
t 180 182 184 202
t 182 186 184 207
t 182 202 204 207
t 184 202 207 205
t 182 184 202 207
t 194 195 197 208
t 195 196 197 210
t 195 208 209 210
t 197 208 210 211
t 195 197 208 210
t 197 196 203 211
t 196 202 203 212
t 196 211 210 212
t 203 211 212 213
t 196 203 211 212
t 214 215 217 218
t 215 216 217 220
t 215 218 219 220
t 217 218 220 221
t 215 217 218 220
t 215 222 216 219
t 222 223 216 225
t 222 219 224 225
t 216 219 225 220
t 222 216 219 225
t 222 226 223 224
t 226 227 223 229
t 226 224 228 229
t 223 224 229 225
t 226 223 224 229
t 226 230 227 228
t 230 231 227 233
t 230 228 232 233
t 227 228 233 229
t 230 227 228 233
t 217 216 235 221
t 216 234 235 236
t 216 221 220 236
t 235 221 236 237
t 216 235 221 236
t 216 223 234 220
t 223 238 234 239
t 223 220 225 239
t 234 220 239 236
t 223 234 220 239
t 223 227 238 225
t 227 240 238 241
t 227 225 229 241
t 238 225 241 239
t 227 238 225 241
t 227 231 240 229
t 231 242 240 243
t 231 229 233 243
t 240 229 243 241
t 231 240 229 243
t 235 234 245 237
t 234 244 245 246
t 234 237 236 246
t 245 237 246 247
t 234 245 237 246
t 234 238 244 236
t 238 248 244 249
t 238 236 239 249
t 244 236 249 246
t 238 244 236 249
t 238 240 248 239
t 240 250 248 251
t 240 239 241 251
t 248 239 251 249
t 240 248 239 251
t 240 242 250 241
t 242 252 250 253
t 242 241 243 253
t 250 241 253 251
t 242 250 241 253
t 245 244 255 247
t 244 254 255 256
t 244 247 246 256
t 255 247 256 257
t 244 255 247 256
t 244 248 254 246
t 248 258 254 259
t 248 246 249 259
t 254 246 259 256
t 248 254 246 259
t 248 250 258 249
t 250 260 258 261
t 250 249 251 261
t 258 249 261 259
t 250 258 249 261
t 250 252 260 251
t 252 262 260 263
t 252 251 253 263
t 260 251 263 261
t 252 260 251 263
t 260 262 265 261
t 262 264 265 266
t 262 261 263 266
t 265 261 266 267
t 262 265 261 266
t 218 219 221 268
t 219 220 221 270
t 219 268 269 270
t 221 268 270 271
t 219 221 268 270
t 224 228 225 272
t 228 229 225 274
t 228 272 273 274
t 225 272 274 275
t 228 225 272 274
t 228 232 229 273
t 232 233 229 277
t 232 273 276 277
t 229 273 277 274
t 232 229 273 277
t 221 220 237 271
t 220 236 237 278
t 220 271 270 278
t 237 271 278 279
t 220 237 271 278
t 220 225 236 270
t 225 239 236 280
t 225 270 275 280
t 236 270 280 278
t 225 236 270 280
t 225 229 239 275
t 229 241 239 281
t 229 275 274 281
t 239 275 281 280
t 229 239 275 281
t 229 233 241 274
t 233 243 241 282
t 233 274 277 282
t 241 274 282 281
t 233 241 274 282
t 237 236 247 279
t 236 246 247 283
t 236 279 278 283
t 247 279 283 284
t 236 247 279 283
t 236 239 246 278
t 239 249 246 285
t 239 278 280 285
t 246 278 285 283
t 239 246 278 285
t 239 241 249 280
t 241 251 249 286
t 241 280 281 286
t 249 280 286 285
t 241 249 280 286
t 241 243 251 281
t 243 253 251 287
t 243 281 282 287
t 251 281 287 286
t 243 251 281 287
t 247 246 257 284
t 246 256 257 288
t 246 284 283 288
t 257 284 288 289
t 246 257 284 288
t 246 249 256 283
t 249 259 256 290
t 249 283 285 290
t 256 283 290 288
t 249 256 283 290
t 249 251 259 285
t 251 261 259 291
t 251 285 286 291
t 259 285 291 290
t 251 259 285 291
t 251 253 261 286
t 253 263 261 292
t 253 286 287 292
t 261 286 292 291
t 253 261 286 292
t 253 293 263 287
t 293 294 263 296
t 293 287 295 296
t 263 287 296 292
t 293 263 287 296
t 257 256 298 289
t 256 297 298 299
t 256 289 288 299
t 298 289 299 300
t 256 298 289 299
t 259 261 301 290
t 261 267 301 302
t 261 290 291 302
t 301 290 302 303
t 261 301 290 302
t 261 263 267 291
t 263 266 267 304
t 263 291 292 304
t 267 291 304 302
t 263 267 291 304
t 268 269 271 305
t 269 270 271 307
t 269 305 306 307
t 271 305 307 308
t 269 271 305 307
t 272 273 275 309
t 273 274 275 311
t 273 309 310 311
t 275 309 311 312
t 273 275 309 311
t 273 276 274 310
t 276 277 274 314
t 276 310 313 314
t 274 310 314 311
t 276 274 310 314
t 271 270 279 308
t 270 278 279 315
t 270 308 307 315
t 279 308 315 316
t 270 279 308 315
t 270 275 278 307
t 275 280 278 317
t 275 307 312 317
t 278 307 317 315
t 275 278 307 317
t 275 274 280 312
t 274 281 280 318
t 274 312 311 318
t 280 312 318 317
t 274 280 312 318
t 274 277 281 311
t 277 282 281 319
t 277 311 314 319
t 281 311 319 318
t 277 281 311 319
t 279 278 284 316
t 278 283 284 320
t 278 316 315 320
t 284 316 320 321
t 278 284 316 320
t 278 280 283 315
t 280 285 283 322
t 280 315 317 322
t 283 315 322 320
t 280 283 315 322
t 280 281 285 317
t 281 286 285 323
t 281 317 318 323
t 285 317 323 322
t 281 285 317 323
t 281 282 286 318
t 282 287 286 324
t 282 318 319 324
t 286 318 324 323
t 282 286 318 324
t 284 283 289 321
t 283 288 289 325
t 283 321 320 325
t 289 321 325 326
t 283 289 321 325
t 283 285 288 320
t 285 290 288 327
t 285 320 322 327
t 288 320 327 325
t 285 288 320 327
t 285 286 290 322
t 286 291 290 328
t 286 322 323 328
t 290 322 328 327
t 286 290 322 328
t 286 287 291 323
t 287 292 291 329
t 287 323 324 329
t 291 323 329 328
t 287 291 323 329
t 288 290 299 325
t 290 303 299 330
t 290 325 327 330
t 299 325 330 331
t 290 299 325 330
t 290 291 303 327
t 291 302 303 332
t 291 327 328 332
t 303 327 332 330
t 291 303 327 332
t 291 292 302 328
t 292 304 302 333
t 292 328 329 333
t 302 328 333 332
t 292 302 328 333
t 307 312 315 334
t 312 317 315 336
t 312 334 335 336
t 315 334 336 337
t 312 315 334 336
t 312 311 317 335
t 311 318 317 339
t 311 335 338 339
t 317 335 339 336
t 311 317 335 339
t 316 315 321 340
t 315 320 321 341
t 315 340 337 341
t 321 340 341 342
t 315 321 340 341
t 315 317 320 337
t 317 322 320 343
t 317 337 336 343
t 320 337 343 341
t 317 320 337 343
t 318 319 323 339
t 319 324 323 345
t 319 339 344 345
t 323 339 345 346
t 319 323 339 345
t 321 320 326 342
t 320 325 326 347
t 320 342 341 347
t 326 342 347 348
t 320 326 342 347
t 320 322 325 341
t 322 327 325 349
t 322 341 343 349
t 325 341 349 347
t 322 325 341 349
t 322 323 327 343
t 323 328 327 350
t 323 343 346 350
t 327 343 350 349
t 323 327 343 350
t 323 324 328 346
t 324 329 328 351
t 324 346 345 351
t 328 346 351 350
t 324 328 346 351
t 326 325 352 348
t 325 331 352 353
t 325 348 347 353
t 352 348 353 354
t 325 352 348 353
t 325 327 331 347
t 327 330 331 355
t 327 347 349 355
t 331 347 355 353
t 327 331 347 355
t 327 328 330 349
t 328 332 330 356
t 328 349 350 356
t 330 349 356 355
t 328 330 349 356
t 352 331 358 354
t 331 357 358 359
t 331 354 353 359
t 358 354 359 360
t 331 358 354 359
t 330 332 362 355
t 332 361 362 363
t 332 355 356 363
t 362 355 363 364
t 332 362 355 363
t 337 336 341 365
t 336 343 341 367
t 336 365 366 367
t 341 365 367 368
t 336 341 365 367
t 341 343 347 368
t 343 349 347 369
t 343 368 367 369
t 347 368 369 370
t 343 347 368 369
t 343 346 349 367
t 346 350 349 372
t 346 367 371 372
t 349 367 372 369
t 346 349 367 372
t 348 347 354 373
t 347 353 354 374
t 347 373 370 374
t 354 373 374 375
t 347 354 373 374
t 349 350 355 369
t 350 356 355 376
t 350 369 372 376
t 355 369 376 377
t 350 355 369 376
